<svg id="图层_1" data-name="图层 1" xmlns="http://www.w3.org/2000/svg" viewBox="0 0 237.78 73.13"><defs><style>.cls-1{fill:#255aa8;}</style></defs><title>aelf logo</title><g id="_编组_" data-name="&lt;编组&gt;"><rect id="_路径_" data-name="&lt;路径&gt;" class="cls-1" x="178.54" y="1.96" width="12.23" height="69.1"/><path id="_路径_2" data-name="&lt;路径&gt;" class="cls-1" d="M266.17,85.2V74.45H252V69.37a6.49,6.49,0,0,1,6.48-6.49h7.7V51.78H257a16.9,16.9,0,0,0-16.9,16.9v5.76H231.8V85.2h8.32v37.64H252V85.2Z" transform="translate(-36.37 -51.78)"/><rect id="_路径_3" data-name="&lt;路径&gt;" class="cls-1" x="227.26" y="60.53" width="10.52" height="10.52"/><path id="_复合路径_" data-name="&lt;复合路径&gt;" class="cls-1" d="M203,106.86a18.87,18.87,0,0,1-13.59,5.2c-7.51,0-13.28-4.93-14.24-11.09h38a28.69,28.69,0,0,0,.32-4c0-14.06-9.17-24.59-22.58-24.59a23.67,23.67,0,0,0-17.35,7.65v-6h-8.84v5.78a23.67,23.67,0,0,0-17.18-7.45c-13.41,0-24.28,11.39-24.28,25.44s10.87,25.44,24.28,25.44a23.7,23.7,0,0,0,17.18-7.45v5.77h8.84v-6a23.67,23.67,0,0,0,17.35,7.65c8.33,0,14.95-3.05,19.4-8.56ZM189.47,82.21a13.59,13.59,0,0,1,13.22,9.86H175.23A15.22,15.22,0,0,1,189.47,82.21Zm-39.32,30.48a15.24,15.24,0,1,1,15.23-15.24A15.24,15.24,0,0,1,150.15,112.69Z" transform="translate(-36.37 -51.78)"/></g><ellipse id="_路径_4" data-name="&lt;路径&gt;" class="cls-1" cx="92.74" cy="89.73" rx="14.67" ry="14.67" transform="translate(-52.33 107.49) rotate(-76.66)"/><path id="_路径_5" data-name="&lt;路径&gt;" class="cls-1" d="M70.47,92.33a4.26,4.26,0,0,0-2.16,1.61h0a4.18,4.18,0,0,0-.43.77,7.14,7.14,0,0,1-1.34,2A14.5,14.5,0,0,1,63,99.37c-2.51,1.39-7.77-.8-10.16-1.94a10.82,10.82,0,0,0-1.18-.59l0,0h0A10.87,10.87,0,1,0,58,109.53h0c1.17-5.09,3.46-7.43,5.84-8.76s6.64-.2,6.64-.2h0a4.37,4.37,0,0,0,4.35-7.36A4.4,4.4,0,0,0,70.47,92.33Z" transform="translate(-36.37 -51.78)"/><circle id="_路径_6" data-name="&lt;路径&gt;" class="cls-1" cx="73.88" cy="117.72" r="7.19" transform="translate(-97.68 33.68) rotate(-44.47)"/><circle id="_路径_7" data-name="&lt;路径&gt;" class="cls-1" cx="73.88" cy="61.99" r="7.19" transform="translate(-58.64 17.72) rotate(-44.47)"/><path id="_路径_8" data-name="&lt;路径&gt;" class="cls-1" d="M73.87,78.38A4.23,4.23,0,0,0,71.2,78h0a4.09,4.09,0,0,0-.84.26,7.33,7.33,0,0,1-2.36.51,14.7,14.7,0,0,1-4.38-.54c-2.77-.74-5-6-6-8.45-.13-.42-.27-.84-.44-1.25l0,0h0A10.89,10.89,0,1,0,53,82.08v0c4.38-2.85,7.66-2.94,10.29-2.24s4.92,4.46,4.92,4.46h0a4.36,4.36,0,1,0,5.72-5.93Z" transform="translate(-36.37 -51.78)"/></svg>