<?xml version="1.0" encoding="utf-8"?>
<!-- Generator: Adobe Illustrator 22.0.0, SVG Export Plug-In . SVG Version: 6.00 Build 0)  -->
<svg version="1.1" id="layer_1" xmlns="http://www.w3.org/2000/svg" xmlns:xlink="http://www.w3.org/1999/xlink" x="0px" y="0px"
	 viewBox="0 0 231 199" style="enable-background:new 0 0 231 199;" xml:space="preserve">
<style type="text/css">
	.st0{opacity:0.6;}
	.st1{fill:#5B1AFF;}
	.st2{fill:#C5DAFF;}
	.st3{fill:#FFFFFF;}
	.st4{fill:#C4F5F7;}
	.st5{fill:#9CD6E3;}
	.st6{fill:#D0D9E8;}
	.st7{fill:#EDF4FC;}
	.st8{fill:#D2DCE9;}
	.st9{fill-rule:evenodd;clip-rule:evenodd;fill:#D0D9E8;}
	.st10{fill-rule:evenodd;clip-rule:evenodd;fill:#FFFFFF;}
	.st11{fill-rule:evenodd;clip-rule:evenodd;fill:#00DCFC;}
	.st12{fill:#00477D;}
	.st13{fill:#DEF1FF;}
	.st14{fill:#376D81;}
	.st15{fill:#FCD2C5;}
	.st16{fill:#86C0F2;}
	.st17{fill:#203A60;}
	.st18{fill:#004DC3;}
	.st19{fill:#B6B6FF;}
	.st20{fill:#FF52A8;}
	.st21{fill:#FA007D;}
	.st22{fill:#0E2529;}
	.st23{fill:#625AFF;}
	.st24{opacity:0.7;}
	.st25{fill:#00DCFC;}
	.st26{fill:#FFDD4D;}
	.st27{fill:#FFED55;}
	.st28{fill:#0093FC;}
	.st29{fill:#194866;}
	.st30{fill:#B1BFDE;}
	.st31{fill-rule:evenodd;clip-rule:evenodd;fill:#00477D;}
	.st32{fill-rule:evenodd;clip-rule:evenodd;fill:#203A60;}
	.st33{opacity:0.88;}
	.st34{fill:#77A1FE;}
</style>
<g>
	<g class="st0">
		<path class="st1" d="M173.1,16.6C150.9,3.7,128,0.3,104.3,6.4h0c-2.3,0.6-4.6,1.3-6.8,2.1c0,0-2.5,0.9-3,1.1
			c-1.2,0.5-2.4,1-3.5,1.5c0,0,0,0,0,0c-6.5,3-12.6,6.7-18.2,11.1c-0.1,0.1-0.2,0.2-0.3,0.3c-1.1,0.9-2.2,1.8-3.3,2.7
			c-2.3,2-4.5,4.1-6.5,6.4c-2,2.2-3.9,4.4-5.6,6.8c0,0,0,0-0.1,0.1c0,0-0.1,0.1-0.1,0.2c-3,4-5.6,8.3-7.9,12.8c0,0,0,0,0,0
			c-1.4,2.7-2.6,5.5-3.7,8.3c-7.4,20.3-7.5,40.6-0.4,60.9c25.9,71.2,128.5,75.1,160.9,8.2c0.9-1.8,1.7-3.7,2.5-5.6c0,0,0,0,0,0
			c0.3-0.7,1.2-3,1.2-3.2c0.5-1.3,0.9-2.6,1.3-3.9c0.6-2,1.1-4,1.6-6v0c1.4-6.2,2.1-12.6,2.1-19.3C214.5,59.5,197.9,32,173.1,16.6z"
			/>
		<g>
			<path class="st2" d="M157.5,80.7c-0.1-0.1-0.1-0.1-1-0.3c-0.1,0-0.1-0.1-0.1-0.1c0,0,0-0.1,0-0.1c0-0.1,0-0.2-0.1-0.2
				c-0.1,0-0.1,0-0.3,0c-0.4,0.1-0.8,0.5-1.3,1c-0.4,0.4-0.4,0.6-0.4,0.6c0,0.1,0.1,0.1,0.1,0.1c0.7,0.3,3.3,0.2,3.4-0.3
				c0-0.1,0-0.2,0-0.3C157.8,81,157.7,80.8,157.5,80.7z"/>
			<path class="st2" d="M75.1,20.6c-1.7,0.9-5.9,5.7-6.9,7.6c-0.9-1,1.8-2.6,1-2.8c-2.3,2-4.5,4.1-6.5,6.4c-0.1,0.4-0.4,0.8-0.3,1.2
				c0.5,0.3,0.8-0.4,1.2-0.3c0.4,1.2,0.2,1.5-2,3.7c-0.3,0.3-0.5,0.7-0.8,0.9c-0.1,0-0.2,0-0.2,0c-0.1,0-0.4,0-1.1,0.8
				c0,0-1.4,1.6-1,2c0.5-0.1,0.4-1.1,1.1-0.9c0.6,0.2,0,0.9,0,1.3c0,0,0.7,2,1.7,1.4c2.6-1.5,2.6-2,2.5-2.7c0-1.3,0-1.7,0.2-2.1
				c0.2-0.2,0.4-0.3,0.7-0.4c0.8-0.2,0.8-0.2,2.7-2.1c1-0.9-1.3-1.5-0.8-2.7c0.5-1.2,2-1.7,2.2-3.2c0-0.3-0.2-0.5-0.4-0.7
				c2-1.4,2.2-1.7,4.1-3.9c-0.1,0.1-0.3,0.2-0.4,0.2C72.8,23,74.3,22.1,75.1,20.6C75.2,20.7,75.2,20.6,75.1,20.6z"/>
			<path class="st2" d="M123.3,56.5c-0.2-0.5-0.9-0.2-1.1-0.7c-0.2-0.7-1.1-1-1.2-1.7c0-0.2-0.6-1-0.6-1c0,0-0.1,0-0.1-0.1
				c-0.3-0.2-0.7-0.5-1-0.7c-0.3-0.3-0.5-0.6-0.8-0.9c-0.3-0.3-0.1-0.5,0.3-0.8c0.2-0.2,2.1-2.1-0.5-1.8c-1,0.1-1.1,0.1-1.3,0
				c0-0.7,0.9-0.6,1.1-1.1c0.2-0.4-0.1-0.8,0.1-1.1c0.1-0.2,0.2-0.2,0.3-0.2c0,0,1.9-0.1,1.1-1.1c-0.3,0-0.6,0-0.8,0.1l-0.1,0.1
				l-0.4,0.3c-0.5,0-0.5,0-1.5,0.4c-0.2,0.3,0.2,0.6,0.1,1c-0.5,0.1-1.1,0.1-1.6,0.2c-0.4,0.9-0.4,0.9-0.5,1c-0.4,0.1-0.7-0.3-1-0.3
				c-0.3,0-0.6,0.1-0.9,0.1c-3.5-0.2-2,1.7-1.2,2.8l0.8,0c0,0.4,2.2,3.6,2.2,3.6c0.9,1,0.9,1,1.8,0.9c0.1,0,0.1,0,0.1,0s0,0,0,0
				c0,0,0,0,0,0c0,0,0,0,0,0c0,0,0,0,0,0c0,0,0,0,0,0c0,0,0,0,0,0c0,0,0,0,0,0c1-0.1,1.1,0.1,1.3,0.5c-0.5,0.8-1.6,0.4-2,1.2
				c-0.5,1-0.6,2.9,0.1,2.8c0.8-0.2,0.8-0.2,0.9-0.2c0,0.4,0,0.6-0.9,1.3c-1.5,1.2-0.9,1.5-0.3,1.5l1.8-0.5c0.3-0.1,0.5-0.3,0.8-0.6
				c0.3-0.3,0.4-0.3,0.5-0.3c0.9-0.2,1.8-0.2,2.7-0.5l1.5-0.6l1.7-1.6c0.2-0.4-0.1-0.8-0.1-1.2C124.5,56.7,123.5,57.1,123.3,56.5z"
				/>
			<path class="st2" d="M114.8,57.5l-0.1-0.9l-0.5-0.7l-0.5-0.7l-0.3-1.3c-0.6-0.2-1.4-0.1-1.4-0.1c-0.3,0.1-0.6,0.5-0.8,0.8
				l-0.5,0.6c-0.1,0.2-0.2,0.3-0.7,0.3c-0.2,0-0.6,0.1-0.7,0.3c-0.1,0.2-0.1,0.3,0.1,0.9c0.1,0.3,0.1,0.3,0.1,0.9c0,0.2,0,0.4,0,0.5
				l-0.4,0.1l-0.3,1.3l0.2,0.7l0.7,0.4c0.2,0.4,0.6,0.6,0.6,0.6c0.2,0.1,1.5-0.1,1.5-0.1c0.1,0,0.1,0,1.2-1.3c0.5-0.3,1-0.4,1.5-0.7
				c0.1-0.1,0.3-0.2,0.4-0.4c0.1-0.2-0.1-0.4,0-0.6L114.8,57.5z"/>
			<path class="st2" d="M59.1,36.3c0,0-0.1,0.1-0.1,0.2c-0.2,0.5-3.3,4.8-3.5,4.9c-0.1-0.2-0.1-0.4,0.9-1.9c0.1-0.1,0.4-0.5,0.6-0.9
				c-3,4.1-5.7,8.4-8,12.9c1.7-2.8,3.4-5.2,4-5.9c-0.1,1.8-1.6,2.8-2.3,4.2c0.1,0,0.3,0,0.4,0c0.1,0.2,0.1,0.2-0.1,0.8
				c1.1-0.5,1-1.9,1.9-2.5c0.1,0.3-0.1,0.5,0.1,0.8c0.1,0,0.5,0.1,0.8-0.5c0.6-1.1-0.6-4.6,0.8-3.6c0.6-0.7,0.7-1.7,1.4-2.3
				c0,0,0.1,0,0.1,0l4.1-6.1c0-0.1,0.1-0.1,0.1-0.2c0,0,0.1-0.6-0.2-0.9C60.1,35.3,59.7,35.6,59.1,36.3z"/>
			<path class="st2" d="M105.7,172.4c-0.8-0.4-1.3-1-2-1.5c-1.3-0.9-3.5-0.5-3.9-2.7c-0.6-0.4-1.3-0.8-1.9-1.3
				c0-0.1,0.1-0.2,0.2-0.3c-0.5-0.6-1.3-0.8-1.9-1.3c-0.1-0.1-0.2-0.1-0.2-0.2c0-0.1,0.1-0.2,0.2-0.2c0.1,0,0.2,0,0.3,0.1
				c0-0.1,0-0.1-1.3-1.4c0.1-0.1,0.1-0.2,0.2-0.2c0.2,0,0.4,0,0.6,0c0-0.2-0.1-0.4-0.2-0.5c0.2,0,0.4-0.1,0.6-0.1
				c0,0-1.1-1.6-1.6-2.1c-0.1-0.1-0.1-0.2-0.2-0.2c0.1-0.2,0.3-0.4,0.5-0.5c-0.3-0.6-0.3-0.6-0.1-1c-1.4-1.9-1.4-1.9-0.7-2.3
				c0,0,0-0.1,0.1-0.1c0.4-2.7-3.3-4.3-2-7.3c1-0.4,1.9-0.7,2.1-2.2c0.1-0.5,0.4-0.8,0.4-1.3c0,0-0.3-2.3-0.3-2.4
				c-0.4-1.1-1.2-1.9-1.6-2.9c-0.3-0.7-0.3-0.7,0-1.2c0.4-0.5,1.2-2.7,1-3.8c-0.1-0.8-1.7-3.3-2.5-3.7c-1-0.5-1.9-1.3-3-1.6
				c-0.1,0-0.2-0.1-0.3-0.1c-1.1-0.2-2.2,0.6-3.3,0.4c-1.3-0.2-2.3-1.4-3.6-1.6c-0.2,0-0.4,0-0.5,0c-2.7,0-2.7,0-3.9-1.9
				c-0.3-0.5-0.3-0.5-0.5-0.9c-0.5-0.9-1.4-1.5-2-2.2c-1.5,0-3.1,0.6-4.6,0l-6.8-4.5c-2.7,2.1-2.7,2.1-4.8,1
				c-0.8,0.3-0.8,0.5-0.9,1.3c-0.7,0.4-1.4,0.7-2.2,3c0-0.1-0.1-0.3-0.2-0.4c-0.1,0-0.3,0-0.4,0c0,0.1-0.1,0.3-0.1,0.4
				c0,0.3,0,0.3,0,0.3c-1.6-0.4-1.6-0.4-3.8-6.7c-0.8-0.2-1.1-0.2-1.7,0.9c-1.3-0.9-1.3-2.9-1.3-4c-0.8-2.9-0.8-3-1.3-4
				c-0.1,0.5-0.1,0.5-0.2,2.2c-0.1,0-0.3,0.1-0.4,0.1c-0.1-0.1-0.2-0.2-0.3-0.2c-0.3,1.4,0.6,2.7,0.7,4.1
				c-3.3,0.5-4.4-10.7-4.4-10.9c0.1,0.1,0.3,0.1,0.4,0.2c0.3-1.3,0.3-1.3,0.4-1.7c0.1,0,0.3-0.1,0.4-0.1c0.6,0.6,0.6,0.6,1.1,0.6
				c0-1.9,0.2-2.1,0.6-2.4c0.6,0.3,2.5,2.1,2.6,2.4c0,0.4,0.6,1.9,1.4,2.9c0.5-0.2,0.5-0.2-1.1-6.3c-0.6-2.1,0.7-3.8,1-5.8
				c0.3-2.1,0.8-4.3,1-6.4c0.1-0.8,0.1-0.8,2.5-5.3c0.1,0,0.3,0.1,0.4,0.1c0.1-4,0.1-4.4,3.2-6.7c0.1,1-0.8,1.7-1,2.6
				c0.1,0.1,0.2,0.3,0.3,0.4c0.4,0,4.6-4.1,4.6-4.1c0.6-0.9-0.1-2.3-0.1-2.3L59,74.9c-0.1,0.3-0.2,0.7-0.4,1c-0.9-0.1-1-0.1-1.5-0.9
				c-0.1,0-0.3,0-0.5-0.1c-0.3,0.3-0.6,0.6-0.9,1c0.1-0.9,0.5-1.8,0.8-2.7c-0.3-0.5-0.3-0.5-0.2-1.3c-1.3,0.1-1.3,0.1-4.1,4.1
				c-1.1-3,2.7-3.7,3.1-6c0.8,0.5,1.3,1.3,2,1.9c0.1,0,0.3-0.1,0.5-0.2c-0.1-0.5-0.3-0.9-0.4-1.4c0.1-0.1,0.1-0.1,0.1-0.1
				c0.6-0.3,0.6-0.3,3.9-3.4c0.1,0.1,0.1,0.3,0.2,0.4c0.1,0,0.3,0.1,0.5,0.1c-0.5,1.7-2,2.9-2.5,4.7c0,0.1,0,0.1,0.9,1.6
				c0.5-0.2,0.9-0.8,1.5-0.6c0.4,0.8,0.5,1,0.5,1.9c0.1,0,0.3-0.1,0.4-0.1c0.5-1,0.5-1,0.7-1.2c0.4,0,0.4,0,1,0.5
				c0.3,0.1,0.3,0.1,0.3,0.1h0c2.5-2.4,0.5-4.5-1.6-4.6c-0.2-0.2-0.2-0.2,0.8-6.6c-0.2-0.2-0.5-0.3-0.8-0.3
				c-0.1-0.1-0.2-0.3-0.3-0.4c0.1-0.4,0.2-0.8,0.3-1.2c-2.5-1.1-2.5-1.1-2.9-2c-0.7-1.7,0.3-3.8-0.3-5.5c0-0.1,0-0.3,0.3-1.2
				c0.3-1.1,0.3-1.4,0-1.3c-0.2,0.1-0.5,0.4-0.5,0.5c0,0.1-0.1,0.2-0.2,0.4c-0.1,0.3-0.2,0.7-0.3,1c-0.1,0.4-0.2,0.4-0.3,0.5
				c-0.1,0-0.2,0.2-0.3,0.4c-0.9,2.1-0.9,2.1-1.6,2.4c-0.4-0.2-0.7-0.5-1-0.7c0-0.5,0.2-1,0.2-1.1c0,0,0,0,0,0
				c0.1-0.4,0.1-0.7,0.2-1.1c0.1-0.4,0.4-0.7,0.6-1.1c0.1-0.2,0.2-0.4,0.1-0.6c0,0-0.1-0.1-0.1-0.1c-0.2-0.2-0.5-0.1-0.7-0.3
				c-0.1-0.1,0-0.3,0-0.4c0,0-0.1-1.3-0.2-1.7c0,0,0-0.1-0.1-0.2c-0.1-0.2-0.2-0.3-0.3-0.3c0,0,0,0,0,0c-0.1,0-0.1,0.1-0.2,0.2
				c-0.3,0.9-0.8,1.7-1.1,1.3c-0.1-0.2,0-0.7-0.4-0.7c-0.1,0-0.5,0.3-0.8,0.6c0,0.1-0.1,0.1-0.1,0.2c0,0.1-0.1,0.3-0.1,0.4
				c0,0.4,0,0.4-0.6,1.8c-0.2,0.5-0.3,0.5-0.5,0.7c-0.2,0.1-0.2,0.2-0.3,0.4c0,0-0.1,0.4,0.1,0.4c0,0,0.1,0,0.1,0c0,0,0,0,0,0h0
				c0.1,0,0.1,0,0.1,0c0.1,0.5-0.5,1.3-1.1,2c-0.3,0.7-0.3,1.4-0.6,2.1c0.6,0.8,0.3,2.4,0.3,2.4c-0.5,1.7-2,2.7-2.5,4.3
				c-0.6,1.8,0,3.8-0.7,5.6c-0.1,0.2-0.4,0.4-0.6,0.5c-1.3-0.6,0-5.2,0.1-5.2c0.1-0.3,0.2-0.7,0.2-1c-0.1,0-0.3-0.1-0.4-0.1
				c-0.9,0.2-0.9,0.2-1.4-0.1c-0.1-1.7-0.1-1.7-0.5-2.2c-0.1,0-0.3,0.1-0.4,0.1c0-1,0.4-1.8,0.6-2.7c0,0-0.1,0-0.1,0.1
				c-3.7,9.6-5.7,20.1-5.7,31c0,10.5,1.9,20.6,5.3,29.9h0c0.2,0.1,0.5,0.1,0.8,0c0.1,0.1,0.2,0.2,0.3,0.3c0.3,0,0.6,0,0.9-0.1
				c0.1,0,0.3-0.1,0.4-0.1c0.3,0.3,0.3,0.3,1.7,2.7c0.3-0.5,0.3-0.5,0-1.5c1.5,0.9,2,2.5,3.3,3.6c0.1-0.1,0.1-0.2,0.2-0.3
				c0.1,0,0.1,0,0.9,1c0.1,0,0.1,0,0.1,0c0.5,0.3,0.8,0.8,1.2,1.1c0-0.1,0-0.3,0-0.4c0.2,0,0.5-0.1,0.8-0.2c0-0.6,0-0.6-0.3-1.4
				c0-0.1,0-0.1,0-0.1c0-0.1,0-0.3,0-0.4c2.8,3.7,2.8,4,2.8,5c0.1,0,0.1,0.2,0.1,0.3c0.6,1.3,0.6,1.3,0.8,2.1
				c-0.4,0.8-0.6,1-0.2,1.8l2.8,4.8c1.7,1.8,4.1,2.8,5.8,4.7c1.1,1.2,2.8,3,6.2,4.1c0.8,0.2,1.1,0.4,1.9,1.1
				c0.4,0.4,0.4,0.4,4.7,5.8c1,1.3,4.6,4.9,4.7,4.9c5.6,5.3,5.6,5.3,13.2,10.2c12.9,6.8,15.5,5.2,15.5,5.1c0-0.1-0.1-0.2-0.1-0.3
				C106.4,172.7,106.4,172.7,105.7,172.4z"/>
			<path class="st2" d="M104.3,6.7c0.2-0.1,0.3-0.1,0.5-0.2c0,0,0,0-0.1,0c-0.1-0.1-0.2,0-0.5,0c0,0,0.1,0,0.1-0.1
				c-2.3,0.6-4.6,1.3-6.8,2.1c0,0,0,0,0,0c0,0.1-0.1,0.1-0.4,0.3c0,0,0,0,0,0c-0.3,0.3-0.3,0.3-0.5,0.4c-0.2,0-0.3,0.1-0.4,0.2
				c0.1-0.1,0.2-0.1,0.3-0.2c0,0,0,0,0-0.1c0,0,0,0,0,0c-0.1,0-0.1,0.1-0.2,0.1c-0.1,0.1-0.1,0.2-0.2,0.2c-0.1,0.1-0.3,0.2-0.4,0.3
				c-0.1,0-0.1,0.1-0.2,0.1c0,0,0,0,0-0.1c0,0-0.1,0.1-0.2,0.1c0.1-0.2,0.3-0.3,0.4-0.4c0,0,0,0,0,0h0c0,0-0.1,0-0.2,0
				c0,0,0,0,1-0.7c0,0-0.1,0-0.1,0c0,0,0,0,0,0c0,0-1.1,0.6-2.3,1.3c0.1-0.1,0.1-0.1,0.6-0.5c0,0-0.1-0.1-0.1-0.1
				c-1.2,0.5-2.4,1-3.5,1.5c0,0,0,0,0,0c-0.2,0.1-0.4,0.3-0.5,0.3c-2,1.2-4.3,1.7-6,3.4c0.1,0,0.3,0,0.4,0c-0.2,0.1-0.4,0.3-0.6,0.4
				c0.1,0,0.3-0.1,0.3-0.1c-1.9,1.8-4.5,2.7-6.5,4.4c0,0,0.1,0.1,0.1,0.2c0,0.1-0.1,0.1-0.1,0.2c0,0,0.1,0,0.2,0.1
				c0.1,0,0.3-0.1,0.3-0.1c-0.4,0.5-0.7,0.5-1,0.4c-1,0.6-1.9,2.5-1.9,2.6c0.2,0.1,0.2,0.1,0.5,0c0,0,0.1,0,0.1,0c0,0,0,0,0,0
				c0,0,0,0,0,0c0,0,0,0,0,0c0,0,0,0,0,0c0,0,0,0,0,0c0,0,0,0,0,0c0,0,0,0,0,0h0c0.3-0.1,0.5-0.3,0.8-0.5c0.1,0,0.1,0.1,0.2,0.1
				c0.1,0,0.3-0.1,0.3-0.2c-0.2,0.3-0.3,0.5-0.5,0.7c0.3-0.2,0.5-0.4,0.7-0.6c0.1,0,0.3,0.1,0.3,0.1c0,0.3-0.6,1.6-2.1,3.6
				c-0.4,0.5-0.8,1.5-1.5,3.1c0.5,0,0.5,0,0.6,0c0,0.2,0.1,0.4-0.4,0.6c0,0-1.9,1.2-1.5,2.3c0,0,0.1,0,0.2,0
				c0.4-0.5,0.6-0.5,1.1-0.5l0.1,0.1c-2.9,3-2.9,3-3.2,4.2c-1.3,4.4-1.4,6.7-0.1,6.9c0.1,0,0.2-0.1,0.3-0.1c0.2,0.2,0.1,0.6,0.4,0.8
				c1-0.1,0.8,1.1,1.4,1.6c0.2-0.2,0.3-0.4,0.5-1.3c0-0.1,0.1-0.3,0.1-0.4c0.2-0.5,0.9-0.6,1.1-1.1c0.2-0.5-0.4-0.9-0.1-1.5l2.2-3.5
				c0.8-1.2,0.8-1.2,0.9-1.2c1.2-0.9,3-1,3.9-2.4c0.7-1.1,0.7-1.1,4.1-2.8c0.6-0.2,0.6-0.2,1.4-1c0.7-0.5,0.7-0.5,0.9-0.7l0.4-0.3
				c0.3-0.2,0.3-0.2,0.5-0.4c-0.2-0.2-0.5-0.3-0.7-0.5c0-0.1,0-0.2,0-0.2c0.1-0.1,0.2-0.2,0.3-0.3c0.1,0,0.1,0.1,0.2,0.1
				c1.1,0.8,1.5-0.4,1.9-1.5c-0.1-0.1-0.3-0.1-0.5-0.2c-0.1-0.2-0.1-0.2,1.1-1.5c-0.1-0.2-0.2-0.4-0.3-0.6c2.6-1,3.1-2.1,3.3-2.6
				c-0.1-0.1-0.3-0.2-0.4-0.3c0.4-0.3,1-0.1,1.4-0.4c0,0,0.3-0.3-0.1-0.7c-0.6,0.1-0.5-0.2-0.5-0.4c0.5-0.3,0.5-0.3,1.8-1.6
				c-0.1,0-0.2,0-0.2,0c0.1-0.3,0.2-0.4,0.6-0.7c-0.2,0-0.4-0.1-0.6-0.1c0,0-0.1-0.1-0.1-0.2l3-3.1c-0.1,0-0.3,0-0.4,0.1
				c0.2-0.8,1.1-1,1.5-1.6c0,0-0.1-0.1-0.1-0.2c1.3-1.2,3-1.6,4.3-2.8c0.1-0.1,0.2-0.2,0.2-0.4c-0.2-0.3-0.5-0.6-2.6,0.7
				c0-0.1,0-0.3,0-0.4c-0.2,0.1-0.3,0.3-0.5,0.4c0,0,0,0,0,0s0,0,0,0c-0.9,0.5-1.6,1.2-2.5,1.8c0-0.2,0-0.4,1.8-1.6
				c0.5-0.4,0.8-0.5,1.2-0.9c0,0-0.1-0.1-0.2-0.1c-0.4,0.3-0.8,0.5-1.3,0.8c-0.1,0-0.1,0.1-0.2,0.1c0-0.1,0.2-0.3,0.4-0.4
				c-0.3,0-0.4,0.1-0.5,0.1c-0.1,0-0.2,0-0.3,0.1c-0.2,0-0.3,0-1.8,0.7c0.3-0.5,2.6-1,2.8-1c0.2,0,0.2,0,0.2,0h0c0,0,0,0,0,0
				s0,0,0,0h0c0.2,0,0.7-0.1,1.9-0.8l0.2-0.1l0.1-0.1c0-0.1,0.1-0.3,0.1-0.5c0.2-0.1,0.4-0.3,0.6-0.4c-0.1,0-0.1,0-0.2,0
				C104.1,6.8,104.2,6.8,104.3,6.7L104.3,6.7z"/>
			<path class="st2" d="M64.2,28.3C64.2,28.3,64.2,28.3,64.2,28.3C64.2,28.3,64.2,28.3,64.2,28.3C64.2,28.3,64.2,28.3,64.2,28.3z"/>
			<path class="st2" d="M105.6,6.3c-0.2,0-0.4,0.2-0.6,0.2c0-0.1,0.1-0.1,0.2-0.1c0,0,0,0-0.2,0.1c0,0,0.1-0.1,0.1-0.1l0,0l-0.1,0
				l-0.2,0.1l-0.1,0c-0.1,0.1-0.2,0.1-0.2,0.1c0,0,0,0,0,0c0,0,0,0,0,0c0,0-0.1,0-0.1,0.1c-0.1,0.1-0.1,0.1-0.2,0.1c0,0,0,0,0,0h0
				c0,0,0,0,0.1,0l0.1,0c0.3,0,0.3,0,0.6-0.2c0.2-0.1,0.3-0.1,0.4-0.1c0,0,0.1,0,0.1,0l0.3-0.2c0,0,0,0,0,0c0,0,0,0,0,0
				C105.8,6.2,105.6,6.3,105.6,6.3z"/>
			<path class="st2" d="M126.9,7.4c0-0.1,0.1-0.2,0-0.2c0,0,0,0,0-0.1c0,0,0,0,0,0c0,0,0,0,0,0c0,0,0,0,0,0c-0.2,0-0.3,0.1-0.4,0.2
				c-0.1,0.1-0.1,0.1-0.2,0.1c-0.4,0-0.6-0.4-1-0.4c0,0,0,0.1,0,0.1c0,0.2-0.1,0.3-0.3,0.4c-0.1-0.1-0.3-0.2-0.4-0.3
				c-0.1,0-0.2,0-0.2,0c0.1,0.4,0.1,0.4,0.2,0.5c0,0,0-0.1,0-0.1c0.2,0.4,0.2,0.5,0.4,0.7c0.1,0.1,0.2,0.1,0.7,0.2
				c0.2,0,0.4,0.2,0.6,0.2c0.1,0,0.2,0.1,0.7,0c0.1,0,0.2,0,0.4-0.1c-0.1-0.2-0.3-0.3-0.4-0.5L126.9,7.4z"/>
			<path class="st2" d="M126.9,10.3c-0.3-0.3-0.6-0.4-1.3-0.7c0,0-0.1,0-0.1,0c-0.3-0.3-0.4-0.8-0.7-1.1c-0.3-0.2-0.6-0.2-0.7-0.3
				c-0.3,0-0.3-0.1-0.4-0.3c0,0-0.1,0-0.1,0c-0.1,0-0.1,0-0.8,0.2c0.1,0.1,0.1,0.3,0.1,0.4c-0.1,0-0.2-0.1-0.3-0.2
				c-0.2,0.2-0.3,0.5-0.5,0.7c-0.1,0.1-0.2,0.1-0.4,0.1c0.1,0.1,0.1,0.1,1,0.1c0.5,0,0.8,0.2,0.9,0.6c0,0,0,0.3-0.7,0.6
				c0,0,0,0,0,0.1c0,0,0,0,0.1,0c0,0,0,0,0,0l0,0.1c0.5,0,0.7-0.1,1-0.1c-0.4,0.4-0.5,0.6-0.3,1.1c0.2,0,0.4,0.1,0.7,0
				c0,0.2-0.1,0.3-0.9,0.3c0.3,0.8,0.7,1.1,0.9,1.2c0.7-0.2,0.9-0.5,0.8-1.6c0-0.8,0-1,0.3-1.2c0.1,0.1,0.6,0.7,0.9,1.2
				c0.1,0.2,0.2,0.3,0.2,0.3c0,0,0.1,0.1,0.3,0.1c0.2,0,0.4-0.1,0.4-0.4c0-0.2,0-0.4-0.1-0.6C127.1,10.7,127,10.5,126.9,10.3z"/>
			<path class="st2" d="M118.9,45.5c0.3,0,0.5,0,0.8-0.1c-0.1-0.1-0.3-0.1-0.4-0.1C119.1,45.3,119,45.4,118.9,45.5z"/>
			<path class="st2" d="M104.5,34.1c-0.1,0-0.1,0-0.5,0.5c-0.1,0.1-0.1,0.1-0.6,0.3c-0.4,0.1-0.8,0.4-1.2,0.5
				c-0.3,0-0.5-0.2-0.8-0.2c-0.6,0-1,0.4-1.5,0.4c-0.1,0-0.1,0-0.8-0.3C98.4,35,98.4,35,98.4,35c-0.2-0.3-0.2-0.4-0.4-0.4
				c0,0,0,0,0,0c-0.2,0.1-0.4,0.2-0.7,0.8c-0.1,0.2-0.1,0.2-0.9,0.8c-0.6,0.7-0.4,1,0.5,1c0.4,0,0.4,0.3,0.4,0.3
				c0.1,0.1,0.4,0,0.4,0.2c-0.1,0.1-0.1,0.2-0.6,0.3c-2.2,0.6-1,1-0.9,1c0.4-0.1,0.7-0.4,1.1-0.3l0.1,0.9c-0.1,0.5-0.4,0.8-0.6,1.2
				c0.1,0.2,0.1,0.2,1.8-0.7c0.4-0.2,0.4,0,0.4,0.2c0,0.2,0,0.5,0.3,0.5l2-0.2c0.2-0.1,0.6-0.2,1.8-1c0.1-0.1,0.1-0.1,0.2-0.4
				c0.1-0.3,0.1-0.3,0.8-0.8c0.2-0.1,0.6-0.3,0.9-0.1c0.1,0.1,0.2,0.1,0.3,0c0.1-0.1,0.1-0.1,0.4-0.5l0.1-0.5l0.5-1.4
				C105.8,34.8,105.7,34.8,104.5,34.1z"/>
			<path class="st2" d="M47.8,110.4c-0.1,0.2-0.5,0.9,0.3,2.7c0.1,0.2,0.3,0.6,1.1,0.4c0.5-0.1,1-0.5,1.5-0.7
				c0.4-0.1,0.9-0.2,1.3-0.4c0,0,0.1,0,0.2-0.1c0.1,0,0.3-0.2,0.3-0.4C52.5,111,49.9,109,47.8,110.4z"/>
			<path class="st2" d="M57.7,113.3c0,0-0.1-0.1-0.2-0.1c-0.1,0-0.1,0-0.2-0.1c-0.2-0.1-0.4,0-0.6-0.1c-0.4-0.1-0.6-0.6-1.1-0.4
				c0,0-0.1,0-0.1,0.1c0,0-0.1,0.1-0.1,0.1c-0.2,0.2-0.2,0.5-0.4,0.7c-0.2,0.3-0.6,0.4-0.8,0.7c0,0-0.1,0.1-0.1,0.2
				c0,0.1,0,0.1-0.1,0.2c0,0.1,0,0.3,0,0.4c0,0.2-0.2,0.3-0.2,0.5c0,0.2-0.2,0.7,0.9,0.7c0.5,0,1.4-0.2,1.6-0.3c0,0,0.1-0.1,0.1-0.1
				c0.2-0.2,0.2-0.6,0.4-0.9c0.1-0.1,0.4-0.2,0.6-0.4c0.3-0.2,0.6-0.4,0.7-0.5C58.2,113.7,58,113.4,57.7,113.3z"/>
			<path class="st2" d="M180,110c-0.2,0-0.2,0-1.2,0.6c-2.1-1.4-2.1-1.4-4.6-5.3c0.1-0.3,0.1-0.9,0.1-1.2c-2.8-1.2-1.7-4.6-3.5-6.4
				c-0.8-1.1-0.7-2.6-1.3-3.8c0,0-3.1-6.2-3.6-6.9c-0.4-0.5-1.2-0.5-1.7-0.5c-0.2,0-0.2,0-0.2,0c0,0,0,0,0,0c0,0,0,0,0,0h0
				c0,0,0,0,0,0c0,0,0,0,0,0c0,0,0,0,0,0c0,0,0,0,0,0c-0.2,0.1-0.5,0.3-0.6,0.5c-1.8,0.1-1.8,0.1-9.7-2.1c-0.2,0.2-0.4,0.4-0.6,0.6
				c-0.3-0.1-0.3-0.1-1.6,0.7c-0.2,0.9,0.4,2-0.5,2.8c-2.2-0.9-2.2-0.9-2.3-0.9l-0.2,0c-3.5-1.5-3.5-1.5-4.9-1.7c-0.2,0-0.2,0-0.2,0
				c0,0,0,0,0,0c0,0,0,0,0,0c0,0,0,0,0,0c0,0,0,0,0,0c0,0,0,0,0,0c0,0,0,0,0,0c0,0,0,0,0,0c-0.2-0.1-0.4-0.2-0.6-0.2
				c-0.9-1.9-0.9-1.9-2.6-3c-1.4-0.8,0.2-2.4-0.9-3.3c-0.3-0.2-0.3-0.2-4.3,0c-2.5,0.7-5.3,0.1-7.6,1.4c-0.4,0.2-0.8,0.5-1.1,0.9
				c-2.2,2.2-2.4,2.1-4.1,1c-1.4-0.9-1.4-0.9-4,1c-0.2,0.2-0.3,0.7-0.3,1L107,100.7c-0.6,0.8-0.8,1.1-0.8,2.4
				c0.1,1.5,1.2,2.7,1.4,4.1c0.3,1.9-1.3,3.7-0.1,5.5c0.4,0.7,0.4,0.7,11.6,7.7c0.7,0.3,1.3,0.3,2-0.2c0,0,0,0,0,0
				c0,0,3.1-1.7,4.8-0.5c0.4-0.1,0.8-0.3,1.2-0.5c1.8-0.8,3.5-2.1,5.6-2.2c0.2,0,0.2,0,2.5,1.9c0.1,0,0.3,0,0.4,0
				c-0.1,0-0.2,0.1-0.3,0.1c1.2,0.6,2.8-0.4,3.8,1c0.4,0.5,0.6,1.4,0.6,1.7c-0.1,0.7-0.9,1-1.1,1.7c0.2,1.1,0.4,1.5,1.7,2.2
				c1.6,0.7,3.4,4.6,3.2,5.8c-0.2,1.1,1.7,2.2,0.6,3.1c-1.8,1.4-2.1,5.1-2.1,5.1c0.2,0.7,1.1,0.6,1.3,1.2c0.1,0.2,0.1,0.4,0.1,0.6
				c0,0.1,0,0.2,0,0.2c0,0.2,0.2,0.4,0.2,0.6c0.1,0.8,1,1.3,0.7,2.3c-0.1,0.3-0.3,0.8-0.2,1.1l1.6,3.6c0,0.3-0.1,0.6-0.1,0.9
				c0.1,0,0.2,0.1,0.2,0.1c-0.2,0.5-0.2,0.5,0.8,2c-0.6,1.7-0.6,1.7,0.3,1.9c0.1,0.3,0.2,0.6,0.3,0.9c0.1,0,0.2,0,0.3,0
				c0.8-0.1,1.3-1,2.1-1.1c0.6-0.1,0.9,0.6,1.5,0.4c0.2,0,1.7-0.7,1.9-0.8c2.5-1.4,2.9-2,4.5-4.2c1.7-2.4,1.7-2.4,1.7-2.5
				c0.2-1.1,1.4-0.9,2-1.4c2-1.5,1.4-4.7,3.8-5.9c0.4-1.1,1.7-0.7,2.3-1.5h0c0.5-0.4,1.1-0.9,1.1-0.9c0.1-0.1,0.1-0.2,0.1-0.2
				c0.5-0.9,0.3-2,0.8-2.9c0.5-0.8,1.5-1,1.9-2c-1.8-1.4-2.8-2.3-0.6-6.2c0.7-1.2,1.7-1.8,1.9-1.9c0.8-0.5,1.3-1.3,2-1.9
				c0.9-0.8,1.1-2.1,2.4-2.5c0.6-0.1,1.8-1.4,2.5-2.1c0.1,0,0.2,0,0.2,0c0-0.1,0.1-0.2,0.1-0.4c0.1-0.2,0.2-0.3,0.2-0.3
				c-0.1,0-0.1,0-0.1,0c1-2.7,3.8-4.1,4.7-6.8c0-0.1,0-0.3,0-0.5C184.4,109,184.4,109,180,110z"/>
			<path class="st2" d="M155.1,7.4c0.6,0.2,1.1,0.4,1.7,0.6L155.1,7.4z"/>
			<path class="st2" d="M167.1,12.4C167.1,12.4,167.1,12.4,167.1,12.4C167.1,12.4,167.1,12.4,167.1,12.4
				C167.1,12.4,167.1,12.4,167.1,12.4z"/>
			<path class="st2" d="M167.1,12.4C167.1,12.4,167.1,12.4,167.1,12.4C167.1,12.4,167.1,12.4,167.1,12.4L167.1,12.4L167.1,12.4z"/>
			<path class="st2" d="M167.5,12.6c0.4,0.2,0.9,0.5,1.4,0.8c-0.6-0.4-0.7-0.4-1.9-1L167.5,12.6z"/>
			<path class="st2" d="M208.8,116c-0.2,0.2-0.5,0.8-0.5,0.8c-0.2,0.5-0.2,1.2-0.4,1.7c-0.3,0.7-0.3,0.7-0.4,1
				c0,0.1-0.1,0.2-0.1,0.3c-0.4,1.3-0.3,2.7-0.6,4c-0.2,0.6-0.5,1.3-0.6,1.9c-0.1,0.4,0,0.7-0.1,1.1c-0.3,0.8-0.8,1.6-1.1,2.4
				c0.1,0,0.1-0.1,0.2-0.1c0,0,0,0.1,0,0.1c0.4-0.5,0.5-1.2,0.9-1.7c0,0-0.2,0.8-0.3,1.5c0.9-1.8,1.7-3.7,2.5-5.6c0,0,0,0,0,0
				c0-0.3,0.1-0.5,0.1-0.8c0,0-0.1,0-0.1,0c0.1-0.7,0.2-1.5,0.3-2.2c0-0.2,0.1-1.1,0.1-1.1c0-0.3-0.2-0.5-0.1-0.7
				c0.1-0.7,0.3-1.4,0.4-2.1C209,116.1,208.9,116,208.8,116C208.9,116,208.9,116,208.8,116z"/>
			<path class="st2" d="M154.9,7.3c0,0,0.1,0,0.1,0L154.9,7.3L154.9,7.3z"/>
			<path class="st2" d="M163.2,23c-0.1,0-0.1,0.1-0.1,0.2c0,0-0.1-0.1-0.1-0.1c0.4,0.8,0.9,1.4,0.9,1.4c0,0,0.8,0.3,0.9,0
				c0-0.1-0.1-0.3-0.1-0.4C164.4,23.6,163.6,22.9,163.2,23z"/>
			<path class="st2" d="M166.8,22.1c-2.6-1.9-4.2-3.7-4.2-3.8c-0.1-0.1-0.1-0.2-0.2-0.3c-0.3-0.5-0.2-0.6-0.1-0.9c0,0,0-0.1,0-0.1
				c-0.3-0.5-0.9-0.8-1.2-1.3c0-0.1,0-0.2,0-0.2c0-0.4,0-0.4-0.7-1.5c0.3-0.1,0.7,0.1,1,0.1l-1.5-1.3c-0.1-0.1-0.1-0.1-0.1-0.2
				c0.3,0,0.5,0.1,0.8,0c-0.1-0.1-0.3-0.2-0.4-0.3c0-0.1,0.1-0.1,0.2-0.2c-0.2-0.3-0.4-0.5-0.6-0.7c-0.2-0.2-1.8-1.1-2.3-1.1
				c-0.2,0.1-0.4,0-0.6,0.1c0.2,0.2,0.6,0.3,0.8,0.5l0.1,0.6c-1.1,0.1-1.1,0.1-1.2,0.2c0.2,0.6,0.7,1.1,0.9,1.7
				c-0.1,0.1-0.2,0.2-0.4,0.3c0.2,0.5,1,0.5,1.2,1.1c0.1,0.3,0.5,1.1,0.5,1.1c0.1,0.1,0.2,0.2,0.7,0.6c0.7,0.6,0.7,0.6,1,1.3
				c-0.1,0.2-0.4,0.1-0.5,0.1c0,0,0,0,0,0c0.3,0.5,0.9,0.6,1.3,0.9c0,0,0,0.1,0,0.1c-0.1,0-0.1,0-0.2,0.1c-0.3,1,0.4,1.4,0.8,1.7
				c0,0,1,0.5,1,0.5c0.5,0.2,1,0.2,1.5,0.5c0.6,0.3,1.2,0.8,1.8,1c0,0,1.1,0.3,1.6,0.1c0,0,0-0.1,0-0.1
				C167.3,22.5,167.3,22.4,166.8,22.1z"/>
			<path class="st2" d="M204,112c-0.5,0.2-0.9,1-1,1.3c0,0.1,0,0.1-0.1,0.2c-0.1,0.3-0.2,0.5-0.3,2.2c0,0.2,0,0.3,0.1,0.4
				c0.3,0.2,0.7-0.7,1-1.6c0,0,0,0,0-0.1c0,0,0,0,0,0c0.1-0.5,0.3-0.9,0.4-1.3C204.3,112.2,204.2,112,204,112z"/>
			<path class="st2" d="M167.5,12.6c0.4,0.2,0.9,0.5,1.4,0.8c-0.6-0.4-0.7-0.4-1.9-1L167.5,12.6z"/>
			<path class="st2" d="M173.1,16.6C173.1,16.6,173.1,16.6,173.1,16.6c-0.1,0.1-0.3,0.1-0.4,0.1c0,0.1,0,0.1-0.1,0.2
				c1.5,1.5,3.8,2,5.1,3.7c-0.5-0.1-2.6-1.4-2.9-1.6c-0.5-0.4-0.6-0.4-0.8-0.4c0,0.1,0,0.2-0.1,0.2c0,0,0,0,1.3,1.3
				c-1.4-0.7-2-2.3-3.7-2.6c0.8,0.9,2.1,1.2,2.7,2.3c0,0.1,0,0.1-0.1,0.2c0.2,0.3,0.6,0.7,0.8,0.9l1.1,0.7c2.8,3.2,3.3,3.7,3.8,3.6
				c0,0,0.1,0.1,0.1,0.2c0-0.1,0-0.1,0.1-0.2c0,0,0.8,0.2,1.1,0.8c-0.2,0-0.2,0-0.6-0.1c-0.1,0-0.1,0-0.1,0l0,0.2
				c0.7,0.8,1.7,1.2,2.3,2.2c-0.1,0-0.3,0-0.5,0c0.2,0.2,0.3,0.4,0.5,0.6c0.2,0.3,0.5,0.6,0.7,0.8c0,0-0.1,0.1-0.2,0.1
				c0,0.3,0,0.3,0.1,0.7c-0.1,0-0.3,0-0.5,0c-0.2,0-1.9-0.6-1.6-1c0.4,0,0.8,0.5,1.2,0.2c0-0.3-0.3-0.6-0.4-0.9
				c-0.1-0.4-0.3-1.2-2.5-3.2l-0.9-0.9c-0.6-0.5-1-1.2-1.6-1.7c-0.8-0.6-1.4-1.4-2.2-2c-0.6-0.4-0.8-1.1-1.4-1.5l-1.1-1
				c-1.2-0.6-2.1-1.7-3.5-2c0,0-0.1,0-0.2,0c0,0,0,0.1,0,0.2l0,0.1c2,2.1,2,2.1,2.6,2.5c0,0.1,0,0.2,0,0.3c0.5,0.4,0.5,0.5,0.7,0.9
				c-0.1,0-0.2,0.1-0.3,0.2c0,0,2.3,3.7,5.4,4.6c0.3,0.1,1,0.3,1,1.2c0,0,0,0,0,0c-0.4-0.2-0.8-0.6-1.2-0.8c0,0,0,0,0,0h0
				c0,0,0,0,0,0h0c-0.1,0-0.2-0.1-0.3-0.1c-0.2-0.1-0.5-0.2-1-0.5c-0.3-0.1-0.3-0.1-0.3-0.1c-2.2-0.9-4.3-2.1-6.5-3
				c-0.1,0-0.1,0-0.1,0h0c0,0,0,0,0,0c1.1,1.5,2.9,2,4.1,3.2c-0.2,0-0.2,0-2.2-1.3c0.1,0.3,0.3,0.6,0.5,0.8c0,0.1-0.1,0.2-0.1,0.3
				c-0.1,0.1-0.1,0.1-0.1,0.1c-0.2-0.1-0.2-0.1-1.2-0.8c-0.1,0.5-0.1,1.1-0.1,1.6c-0.1,0.1-0.1,0.1-0.1,0.1
				c-0.7-0.4-1.1-1.4-2.1-1.2c-0.7,1.1-0.7,1.1-0.8,1.1c-0.1,0.4-0.4,0.6-0.5,1c0.3,0.6,0.3,0.6,0,1c0.2,0.4,0.2,0.4,0.7,1.2
				c-2.3-0.1-2.5-1.1-2.5-1.7c0.3,0,0.6-0.1,0.9-0.1c0-0.1,0-0.2,0-0.3c-1.9-1.7-2.5-1.6-3.4-1.4c0.1,0.2,0.2,0.4,0.3,0.6
				c0,0.1,0,0.2-0.1,0.3c0.1,0.1,0.2,0.2,0.3,0.3c-0.2,0.6-0.2,0.6,1.1,1.8c0.7,0.5,0.7,0.5,0.9,0.9c-2.1,1-2.1,1-2.2,1.3
				c-0.4,1.1,0.9,1.5,0.9,2.4c-0.6,0.2-0.6,0.2-1.8-0.5l-0.9-0.5c-0.5-0.2-0.5-0.2-1.1-0.3c-0.3,0-0.3,0-0.3,0
				c-0.1,0.5,0.2,1,0.2,1.5c-0.4-0.1-0.4-0.1-1.5-1c-0.8-0.4-0.6-0.7-0.4-1.2c-0.1-0.3-0.1-0.3-3-2c0.1-0.1,0.2-0.2,0.2-0.2
				c1.1,0.3,1.9,1.5,3.2,0.9c2.1,0.9,2.1,0.9,3,1c0.2-0.3,0.4-0.6,0.6-0.9c0.4-0.8,0.4-0.8,0-1.9c-0.5-0.9-0.5-0.9-4.7-2.8
				c-1.5-0.7-5.2-2-5.2-2.1c-0.9-0.3-1.7,0.5-2.5,0.4c-0.2-0.4-0.2-0.4,0.2-1c0.2,0,0.6-0.1,0.8-0.2c0-0.1,0.1-0.2,0.1-0.3
				c-0.5-0.3-4-1.4-4.6-1.2c-0.1,0-0.1,0-0.1,0s0,0,0,0c0,0,0,0,0,0c-0.7-0.2-1.1-0.3-1.5-0.3c-0.6,0-1,0.4-2.2,1.4
				c-0.2,0.1-0.2,0.1-0.2,0.1c0,0,0,0,0,0h0c-0.4,0.2-1,0.5-1.5,0.8c-0.6,0.3-1,0.5-1,0.5c0,0,0,0,0,0c0,0,0,0,0,0
				c-1.1,0.5-1.9,1.6-3.1,1.9v0c0,0.1-0.1,0.2-0.1,0.4c0,0.4,0.1,0.7,0.1,1.1c0,0,0,0,0,0h0c-1.3,0.2-1.3,0.2-1.4,0.8
				c-0.1,0.2-0.2,0.4-0.1,0.6c0.1,0,0.2,0.1,0.3,0.1c0.3,0,0.4,0,0.6,0c0.7-0.1,1-1,1.8-1c0.1,0.4,0.1,0.4,0.4,0.9
				c-0.5,0.6-1.2,0.6-1.8,0.9c-0.6,2.6-1.8,3.3-2.2,3.6c0,0.8,0.5,1.5,0.1,2.3c-2.4,0.4-3.7,2.2-3.6,2.9c-0.4,0.5-2,2.1-1.9,2.9
				l0.9,3.4c0.1,0.1,0.2,0.3,0.4,0.8c0.1,0.3,1.6,1.7,1.6,1.7c0.2,0.1,1.6,0.5,2.3,0c0.2-0.1,0.2-0.2,0.2-0.3c0.6-1.7,1.4-1.8,2.2-2
				c1-0.2,1,1,1.5,1.5c-0.1,0.3-0.1,0.3-0.1,0.4c0.1,0,0.2,0.1,0.5,0.9c0.2,0.2,0.1,0.5,0.3,0.7c1.2,1.2,1.2,1.2,1.3,1.8
				c0.1,0.6,0.1,0.6,1.8,1.1c0,0,0,0,0,0c0.2-0.2,0.3-0.6,0.3-0.7c0-0.4,0-0.4,1-0.7c1.7-0.5,1.9-0.5,1.9-0.7c0,0,0.3-1,0-1.8
				c-0.1-0.2,0-0.5-0.1-0.6c-0.2-0.3-0.7-0.3-0.8-0.8c-0.1-0.8,0.2-0.7,0.6-0.7c0.6,0.1,0.6,0,0.6-0.3c0.1-0.5,1.1-1.9,1.2-2.2
				c-0.8-0.7-0.8-0.7-2.6-1.2c-0.1-0.2-0.1-0.5-0.2-0.7c-0.2-0.3-0.4-0.6-0.6-1c0.2-0.3,0.5-0.5,0.7-0.8c-0.1-0.1-0.1-0.2-0.2-0.3
				c0.1-0.1,0.2-0.2,0.3-0.3l0.1-0.6l0.1-0.5c0-0.1,0.1-0.2,0.1-0.3c0.1,0,0.2,0,0.3,0c0.4-0.5,0.4-0.5,0.7-0.6c0-0.8,0.1-0.8,0.7-1
				c0.4-1.1,0.4-1.1,0.1-2.6c1.8-1.5,3.4-0.9,3.1,0.5c-0.3,1.6-1.9,2.1-2.6,3.4c0,0,0.9,3.3,1.1,4.5c0.2,0,0.4,0.1,0.6,0.1
				c0.1,0.1,0.4,0.5,1.3,0.8c0.1,0,0.1,0,0.1,0c0,0,0,0,0,0c0,0,0,0,0,0c0,0,0,0,0,0c0,0,0,0,0,0c0,0,0,0,0,0c0,0,0,0,0,0h0
				c0.6,0,1.3,0.4,1.8,0.6c1.7,0.3,4.3-2.4,5.2-0.1c-0.4,0.4-0.9,0.7-1.4,0.8c-0.9,0-1.8,0.1-2.7,0.1c-0.7,0-1.4-0.1-2,0.1
				c-0.5,0.2-0.9,0.4-1.4,0.6c-0.1,2.2,3.5,1.1,3.2,3.3c-1.8-1-1.8-1-2.3-1.2c-0.2,0.7-0.2,0.7-1.4,1.2c0.1,0.3,0.1,0.7,0.2,1
				l0.3,0.6c0.1,0.6,0.2,1.3,0.2,2c0,0,0,0-1.3,0.4c0,0.2-0.1,0.4-0.1,0.6c-0.2,0.1-0.3,0.1-0.5,0.2c-0.6-0.3-1.1-0.7-1.7-0.8
				c-0.8,0.7-1.9,1-2.8,1.7c-2.3-0.2-3.5-2.9-6.1-2.6c-0.2,0-0.2,0-0.2,0c-2.2-0.5-2.2-0.5-2.5,0.3c0.1,0.1,0.3,0.3,0.4,0.4
				c-0.1,0.3-0.4,0.7-0.6,0.9l0.1,0.1l0.1,0.1c0.2,0.2,0.3,0.6,0.3,0.9c-0.7,0.4-0.7,0.4-2.1,0.1c-0.9,0-1.1-0.1-2.2,0.7
				c0,0.3,0,0.3,0.2,2.3c-0.7,0.8-0.9,1.9-1.7,2.7c-0.1,0-0.1,0-0.2,0c-0.4,0-0.7,0-1,0.1c-0.2,0.2-0.3,0.5-0.5,0.7
				c0.2,0.2,0.5,0.4,0.8,0.5c-1.5,1.1-1.5,1.1-2.2,1.3c0,0.1-0.1,0.3-0.2,0.4c-0.1,0-0.3,0.1-0.5,0.1c-0.3-0.2-0.8-0.6-1.1-0.8
				c-1.3-0.3-1.2,0.4-1.2,1.4c-1.3,0-1.3,0-1.6,0.6c-1.1-0.3-1.1-0.3-1.6,0.1c0.1,0.3,0.1,0.3,1.1,1.7c0.3,0,0.6,0,0.9-0.1
				c2.5,1.8,2.5,1.8,3.2,5.1c-0.5,0.4-0.7,1.1-1.2,1.5c-0.1,0-0.3-0.1-0.5-0.1c0-0.1-6-1.9-7.9,0.9c0.8,2.6,0.2,5.3,0.7,8
				c0.2,0.3,0.4,0.6,0.7,0.7c0.9,0.4,1.3-0.9,2.2-0.7c0.9,0.2,1,1.1,1.5,1.7c0.2,0.1,0.2,0.1,0.2,0.1h0c0,0,0,0,0,0c0,0,0,0,0,0
				c0,0,0,0,0,0h0c0,0,0,0,0,0c0.8-0.2,1.5-0.6,2.3-0.9c0.1,0,0.1,0,0.2,0c0,0,0,0,0,0c0,0,0,0,0,0s0,0,0,0c0,0,0,0,0,0c0,0,0,0,0,0
				c0,0,0,0,0,0c2.7-0.2,3.8-2.6,3.8-2.6c-0.3-2.8-0.3-2.8,0.1-3.4c0.1,0,0.3,0,0.5,0c0.2,0.2,0.2,0.2,0.2,0.2h0c0,0,0,0,0,0
				s0,0,0,0c0,0,0,0,0,0h0c0,0,0,0,0,0c0,0,0,0,0,0c0.3-0.1,0.4-0.1,0.7-0.4c0.1-0.1,0.2-0.3,0.4-0.4c0.9-0.8,1.9-1.7,1.9-1.7
				l0.2-0.3c0.2-0.6,0-1.3,0.1-2c4,0.4,4,0.4,4.5-0.1c0.3-0.2,0.3-0.2,0.3-0.2c0,0,0,0,0,0c0,0,0,0,0,0c0,0,0,0,0,0c0,0,0,0,0,0
				c0.1-0.1,0.2-0.2,0.3-0.3c0-0.1,0-0.3-0.1-0.4c0.1-0.1,0.3-0.2,0.4-0.3c0.1,0,0.1,0,0.1,0c0-0.1,0.1-0.3,0.1-0.4
				c0.2-0.1,0.4-0.1,0.6-0.2c2.2,1.4,2.2,1.4,2.2,1.7c0.5,0.3,0.5,0.3,0.8,1.2c0.2,0.1,0.6,0.1,0.8,0c0.3,0.2,0.6,0.6,0.9,0.9
				l0.8,0.6l0.5,0.3l0.5,0.1l0.4,0.2l0.5,0.2c2.1,0.7,2.1,0.7,2.7,2c-0.2,0.3-0.7,0.6-1.1,0.8c-1.3,0.3-2.6,0.2-3.8,0.7v0.4
				c1.8,0.9,1.8,0.9,2.2,0.8c0.8,0.8,1.5,0.8,1.8,0.7c0.2-0.2,0.3-0.5,0.3-0.7c0-0.1,0-0.4-0.1-0.5c2-2,2-2,1.8-3.3l-0.3-0.3
				l0.1-0.2l0.2-0.2c0.8,0.2,1.4,0.8,2.3,0.7l0.1-0.2l-0.1-0.3l-0.3-0.4l0-0.3l0-0.4l-0.1-0.2l-0.2-0.1l-0.4,0.2
				c-1-0.5-2.3-1.1-2.3-1.1l-1.2-0.2c-0.3-0.1-0.6-0.3-0.8-0.4c-0.1-0.5-0.2-0.8-1.5-1.9c0-0.1,0-0.4-0.1-0.5c-1.1,0-1.1,0-1.4-0.2
				c0-0.5,0-0.5,0.5-1.3c0.3,0,0.6,0.1,0.9,0.2c0.3,0.1,0.3,0.1,0.3,0.1c1.2,1.4,3,1.9,4.3,3.2c1.6,0.4,1.6,0.4,3.2,3
				c0.1,0.4,0.1,0.6,0.1,0.8c0.4,0.7,0.5,0.7,1,1c0.1-0.1,0.2-0.2,0.3-0.3c0.9,1,1.1,2.4,1.8,3.5c0.8-0.3,1.5-0.8,2.3-1
				c0-0.1,0.1-0.3,0.2-0.4c1.3-0.6,1.3-0.6,1.5-0.8c-0.2-0.3-0.6-0.5-0.8-0.7c0-0.1,0-0.3,0-0.5c-0.3-0.2-0.7-0.6-1-0.8
				c0.1-0.1,0.3-0.2,0.4-0.3c0.3,0.1,0.7,0.3,1,0.4c1.1-1,3.2-3,3.4-0.3c0,0.3,0,0.6,0.1,0.9c-0.8,0.1-1.1,0.2-1.6,1.4
				c1.2,1.6,3.3,1.6,4.8,2.7c0.6-0.2,0.9-0.9,1.5-1.1c1.2,0.6,1.2,0.7,1.4,1.3c-0.2,0.2-0.5,0.6-0.7,0.8c0,0.1,0,0.3,0,0.4
				c1.4,0.8,1.6,0.4,2.2-0.6c-0.2-0.4-0.6-0.6-0.8-1c1.3-1.9,2.1-1.2,2.5-0.8c-0.4,6.6-1.5,6.9-3.2,7.3c0,0.1-0.1,0.3-0.2,0.4
				c0,0,4.6,6.2,5.5,7.5c0,0.2-0.2,0.4-0.1,0.5c0.6,1.5,2.1,2.7,2.2,4.5c0.1,0.1,0.1,0.1,1.2,1.1c-0.1,1.6-0.1,1.8,1,2.2
				c0.1,0.3,0.2,0.7,0.4,1c0.1,0.1,0.2,0.3,0.3,0.4c0.2,0.2,0.1,0.7,0,0.9c-0.6,1.8,1,2.2,3,2.8c0,0,0,0,0,0c1.1-0.3,2-0.9,3.1-1.3
				c0,0,0,0,0,0c0,0,0,0,0,0c0,0,0,0,0,0c0.3-0.1,0.6-0.3,0.8-0.4c0.2,0,0.2,0,0.2,0s0,0,0,0h0c0,0,0,0,0,0c3.2-0.7,7.6-10.9,7.6-11
				c-0.6-0.1-0.6-0.1-2.2-1.5c-0.2,0.2-0.5,0.4-0.7,0.6c-0.6,0-0.6,0-1.2,0.5c-1-0.1-1-0.1-2.3-2.5c-1.5-0.4-2.8-4-2.8-4
				c0.5-0.1,1-0.2,1.5-0.3c0.3,0.3,0.6,1,0.8,1.4c0.2,0.4,0.5,0.9,0.8,1.3l0.4,0.3l0.5,0.4c0,0.1,6.7,3.3,6.8,3.2l4.7,0.8
				c1.1,0.6,0.6,2.1,1.6,2.8c0,0.3,0,0.7-0.1,1c0-0.1,0.1,0.2,0.2,0.3c0.3,0.3,0.4,0.8,0.8,1c0.4-0.1,0.4-0.1,0.9-0.8
				c0.5,1.1,0.4,6.5,0.4,6.8c-0.3,1.2-0.1,2.5-0.2,3.8c0.3,1.3-0.3,2.7,0.7,3.9c1-0.5,1.1-0.7,1.3-1.2c0.2-0.5,0.2-0.6,0.3-0.8
				l0.4-0.5c0.1-0.3,0.1-0.6,0.2-0.8l0.2-0.4c0.3-0.6,0.3-0.6,0.4-2c0.5-1.6,0.5-1.6,0.8-2l0.4-0.4c0.2-0.2,0.5-0.4,0.7-0.5
				c0-0.1,0-0.3,0.1-0.4c1.2-1.7,1.2-1.7,2.7-4.3c0.1,0,0.3,0,0.4-0.1c0.1,0.3,0.1,0.7,0.2,0.9c0.3-0.1,0.6-0.2,0.9-0.3
				c0.1,0.1,0.1,0.1,0,6.4c0.6-0.3,0.6-0.3,0.8-1.5c0.1,0.4,0.1,0.4-1.1,7.4c-0.9,3.5-0.9,3.5-1.5,7.8c0,0,0,0.1,0,0.1
				c0.5-1.3,0.9-2.6,1.3-3.9c0.1-1.2,0.5-2.8,1.5-6.2c0,0.1,0,0.1,0.1,0.2c1.4-6.2,2.1-12.6,2.1-19.3
				C214.5,59.5,197.9,32,173.1,16.6z"/>
			<path class="st2" d="M163.5,10.7C163.5,10.7,163.6,10.7,163.5,10.7C163.6,10.7,163.6,10.7,163.5,10.7
				C163.5,10.7,163.5,10.7,163.5,10.7z"/>
			<path class="st2" d="M176.7,131.1c-0.1,0-0.1,0.1-0.2,0.1c-0.2,0.2-0.3,0.3-0.5,0.5c-0.2,0.3-0.5,0.6-1.1,1.4
				c-1.4,1.9-2,2.7-2.3,3c-0.1,0.1-0.2,0.1-0.2,0.1c-0.2-0.1-0.2-0.6-0.5-0.5c0,0,0,0-0.1,0c0,0-0.1,0.1-0.1,0.1c0,0,0,0,0,0
				c-0.1,0.1-0.1,0.2-0.2,0.3c-0.4,0.2-0.9,0.2-1.2,0.5c-0.1,0-0.1,0.1-0.1,0.1c0,0-0.8,1.2-0.9,2.7c0,0.2,0,0.9-0.1,1.1
				c-0.1,0.2-0.2,0.3-0.4,0.5c-0.2,0.2-0.5,0.3-0.7,0.5c-0.2,0.1-0.3,0.2-0.4,0.4l-1.3,4.3c0.2,0.2,0.6,0.6,2.1-0.6
				c0.5-0.4,1.1-0.9,1.9-1.7c0.7-0.8,1.8-2.8,2.7-4.5c0.1-0.2,0.1-0.2,1-1.6c0.1-0.1,0.3-0.2,0.4-0.2c0.2-0.1,0.4-0.2,0.4-0.3
				c0.2-0.2,0.2-0.3,0.4-0.8c0.2-0.6,0.2-0.8,0.3-1c0,0,0.1,0,0.1,0c0,0,0,0,0,0h0c0,0,0,0,0,0c0,0,0,0,0,0c0,0,0,0,0,0s0,0,0,0
				c0,0,0,0,0,0c0,0,0.1,0,0.1,0c0,0,0-0.1,0.1-0.1c0,0,0,0,0,0c0.5-0.8,0.7-1.7,1.2-2.5C177.5,132.3,176.9,131,176.7,131.1z"/>
		</g>
	</g>
	<g>
		<rect x="135.2" y="155.9" class="st3" width="1.3" height="38.9"/>
		<rect x="152.1" y="155.9" class="st4" width="1.3" height="38.9"/>
		<rect x="197.9" y="155.9" class="st5" width="1.3" height="38.9"/>
		<rect x="214.9" y="155.9" class="st5" width="1.3" height="38.9"/>
		<g>
			<rect x="132.1" y="151.6" class="st4" width="25.7" height="4.3"/>
			<rect x="157.7" y="151.6" class="st5" width="62.7" height="4.3"/>
		</g>
		<g>
			<rect x="199.5" y="130.7" class="st6" width="9.3" height="20.9"/>
			<rect x="200.4" y="132.6" class="st6" width="7.6" height="3.2"/>
			<rect x="200.4" y="136.6" class="st6" width="7.6" height="1.9"/>
			<rect x="185.2" y="130.7" class="st7" width="14.3" height="20.9"/>
			<path class="st8" d="M204.2,144.5c-1,0-1.9,0.8-1.9,1.9c0,1,0.8,1.9,1.9,1.9c1,0,1.9-0.8,1.9-1.9
				C206,145.3,205.2,144.5,204.2,144.5z"/>
		</g>
		<g>
			<g id="XMLID_165_">
				<g>
					<rect x="159.3" y="145.1" class="st9" width="12.6" height="5.8"/>
				</g>
			</g>
			<g id="XMLID_164_">
				<g>
					<path class="st10" d="M186.1,119.7h-40.6c-1.1,0-2.1,0.9-2.1,2.1v22.1c0,1.1,0.9,2.1,2.1,2.1h40.6c1.1,0,2.1-0.9,2.1-2.1v-22.1
						C188.1,120.7,187.2,119.7,186.1,119.7z"/>
				</g>
			</g>
			<g id="XMLID_163_">
				<g>
					<rect x="144.8" y="120.9" class="st11" width="42" height="21.3"/>
				</g>
			</g>
			<g id="XMLID_162_">
				<g>
					<path class="st10" d="M175.5,150H155c-0.4,0-0.8,0.4-0.8,0.8c0,0.4,0.4,0.8,0.8,0.8h20.5c0.4,0,0.8-0.4,0.8-0.8
						C176.3,150.4,176,150,175.5,150z"/>
				</g>
			</g>
			<g>
				<g>
					<g>
						<rect x="144.8" y="120.9" class="st8" width="5.2" height="21.3"/>
					</g>
				</g>
				<g>
					<g>
						<rect x="184" y="120.9" class="st8" width="2.8" height="21.3"/>
					</g>
				</g>
				<g>
					<rect x="145.4" y="124.3" class="st3" width="1.6" height="1.4"/>
				</g>
				<g>
					<rect x="147.7" y="124.3" class="st3" width="1.7" height="1.4"/>
				</g>
				<g>
					<rect x="145.4" y="126.5" class="st3" width="1.6" height="1.4"/>
				</g>
				<g>
					<rect x="147.7" y="126.5" class="st3" width="1.7" height="1.4"/>
				</g>
				<g>
					<rect x="145.4" y="128.6" class="st3" width="1.6" height="1.4"/>
				</g>
				<g>
					<rect x="147.7" y="128.6" class="st3" width="1.7" height="1.4"/>
				</g>
				<g>
					<rect x="145.4" y="130.7" class="st3" width="1.6" height="1.4"/>
				</g>
				<g>
					<rect x="147.7" y="130.7" class="st3" width="1.7" height="1.4"/>
				</g>
				<g>
					<rect x="145.4" y="132.8" class="st3" width="1.6" height="1.4"/>
				</g>
				<g>
					<rect x="147.7" y="132.8" class="st3" width="1.7" height="1.4"/>
				</g>
				<g>
					<rect x="145.4" y="134.9" class="st3" width="1.6" height="1.4"/>
				</g>
				<g>
					<rect x="147.7" y="134.9" class="st3" width="1.7" height="1.4"/>
				</g>
				<g>
					<rect x="145.4" y="138" class="st3" width="1.6" height="3.1"/>
				</g>
				<g>
					<rect x="147.7" y="138" class="st3" width="1.7" height="3.1"/>
				</g>
				<g>
					<rect x="184.6" y="139.2" class="st3" width="1.6" height="1.9"/>
				</g>
				<g>
					<rect x="184.6" y="135.6" class="st3" width="1.6" height="1.9"/>
				</g>
				<g>
					<rect x="184.6" y="132.1" class="st3" width="1.6" height="1.9"/>
				</g>
				<g>
					<rect x="184.6" y="128.5" class="st3" width="1.6" height="1.9"/>
				</g>
				<g>
					<rect x="184.6" y="124.9" class="st3" width="1.6" height="1.9"/>
				</g>
				<g>
					<path class="st12" d="M156.2,121.7h-4.1c-0.4,0-0.6,0.3-0.6,0.6s0.3,0.6,0.6,0.6h4.1c0.4,0,0.6-0.3,0.6-0.6
						S156.5,121.7,156.2,121.7z"/>
				</g>
				<g>
					<path class="st12" d="M162.4,121.7h-4.1c-0.4,0-0.6,0.3-0.6,0.6s0.3,0.6,0.6,0.6h4.1c0.4,0,0.6-0.3,0.6-0.6
						S162.8,121.7,162.4,121.7z"/>
				</g>
				<g>
					<path class="st12" d="M168.7,121.7h-4.1c-0.4,0-0.6,0.3-0.6,0.6s0.3,0.6,0.6,0.6h4.1c0.4,0,0.6-0.3,0.6-0.6
						S169,121.7,168.7,121.7z"/>
				</g>
				<g>
					<path class="st12" d="M175,121.7h-4.1c-0.4,0-0.6,0.3-0.6,0.6s0.3,0.6,0.6,0.6h4.1c0.4,0,0.6-0.3,0.6-0.6
						S175.3,121.7,175,121.7z"/>
				</g>
				<g>
					<path class="st12" d="M181.2,121.7h-4.1c-0.4,0-0.6,0.3-0.6,0.6s0.3,0.6,0.6,0.6h4.1c0.4,0,0.6-0.3,0.6-0.6
						S181.6,121.7,181.2,121.7z"/>
				</g>
			</g>
		</g>
		<g>
			<path class="st13" d="M161,125.1h-6.4c-1,0-1.7,0.8-1.7,1.7c0,1,0.8,1.7,1.7,1.7h4l-0.8,1.4l2.8-1.4h0.4c1,0,1.7-0.8,1.7-1.7
				C162.7,125.9,162,125.1,161,125.1z"/>
			<path class="st14" d="M155.9,127.2c-0.2,0-0.3,0.1-0.3,0.3s0.1,0.3,0.3,0.3c0.2,0,0.3-0.1,0.3-0.3S156,127.2,155.9,127.2z"/>
			<path class="st14" d="M157.4,127.2c-0.2,0-0.3,0.1-0.3,0.3s0.1,0.3,0.3,0.3c0.2,0,0.3-0.1,0.3-0.3S157.6,127.2,157.4,127.2z"/>
			<path class="st14" d="M158.9,127.2c-0.2,0-0.3,0.1-0.3,0.3s0.1,0.3,0.3,0.3c0.2,0,0.3-0.1,0.3-0.3S159.1,127.2,158.9,127.2z"/>
		</g>
		<g>
			<path class="st13" d="M161,136.7h-6.4c-1,0-1.7,0.8-1.7,1.7c0,1,0.8,1.7,1.7,1.7h4l-0.8,1.4l2.8-1.4h0.4c1,0,1.7-0.8,1.7-1.7
				C162.7,137.5,162,136.7,161,136.7z"/>
			<path class="st14" d="M155.9,138.8c-0.2,0-0.3,0.1-0.3,0.3s0.1,0.3,0.3,0.3c0.2,0,0.3-0.1,0.3-0.3S156,138.8,155.9,138.8z"/>
			<path class="st14" d="M157.4,138.8c-0.2,0-0.3,0.1-0.3,0.3s0.1,0.3,0.3,0.3c0.2,0,0.3-0.1,0.3-0.3S157.6,138.8,157.4,138.8z"/>
			<path class="st14" d="M158.9,138.8c-0.2,0-0.3,0.1-0.3,0.3s0.1,0.3,0.3,0.3c0.2,0,0.3-0.1,0.3-0.3S159.1,138.8,158.9,138.8z"/>
		</g>
		<g>
			<path class="st13" d="M181.6,127.9h-6.4c-1,0-1.7,0.8-1.7,1.7c0,1,0.8,1.7,1.7,1.7h0.4l2.8,1.4l-0.8-1.4h4c1,0,1.7-0.8,1.7-1.7
				C183.4,128.7,182.6,127.9,181.6,127.9z"/>
			<path class="st14" d="M180.4,130c-0.2,0-0.3,0.1-0.3,0.3s0.1,0.3,0.3,0.3s0.3-0.1,0.3-0.3S180.6,130,180.4,130z"/>
			<path class="st14" d="M178.9,130c-0.2,0-0.3,0.1-0.3,0.3s0.1,0.3,0.3,0.3c0.2,0,0.3-0.1,0.3-0.3S179.1,130,178.9,130z"/>
			<path class="st14" d="M177.4,130c-0.2,0-0.3,0.1-0.3,0.3s0.1,0.3,0.3,0.3s0.3-0.1,0.3-0.3S177.6,130,177.4,130z"/>
		</g>
		<g>
			<g>
				<path class="st15" d="M175,157c0,0.2,0.8,0.4,1,0.4c0.4-0.3,0.3-0.5,0.7-0.7c-0.4,0.1-0.8,0.2-1.3,0.2
					C175.2,156.8,175,156.7,175,157z"/>
				<path class="st15" d="M177,156.5c-0.4,0.2-0.9,0.5-1.3,0.7c-0.5,0.3-1.5,1.2-1.6,1.2c-0.2,0.2-0.8,0.6-0.9,0.8
					c-0.1,0.1-0.1,0.5-0.1,0.7c0.1,0.2,0.3,0.2,0.3,0.2c0.1,0.3,0.7,0,0.7,0.1c0,0.3,0.4,0.4,1.2-0.3c0,0,2.3-1.3,3-1.8
					C178.2,157.6,177.1,156.5,177,156.5z"/>
				<path class="st15" d="M187.6,146.1c-0.2,0.1-0.3,0.1-0.4,0.2c-1.9,1.6-8,8.8-10.3,10.2c0.6,0.6,1,1.2,1.3,1.7
					c3.7-2.3,12.3-9.1,11.8-10.8C189.5,145.9,188.4,145.9,187.6,146.1z"/>
				<path class="st15" d="M193,134.1c-0.7-0.5-4.9-1.8-5.1-1.4c-0.6,2.2-0.7,9.7-1.4,13.3c-0.9,4.4,2.5,3.4,3.2,2.2
					C191.6,145,194.6,135.3,193,134.1z"/>
				<path class="st16" d="M187.2,132.5c-1.5,1.9-0.8,11.8-1.2,13.5c-0.1,0.3-0.1,0.6-0.1,0.9c-0.8,0.8-1.8,1.8-2.8,3
					c-2.3,2.5-5.2,5.5-6.5,6.3l1.8,2.6c3.3-2,10.4-7.6,11.8-10.2c1.5-2.7,4.7-11.9,3.5-14.3C192,130.6,188.6,130.8,187.2,132.5z"/>
			</g>
			<path class="st12" d="M187.5,156.7c-3.4-0.2-19.5,1.2-27,5.1c-4.5,2.3-2.3,7.1-0.7,7.3c4.2,0.5,20.3,1.3,26.7-1.9
				C191.4,164.9,189.4,156.8,187.5,156.7z"/>
			<path class="st15" d="M170.7,189.6c0.2,0.8,0.2,1.3,0.2,1.3c0.7,0.7,2,0.7,2,0.7c0,0,0.2-0.9,0-2.1
				C172.8,189.5,171.5,188.8,170.7,189.6z"/>
			<path class="st12" d="M158.8,168.9c5.9,10.6,11.8,21.6,11.8,21.6c0.4-0.7,1.5-1.1,2.5-0.9c0,0-3.5-11.6-6.9-21.7
				C163.9,161.3,156.4,164.6,158.8,168.9z"/>
			<path class="st17" d="M170.8,190.4c0,0-0.1,0.1-0.4,0.4c-0.6,0.6-3.4,1.8-3.5,2.8c0,0.5,0.9,1,1.7,1.1c0.8,0.1,1.5,0.1,2-0.1
				c0.6-0.3,1.7-1.5,1.9-1.7c0.6-0.6,0.4-1.8,0.4-1.8C172.4,190,170.8,190.4,170.8,190.4z"/>
			<path class="st15" d="M186,189.9c0.2,1.2,0.6,2.4,0.6,2.4c0,0.1,1.7-0.6,2.4-1.2c0,0-0.5-0.8-0.9-1.6
				C187.2,188.6,186.2,189.9,186,189.9z"/>
			<path class="st12" d="M175.7,172.6c5.9,10.6,10.3,18,10.3,18c0.4-0.7,1.5-1.2,2.4-0.9c0,0-2.9-8.4-6.3-18.5
				C179.7,164.4,173.3,168.3,175.7,172.6z"/>
			<path class="st17" d="M188.9,190.9L188.9,190.9c-0.5-0.4-1.1-0.6-1.7-0.4c0,0,0,0,0,0c-0.4,0.2-0.7,0.6-0.7,1.1
				c0,0.4,0.1,1,0.3,1.3c0.2,0.3,1.4,1.5,1.9,1.7c0.5,0.2,1.2,0.2,2,0.1c0.8-0.1,1.7-0.6,1.7-1.1
				C192.3,192.7,189.5,191.5,188.9,190.9z"/>
			<path class="st17" d="M194.3,152.5c-3.8,0.5-7.5,1-11.3,1.1c-2.4,0.1-4.6-0.2-6.7-0.8c0,3.7-0.7,4.2-2.3,5.2
				c1.1,4,3.4,5.1,5.3,5.8c9.9,3.7,17.9-2.2,18.2-2.3c0-2.9-0.3-6.2-0.6-9.5C196,152.2,195.2,152.3,194.3,152.5z"/>
			<path class="st15" d="M187,124.2c-0.3,0.2-3.1,1.8-3.9,1.7c0,0.2,0.6,2.6,0,3.9c0.2,1.2,3.5,1.2,4.4-0.8
				C187.2,128.3,186.8,125.3,187,124.2z"/>
			<path class="st15" d="M182.9,118.5c-1.8-0.1-3.6,0.3-4,2.1c-0.1,0.6,0.1,6.3,3.1,7.1c2.2,0.5,3.7-1.8,3.8-3.3c0,0,0.1-2,0.1-2
				C186.1,120.3,184.9,118.6,182.9,118.5z"/>
			<path class="st18" d="M190.9,129.8c-0.8-0.2-3.4-0.9-3.4-0.9s-0.5,0.7-2,1c-1.4,0.3-2.4-0.2-2.4-0.2s-3,1.3-3.5,1.6
				c-3.1,1.9-2.3,3.9-2.4,6.8c-0.1,1.3,0.3,15.2-2.9,19.8c0.1,0.2,1.3,2.9,3.9,3.6l0.6-5.7l0.6,5.9c6.1,1.3,10.9-1.1,15.8-1.9
				l0.5-7.5l1.4,7.2c0.5-0.1,0.9-0.1,1.3-0.1c-0.1-11.4-3.3-22.5-3.4-23C194.3,134.3,193.4,130.4,190.9,129.8z"/>
			<path class="st17" d="M188,116.3c-2.9-2.3-7.4-0.7-8.7,2.2c-1,2.2-2.2,1.4-2.1,0.8c-0.3,1.5,0.3,2.7,3.2,2.5
				c0.6,0-1.3,0.5-1.3,0.5s3,6.3,7.7,4.7c1.4-0.5,2.6-1.8,2.6-1.8s-1.5,0.3-0.7-1C190.2,121.9,190.5,118.3,188,116.3z"/>
			<g>
				<path class="st15" d="M155.2,148.2c-0.1,0.1,0.7,1.4,0.9,1.4c0.5,0.1,0.8,0,0.9-0.3c-0.4-0.2-1-0.7-1.3-0.9
					C155.5,148.1,155.4,147.9,155.2,148.2z"/>
				<path class="st15" d="M156.1,149.1c-0.6-0.1-3-0.2-3.2-0.1c-0.1,0-0.6,0-0.6,0.3c0,0.2,0.3,0.5,0.3,0.5
					c-0.3,0.4,0.5,0.6,0.5,0.6c-0.3,0.2,0.1,0.5,1.1,0.6c0.8,0.1,2.1,0.4,3.4,0.4c0.1-0.5,0-2.1-0.1-2.1
					C157.1,149.3,156.6,149.2,156.1,149.1z"/>
				<path class="st15" d="M171.2,147.5c-0.2,0-0.3,0-0.5,0c-2.4,0.6-11,1.6-13.7,1.9c0.3,0.8,0.5,1.6,0.5,2.1
					c3.8,0.2,15,0.3,15.3-1.4C173.1,148.5,172,147.5,171.2,147.5z"/>
				<path class="st15" d="M177.9,134.8c-1.4,1.8-4.4,8.7-6.4,11.8c-2.5,3.7,1,4.1,2.1,3.3c3-2.3,9.9-10.1,8.9-11.8
					C182,137.3,178.1,134.5,177.9,134.8z"/>
				<path class="st18" d="M177.7,133.2c-1.2,2.1-6.9,13.6-7.1,13.9c-1,0.4-10.3,1.6-11.8,1.8l0.2,3.1c3.7-0.1,12.7,0.1,15-1.7
					c2.4-1.9,9.4-9.1,9.4-12.3C183.4,134.5,178.9,131,177.7,133.2z"/>
			</g>
		</g>
		<g>
			<polygon class="st17" points="200.2,172.4 207.9,194.8 208.8,194.8 201.1,172.4 			"/>
			<polygon class="st17" points="187.1,172.4 194.9,194.8 195.7,194.8 188,172.4 			"/>
			<path class="st17" d="M201.9,139.1c-5.4,0-10.6,4.4-11.6,9.8l-3.4,14.1c-0.6,3.2-4.1,5.5-7.3,5.5h-7c-1.1,0-1.9,0.9-1.9,1.9
				c0,1.1,0.9,1.9,1.9,1.9l29.1,0c1.3,0,2.5-1,2.8-2.3l5.5-21.2C210.9,143.5,207.3,139.1,201.9,139.1z"/>
			<path class="st19" d="M201.9,139.1c-5.4,0-10.6,4.4-11.6,9.8l-3.4,14.1c-0.6,3.2-4.1,5.5-7.3,5.5h-7c-1.1,0-1.9,0.8-1.9,1.9
				c0,1.1,0.9,1.9,1.9,1.9l0.9,0c0.3-0.7,1-1.2,1.8-1.2h7c3.2,0,6.7-2.3,7.3-5.5l3.4-14.1c1-5.4,6.2-9.8,11.6-9.8
				c1.6,0,3.1,0.4,4.4,1.1C207.6,140.6,205.1,139.1,201.9,139.1z"/>
			<polygon class="st19" points="170.2,194.8 171,194.8 178.8,172.4 177.9,172.4 			"/>
			<polygon class="st19" points="183.2,194.8 184.1,194.8 191.8,172.4 190.9,172.4 			"/>
		</g>
	</g>
	<g>
		<g>
			<g>
				<path class="st20" d="M134.6,143.7c-1.2-1.2-3.1-1.6-4.5-0.7c-2.6,1.7-0.8,4.3-0.3,5.7c2.1,6-4.7,5.6-6.4,10.2
					c-0.9,2.4,4.2,9.2,4,9.7c-0.3,0.9-1.1,1.3-1.9,1.6c-0.8,0.3-2.1,1.4-2.1,3.1c0,4.4,4,6.7,6.7,7.4c2.5,0.6,7.9,0.3,9.9-2
					c2-2.3,2.4-5.2,1.7-8.2c-0.3-1.5-1.8-4-1.6-5.6c0.3-2.7,2.3-5.1,2.8-6.8c0.5-1.8,0.3-4.1-1.2-5.4
					C138.1,149.3,135.6,144.6,134.6,143.7z"/>
			</g>
			<path class="st7" d="M133.1,156.2c-0.1,2-0.1,4-0.2,6c0,2,0,4-0.1,6l0.1,6c0,2,0.1,4,0.2,6c0.1-2,0.1-4,0.2-6l0.1-6
				c0-2,0-4-0.1-6C133.3,160.2,133.2,158.2,133.1,156.2z"/>
			<path class="st7" d="M136.6,163.6c-0.4,0.5-0.9,1.1-1.3,1.6c-0.8,1.1-1.6,2.2-2.3,3.4c1-1,1.8-2.1,2.7-3.1
				c0.4-0.5,0.8-1.1,1.2-1.7c0.4-0.6,0.7-1.1,1.2-1.7C137.5,162.5,137,163.1,136.6,163.6z"/>
			<path class="st7" d="M132.4,175.4c-0.3-0.4-0.6-0.8-0.9-1.2c-0.7-0.7-1.4-1.4-2.2-2c0.6,0.8,1.3,1.5,1.9,2.3
				c0.3,0.4,0.7,0.7,1,1.1l0.5,0.5c0.2,0.2,0.3,0.4,0.4,0.6c0-0.3-0.1-0.5-0.2-0.7C132.7,175.8,132.6,175.6,132.4,175.4z"/>
			<path class="st7" d="M129.6,157.8c0.5,1,1,1.9,1.5,2.9c0.5,0.9,1.1,1.9,1.9,2.7c-0.5-1-1-2-1.5-2.9
				C130.9,159.5,130.4,158.6,129.6,157.8z"/>
		</g>
		<g>
			<g>
				<path class="st21" d="M128,173.1c-0.2-0.4-0.2-0.7-0.2-1c0.1-0.7,0.4-0.9,0.6-1.5c0.2-0.6,0.4-1.2,0-1.9
					c-0.7-1.4-2.8-1.6-3.4-3.2c-0.3-0.7,0.1-1.3,0.4-2c0.3-0.7,0.8-1.7,0.6-2.6c-0.1-0.9-0.6-1.8-1.6-2c-1.1-0.2-2.1,0.6-2.8,1.5
					c-0.5,0.6-1.1,1-1.5,1.8c-1.2,2-2.3,3.7-1.5,6.2c0.6,2,3.2,2.7,2.2,7.5c-0.9,4.4,4.4,5.5,6.1,5.5c1.5,0,3.3-0.3,4-1.9
					c0.7-1.6,0.1-3.2-1-4.5C129.2,174.3,128.3,173.8,128,173.1z"/>
			</g>
			<path class="st7" d="M126.1,173.9c-0.5-1.1-0.9-2.2-1.5-3.3c-0.5-1.1-1-2.2-1.6-3.3c0.4,1.1,0.8,2.3,1.3,3.4
				c0.4,1.1,0.9,2.2,1.4,3.3c0.5,1.1,0.9,2.2,1.5,3.3c0.5,1.1,1,2.2,1.6,3.3c-0.4-1.1-0.8-2.3-1.3-3.4
				C127,176.1,126.6,175,126.1,173.9z"/>
			<path class="st7" d="M126,169.4c-0.2,0.4-0.3,0.8-0.4,1.2c-0.1,0.8-0.2,1.7-0.2,2.5c0.4-0.8,0.5-1.6,0.6-2.4
				c0.1-0.4,0.1-0.8,0.3-1.2c0.1-0.4,0.2-0.8,0.4-1.1C126.4,168.6,126.2,169,126,169.4z"/>
			<path class="st7" d="M126.6,177.3c-0.3-0.1-0.7-0.1-1-0.1c-0.3,0-0.6,0-0.9,0c0.3,0.2,0.6,0.3,0.9,0.3c0.3,0.1,0.6,0.1,0.9,0.2
				c0.5,0.2,1,0.6,1.4,1c-0.1-0.3-0.2-0.6-0.4-0.9C127.3,177.6,127,177.4,126.6,177.3z"/>
			<path class="st22" d="M122.9,168.7c-0.6-0.4-1.2-0.6-1.9-0.8c0.5,0.5,1.1,0.8,1.7,1.2c0.3,0.2,0.6,0.4,0.9,0.5
				c0.3,0.2,0.6,0.4,0.8,0.6c-0.1-0.3-0.3-0.7-0.6-0.9C123.5,169.1,123.2,168.8,122.9,168.7z"/>
		</g>
		<g>
			<path class="st20" d="M123.9,158.8c-0.9,0.1-1.7,0.8-2.3,1.5c-0.5,0.6-1.1,1-1.5,1.8c-1.2,2-2.3,3.7-1.5,6.2
				c0.6,2,3.1,2.7,2.3,7.3c0.8-1,0.8-2.1,2.5-3.7c2.9-2.8-1.4-5.6-1.4-8.3C121.9,161.4,122.3,159.6,123.9,158.8z"/>
		</g>
		<path class="st7" d="M142.4,177.5h-23.6c-0.8,0-1.5,0.7-1.5,1.5v2c0,0.8,0.7,1.5,1.5,1.5h23.6c0.8,0,1.5-0.7,1.5-1.5v-2
			C143.9,178.2,143.3,177.5,142.4,177.5z"/>
		<path class="st6" d="M121.6,193.5c0.2,0.8,0.9,1.3,1.7,1.3h14.8c0.8,0,1.5-0.6,1.7-1.3l2.4-11h-22.8L121.6,193.5z"/>
	</g>
	<g>
		<path class="st23" d="M83.6,25.7H28c-2.2,0-4,1.8-4,4v71.4c0,2.2,1.8,4,4,4h55.6c2.2,0,4-1.8,4-4V29.7
			C87.6,27.5,85.8,25.7,83.6,25.7z"/>
		<g id="XMLID_168_" class="st24">
			<g id="XMLID_169_">
				<path class="st25" d="M43.4,31.8v6.3c4.2,0,7.6,3.4,7.6,7.6c0,4.2-3.4,7.6-7.6,7.6c-4.2,0-7.6-3.4-7.6-7.6h-6.3
					c0,6.6,4.6,12.1,10.7,13.6l3.2,5.6l3.2-5.6c6.1-1.5,10.7-7,10.7-13.6C57.4,38.1,51.1,31.8,43.4,31.8z"/>
				<path class="st25" d="M43.4,31.8v6.3c4.2,0,7.6,3.4,7.6,7.6h6.3C57.4,38.1,51.1,31.8,43.4,31.8z"/>
				<path class="st17" d="M29.5,45.8h6.3c0-4.2,3.4-7.6,7.6-7.6v-6.3C35.7,31.8,29.5,38.1,29.5,45.8z"/>
				<path class="st3" d="M51.1,45.8c0,2.7-1.4,5.1-3.6,6.5c-0.1,0-0.1,0.1-0.2,0.1c-1.1,0.7-2.4,1-3.8,1v0c0,0,0,0,0,0c0,0,0,0,0,0
					c-1.1,0-2.1-0.2-3-0.6L38,58.6c0.7,0.3,1.4,0.5,2.2,0.7l3.2,5.6l0.4-0.7l2.9-4.9c1.9-0.4,3.6-1.3,5.1-2.4c0,0,0,0,0,0
					c0.2-0.1,0.3-0.3,0.5-0.4c0,0,0,0,0.1,0c0.2-0.1,0.3-0.3,0.5-0.4c0,0,0,0,0.1,0c0.2-0.1,0.3-0.3,0.4-0.4c0,0,0,0,0,0
					c0.6-0.6,1.2-1.3,1.7-2c0,0,0,0,0,0c0.1-0.1,0.2-0.3,0.3-0.4c0-0.1,0.1-0.1,0.1-0.2c0.1-0.1,0.2-0.3,0.2-0.4
					c0-0.1,0.1-0.1,0.1-0.2c0-0.1,0.1-0.1,0.1-0.2h0c1-1.9,1.6-4.1,1.6-6.4H51.1z"/>
				<path class="st3" d="M48.8,40.4c3,3,3,7.8,0,10.7l4.5,4.5c5.4-5.4,5.4-14.3,0-19.7L48.8,40.4z"/>
			</g>
		</g>
		<g class="st24">
			<rect x="52.4" y="81.7" class="st25" width="4.6" height="16.9"/>
			<rect x="60.3" y="76.1" class="st25" width="4.6" height="22.5"/>
			<rect x="68.2" y="72.3" class="st17" width="4.6" height="26.3"/>
			<rect x="76.2" y="69.4" class="st3" width="4.6" height="29.2"/>
		</g>
		<g>
			<rect x="43.1" y="92" class="st3" width="3.4" height="1.1"/>
			<rect x="32.5" y="92" class="st3" width="8" height="1.1"/>
			<rect x="29.8" y="92" class="st3" width="1.2" height="1.1"/>
			<rect x="29.8" y="94.6" class="st3" width="5.4" height="1.1"/>
			<rect x="45.6" y="94.6" class="st3" width="0.9" height="1.1"/>
			<rect x="37.1" y="94.6" class="st3" width="7.3" height="1.1"/>
			<rect x="42.3" y="97.2" class="st3" width="4.2" height="1.1"/>
			<rect x="29.8" y="97.2" class="st3" width="11" height="1.1"/>
			<rect x="43.1" y="84.2" class="st3" width="3.4" height="1.1"/>
			<rect x="32.5" y="84.2" class="st3" width="8" height="1.1"/>
			<rect x="29.8" y="84.2" class="st3" width="1.2" height="1.1"/>
			<rect x="29.8" y="86.8" class="st3" width="5.4" height="1.1"/>
			<rect x="45.6" y="86.8" class="st3" width="0.9" height="1.1"/>
			<rect x="37.1" y="86.8" class="st3" width="7.3" height="1.1"/>
			<rect x="42.3" y="89.4" class="st3" width="4.2" height="1.1"/>
			<rect x="29.8" y="89.4" class="st3" width="11" height="1.1"/>
			<rect x="43.1" y="76.4" class="st3" width="3.4" height="1.1"/>
			<rect x="32.5" y="76.4" class="st3" width="8" height="1.1"/>
			<rect x="29.8" y="76.4" class="st3" width="1.2" height="1.1"/>
			<rect x="29.8" y="79" class="st3" width="5.4" height="1.1"/>
			<rect x="45.6" y="79" class="st3" width="0.9" height="1.1"/>
			<rect x="37.1" y="79" class="st3" width="7.3" height="1.1"/>
			<rect x="42.3" y="81.6" class="st3" width="4.2" height="1.1"/>
			<rect x="29.8" y="81.6" class="st3" width="11" height="1.1"/>
			<rect x="29.8" y="71.2" class="st3" width="5.4" height="1.1"/>
			<rect x="45.6" y="71.2" class="st3" width="0.9" height="1.1"/>
			<rect x="37.1" y="71.2" class="st3" width="7.3" height="1.1"/>
			<rect x="42.3" y="73.8" class="st3" width="4.2" height="1.1"/>
			<rect x="29.8" y="73.8" class="st3" width="11" height="1.1"/>
		</g>
		<g>
			<rect x="77.2" y="57.5" class="st3" width="3.7" height="1.1"/>
			<rect x="65.8" y="57.5" class="st3" width="8.7" height="1.1"/>
			<rect x="62.8" y="57.5" class="st3" width="1.4" height="1.1"/>
			<rect x="62.8" y="60.1" class="st3" width="5.8" height="1.1"/>
			<rect x="79.9" y="60.1" class="st3" width="1" height="1.1"/>
			<rect x="70.6" y="60.1" class="st3" width="7.9" height="1.1"/>
			<rect x="76.3" y="62.8" class="st3" width="4.5" height="1.1"/>
			<rect x="62.8" y="62.8" class="st3" width="12" height="1.1"/>
			<rect x="62.8" y="52.3" class="st3" width="5.8" height="1.1"/>
			<rect x="79.9" y="52.3" class="st3" width="1" height="1.1"/>
			<rect x="70.6" y="52.3" class="st3" width="7.9" height="1.1"/>
			<rect x="76.3" y="55" class="st3" width="4.5" height="1.1"/>
			<rect x="62.8" y="55" class="st3" width="12" height="1.1"/>
		</g>
		<g>
			<rect x="62.8" y="31.8" class="st3" width="18.1" height="16.9"/>
		</g>
		<g>
			<rect x="65.6" y="33.9" class="st25" width="12.3" height="2.1"/>
		</g>
		<g>
			<rect x="65.6" y="37.4" class="st25" width="12.3" height="2.1"/>
		</g>
		<g>
			<rect x="65.6" y="40.9" class="st25" width="12.3" height="2.1"/>
		</g>
		<g>
			<rect x="65.6" y="44.4" class="st25" width="12.3" height="2.1"/>
		</g>
	</g>
	<g>
		<path class="st26" d="M41.4,173.8h-15c-0.7,0-1.1-0.5-1.1-1.2l0.3-2.2c0.1-0.7-0.4-1.2-1.1-1.2h-9.5c-0.9,0-1.9,0.9-2,1.8
			l-2.8,22.7c-0.1,0.7,0.4,1.2,1.1,1.2h26.8c0.9,0,1.9-0.9,2-1.8l2.2-18.1C42.5,174.3,42.1,173.8,41.4,173.8z"/>
		<path class="st27" d="M35.7,174.9c-0.1-0.7-0.7-1.2-1.4-1.2h-15c-0.7,0-1.3-0.5-1.4-1.2l-0.5-2.2c-0.1-0.7-0.7-1.2-1.4-1.2H6.5
			c-0.9,0-1.6,0.9-1.4,1.8l4.8,22.7c0.1,0.7,0.7,1.2,1.4,1.2h26.8c0.9,0,1.6-0.9,1.4-1.8L35.7,174.9z"/>
		<path class="st26" d="M34.4,186.8h-6.3c-0.4,0-0.7,0.4-0.6,0.8l0.8,3.6c0.1,0.3,0.3,0.5,0.6,0.5h6.3c0.4,0,0.7-0.4,0.6-0.8
			l-0.8-3.6C35,187,34.7,186.8,34.4,186.8z"/>
	</g>
	<g>
		<path class="st23" d="M220,51.4h-57.1c-1.4,0-2.6,1.2-2.6,2.6v51.1c0,1.4,1.2,2.6,2.6,2.6H220c1.4,0,2.6-1.2,2.6-2.6V54
			C222.6,52.6,221.4,51.4,220,51.4z"/>
		<g>
			<rect x="165.9" y="80.8" class="st3" width="11.6" height="1.3"/>
			<rect x="183.3" y="80.8" class="st3" width="25.4" height="1.3"/>
			<rect x="211.7" y="80.8" class="st3" width="5.3" height="1.3"/>
			<rect x="199.5" y="82.8" class="st3" width="17.5" height="1.3"/>
			<rect x="165.9" y="82.8" class="st3" width="4.2" height="1.3"/>
			<rect x="172.2" y="82.8" class="st3" width="23.1" height="1.3"/>
			<rect x="165.9" y="84.9" class="st3" width="13.9" height="1.3"/>
			<rect x="182.6" y="84.9" class="st3" width="34.3" height="1.3"/>
		</g>
		<g class="st0">
			<g id="XMLID_183_">
				<g id="XMLID_186_">
					<path class="st3" d="M172.2,90.9v5.2l-5,1.7c0.7,2.1,2.7,3.6,5,3.6c2.9,0,5.3-2.4,5.3-5.3C177.4,93.3,175.1,90.9,172.2,90.9z"
						/>
				</g>
			</g>
			<g id="XMLID_174_">
				<g id="XMLID_181_">
					<path class="st28" d="M185,90.9c0,0-0.1,0-0.1,0v5.3h-5.2c0,2.9,2.4,5.2,5.3,5.2c2.9,0,5.3-2.4,5.3-5.3
						C190.3,93.3,187.9,90.9,185,90.9z"/>
				</g>
			</g>
			<g id="XMLID_172_">
				<g id="XMLID_173_">
					<path class="st29" d="M197.7,90.9c0,0-0.1,0-0.1,0v5.3l-4.6-2.4c-0.4,0.7-0.6,1.5-0.6,2.4c0,2.9,2.4,5.3,5.3,5.3
						c2.9,0,5.3-2.4,5.3-5.3C203,93.3,200.6,90.9,197.7,90.9z"/>
				</g>
			</g>
			<g id="XMLID_170_">
				<g id="XMLID_171_">
					<path class="st25" d="M210.4,90.9c-0.1,0-0.3,0-0.4,0v5l-2.6-4.1c-1.4,1-2.3,2.5-2.3,4.3c0,2.9,2.4,5.3,5.3,5.3
						c2.9,0,5.3-2.4,5.3-5.3C215.7,93.3,213.3,90.9,210.4,90.9z"/>
				</g>
			</g>
		</g>
		<g id="XMLID_215_" class="st0">
			<path class="st3" d="M163.8,77H219V55.5h-55.2V77z M214.8,55.8h3.8v3.9h-3.8V55.8z M214.8,60h3.8v3.9h-3.8V60z M214.8,64.3h3.8
				v3.9h-3.8V64.3z M214.8,68.5h3.8v3.9h-3.8V68.5z M214.8,72.7h3.8v3.9h-3.8V72.7z M210.7,55.8h3.8v3.9h-3.8V55.8z M210.7,60h3.8
				v3.9h-3.8V60z M210.7,64.3h3.8v3.9h-3.8V64.3z M210.7,68.5h3.8v3.9h-3.8V68.5z M210.7,72.7h3.8v3.9h-3.8V72.7z M206.5,55.8h3.9
				v3.9h-3.9V55.8z M206.5,60h3.9v3.9h-3.9V60z M206.5,64.3h3.9v3.9h-3.9V64.3z M206.5,68.5h3.9v3.9h-3.9V68.5z M206.5,72.7h3.9v3.9
				h-3.9V72.7z M202.2,55.8h3.9v3.9h-3.9V55.8z M202.2,60h3.9v3.9h-3.9V60z M202.2,64.3h3.9v3.9h-3.9V64.3z M202.2,68.5h3.9v3.9
				h-3.9V68.5z M202.2,72.7h3.9v3.9h-3.9V72.7z M198,55.8h3.9v3.9H198V55.8z M198,60h3.9v3.9H198V60z M198,64.3h3.9v3.9H198V64.3z
				 M198,68.5h3.9v3.9H198V68.5z M198,72.7h3.9v3.9H198V72.7z M193.8,55.8h3.9v3.9h-3.9V55.8z M193.8,60h3.9v3.9h-3.9V60z
				 M193.8,64.3h3.9v3.9h-3.9V64.3z M193.8,68.5h3.9v3.9h-3.9V68.5z M193.8,72.7h3.9v3.9h-3.9V72.7z M189.6,55.8h3.9v3.9h-3.9V55.8z
				 M189.6,60h3.9v3.9h-3.9V60z M189.6,64.3h3.9v3.9h-3.9V64.3z M189.6,68.5h3.9v3.9h-3.9V68.5z M189.6,72.7h3.9v3.9h-3.9V72.7z
				 M185.3,55.8h3.9v3.9h-3.9V55.8z M185.3,60h3.9v3.9h-3.9V60z M185.3,64.3h3.9v3.9h-3.9V64.3z M185.3,68.5h3.9v3.9h-3.9V68.5z
				 M185.3,72.7h3.9v3.9h-3.9V72.7z M181.1,55.8h3.9v3.9h-3.9V55.8z M181.1,60h3.9v3.9h-3.9V60z M181.1,64.3h3.9v3.9h-3.9V64.3z
				 M181.1,68.5h3.9v3.9h-3.9V68.5z M181.1,72.7h3.9v3.9h-3.9V72.7z M176.9,55.8h3.9v3.9h-3.9V55.8z M176.9,60h3.9v3.9h-3.9V60z
				 M176.9,64.3h3.9v3.9h-3.9V64.3z M176.9,68.5h3.9v3.9h-3.9V68.5z M176.9,72.7h3.9v3.9h-3.9V72.7z M172.6,55.8h3.9v3.9h-3.9V55.8z
				 M172.6,60h3.9v3.9h-3.9V60z M172.6,64.3h3.9v3.9h-3.9V64.3z M172.6,68.5h3.9v3.9h-3.9V68.5z M172.6,72.7h3.9v3.9h-3.9V72.7z
				 M168.4,55.8h3.9v3.9h-3.9V55.8z M168.4,60h3.9v3.9h-3.9V60z M168.4,64.3h3.9v3.9h-3.9V64.3z M168.4,68.5h3.9v3.9h-3.9V68.5z
				 M168.4,72.7h3.9v3.9h-3.9V72.7z M164.2,55.8h3.9v3.9h-3.9V55.8z M164.2,60h3.9v3.9h-3.9V60z M164.2,64.3h3.9v3.9h-3.9V64.3z
				 M164.2,68.5h3.9v3.9h-3.9V68.5z M164.2,72.7h3.9v3.9h-3.9V72.7z"/>
			<g id="XMLID_216_">
				<polygon class="st28" points="202.1,59.9 193.6,68.3 185.1,68.3 181,70.4 172.5,68.3 164,72.5 164,76.6 218.9,76.6 218.9,55.6 
					210.5,59.9 				"/>
			</g>
			<polygon class="st25" points="206.3,68.4 202.1,68.4 197.8,72.6 185.2,72.6 181,75.1 172.5,72.6 164.3,76.6 218.8,76.6 
				218.8,72.5 210.6,68.3 			"/>
		</g>
	</g>
	<g>
		<g>
			<polygon class="st13" points="38,194.8 38.9,194.8 46.3,173.3 45.4,173.3 			"/>
			<polygon class="st13" points="50.6,194.8 51.4,194.8 58.8,173.3 58,173.3 			"/>
			<path class="st17" d="M72.8,169.6h-6.8c-3.1,0-6.4-2.2-7-5.3l-3.3-13.5c-1-5.2-6-9.4-11.2-9.4c-5.2,0-8.6,4.2-7.6,9.4l5.3,20.3
				c0.2,1.3,1.4,2.2,2.7,2.2l27.9,0c1,0,1.8-0.8,1.8-1.8C74.7,170.4,73.8,169.6,72.8,169.6z"/>
			<path class="st13" d="M45,171.1l-5.3-20.3c-0.9-4.7,1.9-8.6,6.3-9.3c-0.5-0.1-0.9-0.1-1.4-0.1c-5.2,0-8.6,4.2-7.6,9.4l5.3,20.3
				c0.2,1.3,1.4,2.2,2.7,2.2l2.7,0C46.3,173.3,45.2,172.4,45,171.1z"/>
			<polygon class="st17" points="66.8,173.3 74.2,194.8 75.1,194.8 67.7,173.3 			"/>
			<polygon class="st17" points="54.3,173.3 61.7,194.8 62.5,194.8 55.1,173.3 			"/>
		</g>
		<g>
			<path class="st17" d="M71.9,189.3l-1.8,0c0,0-0.2,0.1-0.4,0.6c0,0-0.5,0.4-0.5,0.9c0,0.3,0.7,1.1,1,1.6c0.2,0.4,0.8,0.8,1.5,1.2
				c0.7,0.4,1.7,0.5,1.9,0.1c0.5-0.8-1.5-2.5-1.7-3.3C71.9,189.9,71.9,189.3,71.9,189.3z"/>
			<path class="st15" d="M72,189.3L70,189c0,0-0.1,0.3-0.3,0.8c0,0,0.3,0.6,1.1,0.8c0.7,0.2,1.2-0.3,1.2-0.3
				C71.9,189.7,72,189.3,72,189.3z"/>
			<path class="st20" d="M79.5,166.5c-7.3-3.6-27.6-8.7-30.9-8.6c0,0-7.2,5.7,2.1,11.4c5.8,3.5,18.2,2.2,27.7,2.1
				C81.6,171.3,82.5,168,79.5,166.5z"/>
			<path class="st20" d="M77.3,160.4c-3.5-1.3-8.8,0-12-0.1c-1.4,0-7.3,1.4-3.6,4.4c5.3,4.2,10.2,2.6,13,1.8
				C77.9,165.7,80.6,161.6,77.3,160.4z"/>
			<path class="st20" d="M74.9,170.3c-2.6,9.9-5.2,19-5.2,19c0.9,0.6,1.7,0.8,2.6,0.8c0,0,3.9-8.2,8.8-18.8
				C83.1,166.9,76.6,163.7,74.9,170.3z"/>
			<path class="st17" d="M69.8,183.5l-1.5-0.9c0,0-0.2,0-0.6,0.3c0,0-0.6,0.1-0.9,0.6c-0.2,0.3,0.1,1.3,0.1,1.9
				c0,0.5,0.3,1.1,0.7,1.7c0.4,0.7,1.2,1.3,1.6,1.1c0.8-0.4-0.1-2.9,0.2-3.7C69.6,184,69.8,183.5,69.8,183.5z"/>
			<path class="st15" d="M67.7,182.9c0,0,0,0.7,0.5,1.2c0.5,0.5,1.2,0.4,1.2,0.4c0.2-0.6,0.5-0.9,0.5-0.9l-1.6-1.2
				C68.4,182.3,68.1,182.5,67.7,182.9z"/>
			<path class="st20" d="M72.6,163.9c-2.6,9.9-5,18.6-5,18.6c0.6,0.7,1.8,1.3,2.4,1.3c0,0,4-8.4,8.8-19
				C80.8,160.6,74.3,157.4,72.6,163.9z"/>
			<g>
				<path class="st15" d="M84.8,145.6c-0.2,0.3-0.5,0.6-0.8,0.9c0.4-0.2,0.5,0.1,0.9-0.1c0.2-0.1,0.5-0.9,0.3-1
					C85,145.1,85,145.4,84.8,145.6z"/>
				<path class="st15" d="M87.5,146.1c-0.1-0.1-0.4-0.3-0.5-0.4c-0.2,0-0.7,0.1-0.9,0.1c-0.1,0-1.1,0.2-1.5,0.3
					c-0.4,0.1-0.7,0.3-1.1,0.4c0,0,0.3,1.5,0.5,1.9c0.6-0.2,2.5-0.9,2.5-0.9c0.8-0.1,0.9-0.5,0.7-0.6c-0.1,0,0.4-0.3,0.3-0.5
					C87.5,146.5,87.6,146.3,87.5,146.1z"/>
				<path class="st15" d="M65.4,136.7c-0.2-0.3-4,2.3-4.5,3c-1,1.6,5.5,9.2,8.2,11.5c1.1,0.9,4.4,0.6,2.1-3.1
					C69.4,145.2,66.8,138.5,65.4,136.7z"/>
				<path class="st6" d="M60.9,139.7c-0.7,1,1.2,5.4,3.9,8.4c0.4-0.2,1.6-1,2-1.2c1-0.6,2.3-1.6,3.1-2.3c-1.8-2.9-3.5-6.6-4.5-7.9
					C65.2,136.4,61.4,139.1,60.9,139.7z"/>
				<path class="st15" d="M70.1,148.5c-0.1,0-0.3,0.1-0.4,0.2c-0.6,0.4-1.3,1.3-0.4,2.6c1,1.3,11.2-1.3,15.1-2.8
					c-0.2-0.5-0.4-1.1-0.5-2C81.5,147.5,72.4,148,70.1,148.5z"/>
			</g>
			<path class="st20" d="M46.8,154.7c0,0-1,4.5-0.5,6.6c0.2,0.8,7.1,0.1,10.8,0.7c3.7,0.5,9-0.4,10.3-1.5c0.6-0.5-0.8-4.3-0.8-4.3
				L46.8,154.7z"/>
			<path class="st15" d="M57.3,129.1c0.1,1.1-0.2,4-0.6,4.5c0.8,2,4,2,4.2,0.9c-0.5-1.2,0.1-3.5,0.1-3.7
				C60.3,130.8,57.6,129.3,57.3,129.1z"/>
			<path class="st15" d="M60.2,125.3c-1.5,0.1-2.5,1.4-2.4,2.9c0,0,0.1,1.6,0.1,1.6c0.1,1.2,1.9,2.9,2.9,2.6c2.4-0.6,2.6-5,2.5-5.5
				C63.1,125.6,61.7,125.2,60.2,125.3z"/>
			<path class="st30" d="M64.2,135.6c-0.5-0.3-3.3-1.2-3.3-1.2s-0.7,0.8-1.4,0.8c-1.1-0.1-2.8-1.6-2.8-1.6s-1.3,0.4-2.1,0.6
				c-2.4,0.5-4,3.1-4.9,5.5c-0.3,0.7-2.1,8.7-3.5,17.5c-0.4,2.7,19.8,4.4,21.1,2.3c0.5-0.9-0.2-3.2-1-19.1
				C66.2,138.7,66.2,136.8,64.2,135.6z"/>
			<g>
				<path class="st15" d="M68.1,158.9c-0.4,0-0.8,0-1.2-0.1c0.4,0.2,0.3,0.4,0.7,0.6c0.2,0,1-0.2,1-0.4
					C68.5,158.8,68.3,158.9,68.1,158.9z"/>
				<path class="st15" d="M69.5,160.4c-0.1-0.1-1.1-0.8-1.6-1c-0.4-0.2-0.9-0.4-1.3-0.6c0,0-1,1.2-1.2,1.6c0.7,0.4,3,1.4,3,1.5
					c0.8,0.6,1.2,0.5,1.2,0.2c0-0.1,0.7,0.1,0.7-0.1c0,0,0.2,0,0.3-0.2c0-0.2,0-0.5-0.1-0.6C70.2,160.9,69.7,160.5,69.5,160.4z"/>
				<path class="st15" d="M57.5,137.1c-0.1-0.4-4.7,0.1-5.4,0.4c-1.7,0.9,0.3,10.7,1.6,14.1c0.5,1.3,3.6,2.6,3.3-1.7
					C56.8,146.5,57.8,139.3,57.5,137.1z"/>
				<path class="st6" d="M57.5,137.1c-0.9-1.8-5.3-2.1-6.5,0.9c-0.4,1.2-0.5,4.8,0.4,8.8c2.1,0.4,4.7,0,6.2-0.6
					C57.4,142.7,58.2,138.5,57.5,137.1z"/>
				<path class="st15" d="M55.6,149.6c-0.7-0.2-1.9-0.1-2.2,1.4c-0.3,1.6,8.4,7.5,12.1,9.4c0.2-0.5,0.6-1.1,1.1-1.7
					c-2.3-1.1-8.7-7.6-10.6-9C56,149.7,55.8,149.7,55.6,149.6z"/>
			</g>
			<path class="st23" d="M62.4,124.7c-0.7-1-3.2-2.3-5.3-0.2c-3,3,0.5,6.2,0.5,6.2c-0.2-1,1-5,4.4-4.9c0,0,1.8,0.9,1.2,3.5
				C64.2,128.9,64.8,125.2,62.4,124.7z"/>
			<path class="st15" d="M57,128.5c0,0.4,0.4,1,0.8,1.1c0.2-0.4,0.5-1.2,0.7-1.8c-0.2-0.2-0.5-0.2-0.6-0.2
				C57.5,127.6,57.1,128.1,57,128.5z"/>
			<path class="st23" d="M49,126.8c-0.3,2.9-1,3.2-1.8,4.1c-4.2,4.5,3.5,11.2,4.1,8.2c0.2-1.2-3-2.2,1-4.7c4.5-2.8,2.5-4.8,2-6.4
				c-1.7-6,1.4-4.9,2.2-3.8c0.5,0.7,0.9,0.3,0.9-0.3C57.7,121.3,49.8,117,49,126.8z"/>
			<path class="st12" d="M57,123.6c-0.6,0.5-0.6,0.9-0.4,1.3c0,0,0.7-0.9,1.5-1.2c0,0-0.3-0.3-0.7-0.3
				C57.3,123.5,57.2,123.5,57,123.6z"/>
		</g>
		<g>
			<rect x="96.1" y="131.1" class="st7" width="6.6" height="20.5"/>
			<rect x="102.7" y="131.1" class="st6" width="14.3" height="20.5"/>
		</g>
		<g>
			<g id="XMLID_195_">
				<g>
					<rect x="78.2" y="145.1" class="st31" width="12.6" height="5.8"/>
				</g>
			</g>
			<g id="XMLID_191_">
				<g>
					<path class="st31" d="M104.9,119.7H64.4c-1.1,0-2.1,0.9-2.1,2.1v22.1c0,1.1,0.9,2.1,2.1,2.1h40.6c1.1,0,2.1-0.9,2.1-2.1v-22.1
						C107,120.7,106.1,119.7,104.9,119.7z"/>
				</g>
			</g>
			<g id="XMLID_189_">
				<g>
					<path class="st32" d="M100.8,123H75.9c-0.7,0-1.3,0.6-1.3,1.3v13.5c0,0.7,0.6,1.3,1.3,1.3h24.9c0.7,0,1.3-0.6,1.3-1.3v-13.5
						C102.1,123.6,101.5,123,100.8,123z"/>
				</g>
			</g>
			<g id="XMLID_188_">
				<g>
					<path class="st32" d="M94.4,150H73.9c-0.4,0-0.8,0.4-0.8,0.8c0,0.4,0.4,0.8,0.8,0.8h20.5c0.4,0,0.8-0.4,0.8-0.8
						C95.2,150.4,94.8,150,94.4,150z"/>
				</g>
			</g>
		</g>
		<g>
			<rect x="36.7" y="155.9" class="st4" width="1.3" height="38.9"/>
			<rect x="53.3" y="155.9" class="st4" width="1.3" height="38.9"/>
			<rect x="99.1" y="155.9" class="st5" width="1.3" height="38.9"/>
			<rect x="115.7" y="155.9" class="st5" width="1.3" height="38.9"/>
		</g>
		<g>
			<rect x="32.6" y="151.6" class="st4" width="25.7" height="4.3"/>
			<rect x="58.3" y="151.6" class="st5" width="62.7" height="4.3"/>
		</g>
	</g>
	<g class="st33">
		<g>
			<g>
				<g>
					<g>
						<polygon class="st34" points="98.7,131 100,133.3 99.7,133.3 98.5,131.3 						"/>
						<polygon class="st34" points="100,128.9 98.7,131 98.5,130.7 99.6,128.9 99.9,128.9 						"/>
						<polygon class="st34" points="98.5,130.7 98.7,131 98.5,131.3 98.3,131 						"/>
						<polygon class="st34" points="97.4,128.9 98.5,130.7 98.3,131 97.1,128.9 						"/>
						<polygon class="st34" points="98.3,131 98.5,131.3 97.3,133.3 97,133.3 						"/>
						<path class="st34" d="M95.4,128.9c1,0.2,1.8,1.1,1.8,2.2c0,1.1-0.8,2-1.8,2.2c0.8-0.4,1.5-1.2,1.5-2.2
							C96.9,130.1,96.3,129.3,95.4,128.9z"/>
						<path class="st34" d="M94.3,128.9c1.2,0,2.2,1,2.2,2.2c0,1.2-1,2.2-2.2,2.2c-1.2,0-2.2-1-2.2-2.2
							C92.1,129.9,93.1,128.9,94.3,128.9z M96.2,131.1c0-1.1-0.9-1.9-1.9-1.9c-1.1,0-1.9,0.9-1.9,1.9c0,1.1,0.9,1.9,1.9,1.9
							C95.3,133,96.2,132.1,96.2,131.1z"/>
						<path class="st34" d="M90.7,128.9c0.6,0,1.1,0.5,1.1,1.1c0,0.6-0.5,1.1-1.1,1.1h-0.6v2.2h-0.3V131v-0.3v-1.5v-0.3h0.3H90.7z
							 M91.5,130c0-0.4-0.4-0.8-0.8-0.8h-0.6v1.6h0.6C91.2,130.7,91.5,130.4,91.5,130z"/>
						<path class="st34" d="M89.3,131.1c0,0.7-0.3,1.3-0.8,1.7c-0.4,0.3-0.9,0.5-1.4,0.5c-0.5,0-0.9-0.1-1.2-0.4
							c-0.3-0.2-0.5-0.4-0.7-0.7c0,0,0,0,0,0c0,0,0,0,0,0c0-0.1-0.1-0.1-0.1-0.2c0,0,0,0,0-0.1c0-0.2,0-1.1,0-1.1s0-0.3,0-0.4
							c0-0.1-0.1-0.1-0.1-0.2c-0.3-0.6-1-1-1.7-1c-0.4,0-0.8,0.1-1.1,0.3c-0.5,0.3-0.8,0.9-0.8,1.6c0,0.4,0.1,0.8,0.3,1.1
							c0.1,0.1,0.2,0.2,0.2,0.3c0.3,0.3,0.8,0.6,1.3,0.6c0.5,0,1-0.2,1.3-0.5c0.1-0.1,0.2-0.2,0.3-0.3c0,0,0,0,0,0.1
							c0,0.1,0.1,0.2,0.1,0.2c-0.1,0.1-0.2,0.2-0.2,0.3c-0.4,0.4-0.9,0.6-1.5,0.6c-1.2,0-2.2-1-2.2-2.2c0-0.7,0.4-1.4,0.9-1.8
							c0.4-0.3,0.8-0.4,1.3-0.4c0.6,0,1.2,0.3,1.6,0.7c0.1,0.1,0.2,0.2,0.3,0.3c0,0,0,0,0,0c0,0,0,0,0,0c0,0,0,0,0,0c0,0,0,0,0,0.1
							c0,0.1,0.1,0.1,0.1,0.2c0,0,0,0.1,0,0.1c0,0.1,0,0.1,0,0.1l0,0.9c0,0,0,0.4,0.1,0.6c0.3,0.6,1,1,1.7,1c0.4,0,0.9-0.2,1.2-0.4
							c0.4-0.4,0.7-0.9,0.7-1.5c0-0.3-0.1-0.6-0.2-0.9c-0.2-0.3-0.4-0.5-0.6-0.7c-0.3-0.2-0.7-0.3-1-0.3c-0.6,0-1,0.2-1.4,0.6
							c-0.1,0.1-0.1,0.2-0.2,0.2c0,0,0,0,0,0c0-0.1-0.1-0.2-0.1-0.2c0-0.1,0.1-0.1,0.1-0.2c0.4-0.4,1-0.7,1.6-0.7
							C88.3,128.9,89.3,129.9,89.3,131.1z"/>
						<polygon class="st34" points="80.5,128.9 80.5,133.3 80.2,133.3 80.2,131.1 77.7,131.1 77.7,133.3 77.5,133.3 77.5,128.9 
							77.7,128.9 77.7,130.8 80.2,130.8 80.2,128.9 						"/>
					</g>
				</g>
			</g>
		</g>
		<g>
			<g>
				<g>
					<g>
						<polygon class="st3" points="98.7,131 100,133.3 99.7,133.3 98.5,131.3 						"/>
						<polygon class="st3" points="100,128.9 98.7,131 98.5,130.7 99.6,128.9 99.9,128.9 						"/>
						<polygon class="st3" points="98.5,130.7 98.7,131 98.5,131.3 98.3,131 						"/>
						<polygon class="st3" points="97.4,128.9 98.5,130.7 98.3,131 97.1,128.9 						"/>
						<polygon class="st3" points="98.3,131 98.5,131.3 97.3,133.3 97,133.3 						"/>
						<path class="st3" d="M95.4,128.9c1,0.2,1.8,1.1,1.8,2.2c0,1.1-0.8,2-1.8,2.2c0.8-0.4,1.5-1.2,1.5-2.2
							C96.9,130.1,96.3,129.3,95.4,128.9z"/>
						<path class="st3" d="M94.3,128.9c1.2,0,2.2,1,2.2,2.2c0,1.2-1,2.2-2.2,2.2c-1.2,0-2.2-1-2.2-2.2
							C92.1,129.9,93.1,128.9,94.3,128.9z M96.2,131.1c0-1.1-0.9-1.9-1.9-1.9c-1.1,0-1.9,0.9-1.9,1.9c0,1.1,0.9,1.9,1.9,1.9
							C95.3,133,96.2,132.1,96.2,131.1z"/>
						<path class="st3" d="M90.7,128.9c0.6,0,1.1,0.5,1.1,1.1c0,0.6-0.5,1.1-1.1,1.1h-0.6v2.2h-0.3V131v-0.3v-1.5v-0.3h0.3H90.7z
							 M91.5,130c0-0.4-0.4-0.8-0.8-0.8h-0.6v1.6h0.6C91.2,130.7,91.5,130.4,91.5,130z"/>
						<path class="st3" d="M89.3,131.1c0,0.7-0.3,1.3-0.8,1.7c-0.4,0.3-0.9,0.5-1.4,0.5c-0.5,0-0.9-0.1-1.2-0.4
							c-0.3-0.2-0.5-0.4-0.7-0.7c0,0,0,0,0,0c0,0,0,0,0,0c0-0.1-0.1-0.1-0.1-0.2c0,0,0,0,0-0.1c0-0.2,0-1.1,0-1.1s0-0.3,0-0.4
							c0-0.1-0.1-0.1-0.1-0.2c-0.3-0.6-1-1-1.7-1c-0.4,0-0.8,0.1-1.1,0.3c-0.5,0.3-0.8,0.9-0.8,1.6c0,0.4,0.1,0.8,0.3,1.1
							c0.1,0.1,0.2,0.2,0.2,0.3c0.3,0.3,0.8,0.6,1.3,0.6c0.5,0,1-0.2,1.3-0.5c0.1-0.1,0.2-0.2,0.3-0.3c0,0,0,0,0,0.1
							c0,0.1,0.1,0.2,0.1,0.2c-0.1,0.1-0.2,0.2-0.2,0.3c-0.4,0.4-0.9,0.6-1.5,0.6c-1.2,0-2.2-1-2.2-2.2c0-0.7,0.4-1.4,0.9-1.8
							c0.4-0.3,0.8-0.4,1.3-0.4c0.6,0,1.2,0.3,1.6,0.7c0.1,0.1,0.2,0.2,0.3,0.3c0,0,0,0,0,0c0,0,0,0,0,0c0,0,0,0,0,0c0,0,0,0,0,0.1
							c0,0.1,0.1,0.1,0.1,0.2c0,0,0,0.1,0,0.1c0,0.1,0,0.1,0,0.1l0,0.9c0,0,0,0.4,0.1,0.6c0.3,0.6,1,1,1.7,1c0.4,0,0.9-0.2,1.2-0.4
							c0.4-0.4,0.7-0.9,0.7-1.5c0-0.3-0.1-0.6-0.2-0.9c-0.2-0.3-0.4-0.5-0.6-0.7c-0.3-0.2-0.7-0.3-1-0.3c-0.6,0-1,0.2-1.4,0.6
							c-0.1,0.1-0.1,0.2-0.2,0.2c0,0,0,0,0,0c0-0.1-0.1-0.2-0.1-0.2c0-0.1,0.1-0.1,0.1-0.2c0.4-0.4,1-0.7,1.6-0.7
							C88.3,128.9,89.3,129.9,89.3,131.1z"/>
						<polygon class="st3" points="80.5,128.9 80.5,133.3 80.2,133.3 80.2,131.1 77.7,131.1 77.7,133.3 77.5,133.3 77.5,128.9 
							77.7,128.9 77.7,130.8 80.2,130.8 80.2,128.9 						"/>
					</g>
				</g>
			</g>
		</g>
	</g>
</g>
</svg>
