<svg xmlns="http://www.w3.org/2000/svg" viewBox="0 0 194.8 144.6"><defs><style>.cls-1{isolation:isolate;}.cls-2{fill:#489aff;}.cls-3,.cls-8{fill:#e3eaff;}.cls-4{fill:#6db8ff;}.cls-5{fill:#2f6dff;}.cls-6{fill:#c8d6f2;}.cls-7{fill:#424261;opacity:0.2;mix-blend-mode:multiply;}.cls-8{opacity:0.21;}.cls-9{fill:#f9fbfc;}.cls-10{fill:#9570ee;}.cls-11{fill:#bb87ee;}.cls-12{fill:#7f57ee;}.cls-13{fill:#ced6ff;}.cls-14{fill:#f7d3a9;}.cls-15{fill:#544db8;}.cls-16{fill:#ff8b40;}.cls-17{fill:#cdd4ff;}.cls-18{fill:#ffc240;}.cls-19{fill:#90c240;}.cls-20{fill:#eb4f24;}.cls-21{fill:#fd4940;}.cls-22{fill:#0cf;}.cls-23{fill:#ff56a9;}.cls-24{fill:#ffc359;}.cls-25{fill:#ff4dd1;}.cls-26{fill:#fff;}.cls-27{fill:#f79a74;}.cls-28{fill:#ff4f72;}.cls-29{fill:#fec800;}.cls-30{fill:#7fe881;}.cls-31{fill:#5bc980;}.cls-32{fill:#ececf1;}.cls-33{fill:#d3d3d8;}.cls-34{fill:#ff641a;}.cls-35{fill:#f03800;}.cls-36{fill:#25d9f8;}.cls-37{fill:#296aed;}</style></defs><title>首页图形</title><g class="cls-1"><g id="OBJECTS"><path class="cls-2" d="M403.55,306.73a16.39,16.39,0,0,0,1.55-26.94,61.8,61.8,0,0,1,6.76-8c1.18-1.18,2.38-2.29,3.59-3.36.49.41,1,.83,1.43,1.27l4-2.46a4.38,4.38,0,0,1,6,1.45l4,6.54a4.38,4.38,0,0,1-1.45,6l-4,2.47a31.65,31.65,0,0,1,1.3,9.32l4.56,1.28a4.37,4.37,0,0,1,3,5.39l-2.06,7.39a4.38,4.38,0,0,1-5.4,3l-4.55-1.27a31.5,31.5,0,0,1-4.34,5.74l2.47,4a4.37,4.37,0,0,1-1.46,6l-6.54,4a4.38,4.38,0,0,1-6-1.45l-2.47-4a31.15,31.15,0,0,1-7.17,1.24A50.24,50.24,0,0,1,395,309.12,16.38,16.38,0,0,0,403.55,306.73Z" transform="translate(-239.7 -184.99)"/><rect class="cls-3" x="4.48" y="30.77" width="154.86" height="110.03" rx="6.93" ry="6.93"/><rect class="cls-4" x="6.52" y="32.22" width="150.78" height="107.13" rx="5.49" ry="5.49"/><rect class="cls-5" x="13.04" y="37.26" width="137.74" height="92.64" rx="3.38" ry="3.38"/><path class="cls-3" d="M240.43,320.08a5.7,5.7,0,0,0-.73,2.75,5.81,5.81,0,0,0,5.81,5.81H397.72a5.77,5.77,0,0,0,5.09-8.56Z" transform="translate(-239.7 -184.99)"/><path class="cls-6" d="M240.43,325.58a5.79,5.79,0,0,0,5.08,3.06H397.72a5.8,5.8,0,0,0,5.09-3.06Z" transform="translate(-239.7 -184.99)"/><path class="cls-7" d="M392.12,215.76H288.78v69.05a2.77,2.77,0,0,0,2.77,2.77H399v-64.9A6.92,6.92,0,0,0,392.12,215.76Z" transform="translate(-239.7 -184.99)"/><rect class="cls-8" x="52.88" y="22.75" width="120.97" height="76.73" rx="2.76" ry="2.76"/><rect class="cls-9" x="57.72" y="17.57" width="120.97" height="76.73" rx="2.76" ry="2.76"/><rect class="cls-7" x="21.39" y="53.51" width="15.73" height="16.42" rx="1.73" ry="1.73"/><rect class="cls-4" x="20.48" y="77.36" width="15.73" height="16.42" rx="1.73" ry="1.73"/><rect class="cls-4" x="20.48" y="100.69" width="15.73" height="16.42" rx="1.73" ry="1.73"/><path class="cls-10" d="M272.84,270.34a5.17,5.17,0,1,1-5.17-5.17A5.17,5.17,0,0,1,272.84,270.34Z" transform="translate(-239.7 -184.99)"/><path class="cls-9" d="M271.84,270.34a4.17,4.17,0,1,1-4.17-4.17A4.17,4.17,0,0,1,271.84,270.34Z" transform="translate(-239.7 -184.99)"/><path class="cls-11" d="M267.67,266.17a4.18,4.18,0,0,1,4,3,.16.16,0,0,0,.16.12h0a.17.17,0,0,0,.16-.21,4.5,4.5,0,0,0-8.64,0,.17.17,0,0,0,.16.21h0a.16.16,0,0,0,.16-.12A4.18,4.18,0,0,1,267.67,266.17Z" transform="translate(-239.7 -184.99)"/><path class="cls-12" d="M272.3,270.47a.5.5,0,0,0-.5.43,4.17,4.17,0,0,1-8.26,0,.51.51,0,0,0-.5-.43h0a.5.5,0,0,0-.49.56,5.17,5.17,0,0,0,10.24,0,.5.5,0,0,0-.49-.56Z" transform="translate(-239.7 -184.99)"/><path class="cls-9" d="M271.84,270.34a4.17,4.17,0,1,1-4.17-4.17A4.17,4.17,0,0,1,271.84,270.34Z" transform="translate(-239.7 -184.99)"/><path class="cls-10" d="M271.73,271.68a.16.16,0,0,0-.15.11,4.17,4.17,0,0,1-7.82,0,.17.17,0,0,0-.16-.11h0a.17.17,0,0,0-.15.23,4.5,4.5,0,0,0,8.44,0,.17.17,0,0,0-.16-.23Z" transform="translate(-239.7 -184.99)"/><path class="cls-10" d="M267.66,270.71h0a.2.2,0,0,1-.2-.21v-2.93a.2.2,0,0,1,.2-.2h0a.2.2,0,0,1,.2.2v2.93A.2.2,0,0,1,267.66,270.71Z" transform="translate(-239.7 -184.99)"/><path class="cls-10" d="M267.51,270.39h0a.22.22,0,0,1,.29,0l1.81,1.53a.2.2,0,0,1,0,.28h0a.2.2,0,0,1-.28,0l-1.81-1.53A.21.21,0,0,1,267.51,270.39Z" transform="translate(-239.7 -184.99)"/><rect class="cls-13" x="27.85" y="81.46" width="0.15" height="0.4"/><rect class="cls-13" x="27.85" y="88.77" width="0.15" height="0.4"/><rect class="cls-13" x="263.9" y="270.1" width="0.15" height="0.4" transform="translate(-246.04 349.29) rotate(-90)"/><rect class="cls-13" x="271.21" y="270.1" width="0.15" height="0.4" transform="translate(-238.73 356.6) rotate(-90)"/><rect class="cls-13" x="264.97" y="267.52" width="0.15" height="0.4" transform="translate(-351.38 80.68) rotate(-44.98)"/><rect class="cls-13" x="270.14" y="272.69" width="0.15" height="0.4" transform="translate(-353.52 86.01) rotate(-45)"/><rect class="cls-13" x="264.97" y="272.69" width="0.15" height="0.4" transform="translate(19.77 468.28) rotate(-135)"/><rect class="cls-13" x="270.14" y="267.52" width="0.15" height="0.4" transform="translate(32.45 463.11) rotate(-135.03)"/><rect class="cls-4" x="20.48" y="52.99" width="15.73" height="16.42" rx="1.73" ry="1.73"/><polyline class="cls-14" points="19.72 67.72 21.02 66.82 21.6 64.68 20.95 64.55 20.56 65.33 20.95 61.63 20.3 61.76 19.66 65.33 18.88 67.01 19.59 67.47"/><polygon class="cls-14" points="27.39 71.57 27.56 70.02 29.46 68.11 29.9 68.72 29.2 69.5 32.83 68.63 32.83 69.41 29.46 70.71 28.77 71.92 27.39 71.57"/><polygon class="cls-15" points="3.73 110.02 10.8 144.6 16.15 144.03 12.52 142.69 13.86 142.31 11.95 110.02 3.73 110.02"/><path class="cls-15" d="M254.71,294.44s9,8.4,7.64,18.53c-1.53,8-4.78,11.08-4.78,11.08l-.95-.2,1.48,3.92-4.3-4.58s5.3-7.31,2-14.91A20.48,20.48,0,0,0,245.35,298s6.16-5.59,6.59-5.45A30.84,30.84,0,0,1,254.71,294.44Z" transform="translate(-239.7 -184.99)"/><path class="cls-16" d="M258.53,251.4s-14.76,17.91-16.48,21.5c0,0-.72,1.29-.72,5s1.29,17.48,1.29,17.48l15.05.86s-4.87-16.76-5-17.19a10.2,10.2,0,0,0-4.87-3.58l12.61-22.79Z" transform="translate(-239.7 -184.99)"/><path class="cls-14" d="M249.18,273.75s.63,1.85,1,3c0,0-3.07-.07-4.16-1.49l1.15-2.75Z" transform="translate(-239.7 -184.99)"/><path class="cls-14" d="M251.52,267.93s.91,5.29,0,6.49-4-.84-5.32-2.76-1.56-6.25.65-6.61A4.08,4.08,0,0,1,251.52,267.93Z" transform="translate(-239.7 -184.99)"/><path class="cls-16" d="M250.12,277.72s11.83-7.44,12.79-9,3.62-12.88,3.62-12.88l2.29.58s-1.33,12.69-1.71,14-12,13.74-14.7,13.74S248.79,280.78,250.12,277.72Z" transform="translate(-239.7 -184.99)"/><path class="cls-15" d="M245.15,265.28a4.47,4.47,0,0,1,4.32-1.64c2.76.52,3.45-.08,3.45-.08s-.6,3-2.5,3.71-2.42.52-2.42.52a6.53,6.53,0,0,1,1.3,1.81c.26.78-.87-1-1.3-.34s0,1.9.86,1.81.35.61,0,1.3-.86,1.55-1.38,1.3a6.11,6.11,0,0,1-3-3.46C243.77,268.05,243.59,266,245.15,265.28Z" transform="translate(-239.7 -184.99)"/><rect class="cls-3" x="65.15" y="25.6" width="36.29" height="61.17" rx="1.3" ry="1.3"/><rect class="cls-4" x="71.37" y="30.53" width="23.5" height="5.18" rx="1.04" ry="1.04"/><path class="cls-4" d="M318.94,249.51h-4.67a2,2,0,0,1-2-2h0a2,2,0,0,1,2-2h4.67a2,2,0,0,1,2,2h0A2,2,0,0,1,318.94,249.51Z" transform="translate(-239.7 -184.99)"/><path class="cls-10" d="M332.42,249.51h-4.67a2,2,0,0,1-2-2h0a2,2,0,0,1,2-2h4.67a2,2,0,0,1,2,2h0A2,2,0,0,1,332.42,249.51Z" transform="translate(-239.7 -184.99)"/><rect class="cls-9" x="70.85" y="40.9" width="25.23" height="3.97"/><rect class="cls-9" x="70.85" y="47.64" width="25.23" height="3.97"/><rect class="cls-17" x="76.3" y="54.12" width="14.52" height="0.91"/><path class="cls-10" d="M415.93,260.45H370.56a5.06,5.06,0,0,1-5.05-5.06h0a5,5,0,0,1,5.05-5h45.37a5,5,0,0,1,5.05,5h0A5.06,5.06,0,0,1,415.93,260.45Z" transform="translate(-239.7 -184.99)"/><path class="cls-3" d="M376.66,217.59H348.4a4.15,4.15,0,0,1-4.15-4.15h0a4.15,4.15,0,0,1,4.15-4.15h28.26a4.14,4.14,0,0,1,4.14,4.15h0A4.14,4.14,0,0,1,376.66,217.59Z" transform="translate(-239.7 -184.99)"/><path class="cls-18" d="M355.14,213.44a1.3,1.3,0,1,1-1.29-1.29A1.3,1.3,0,0,1,355.14,213.44Z" transform="translate(-239.7 -184.99)"/><path class="cls-19" d="M364,213.44a1.3,1.3,0,1,1-1.3-1.29A1.3,1.3,0,0,1,364,213.44Z" transform="translate(-239.7 -184.99)"/><path class="cls-20" d="M372.25,213.44a1.3,1.3,0,1,1-1.3-1.29A1.3,1.3,0,0,1,372.25,213.44Z" transform="translate(-239.7 -184.99)"/><rect class="cls-3" x="115.29" y="41.09" width="27.81" height="18.27" rx="2.04" ry="2.04"/><path class="cls-21" d="M368.93,235.07h-.06a.73.73,0,0,1-.35-.09L357.8,229a.74.74,0,0,1-.28-1,.72.72,0,0,1,1-.28l10.39,5.77,10.39-5.77a.74.74,0,0,1,1,.28.75.75,0,0,1-.29,1L369.28,235A.73.73,0,0,1,368.93,235.07Z" transform="translate(-239.7 -184.99)"/><rect class="cls-15" x="149.39" y="12.9" width="34.48" height="44.58" rx="1.81" ry="1.81"/><path class="cls-22" d="M396.8,203.87h-2.3c-.12,0-.22-.2-.22-.45h0c0-.24.1-.44.22-.44h2.3c.12,0,.22.2.22.44h0C397,203.67,396.92,203.87,396.8,203.87Z" transform="translate(-239.7 -184.99)"/><path class="cls-22" d="M411,203.87H397.88c-.12,0-.22-.2-.22-.45h0c0-.24.1-.44.22-.44H411c.12,0,.22.2.22.44h0C411.24,203.67,411.14,203.87,411,203.87Z" transform="translate(-239.7 -184.99)"/><path class="cls-23" d="M402.07,205.7h-4.19c-.12,0-.22-.2-.22-.44h0c0-.25.1-.45.22-.45h4.19c.13,0,.22.2.22.45h0C402.29,205.5,402.2,205.7,402.07,205.7Z" transform="translate(-239.7 -184.99)"/><path class="cls-3" d="M409,205.7h-6c-.13,0-.22-.2-.22-.44h0c0-.25.09-.45.22-.45h6c.12,0,.22.2.22.45h0C409.19,205.5,409.09,205.7,409,205.7Z" transform="translate(-239.7 -184.99)"/><path class="cls-3" d="M411,214.64H397.88c-.12,0-.22-.2-.22-.44h0c0-.25.1-.45.22-.45H411c.12,0,.22.2.22.45h0C411.24,214.44,411.14,214.64,411,214.64Z" transform="translate(-239.7 -184.99)"/><path class="cls-22" d="M396.8,216.48h-2.3c-.12,0-.22-.2-.22-.45h0c0-.24.1-.44.22-.44h2.3c.12,0,.22.2.22.44h0C397,216.28,396.92,216.48,396.8,216.48Z" transform="translate(-239.7 -184.99)"/><path class="cls-3" d="M402.07,216.48h-4.19c-.12,0-.22-.2-.22-.45h0c0-.24.1-.44.22-.44h4.19c.13,0,.22.2.22.44h0C402.29,216.28,402.2,216.48,402.07,216.48Z" transform="translate(-239.7 -184.99)"/><path class="cls-23" d="M409,216.48h-6c-.13,0-.22-.2-.22-.45h0c0-.24.09-.44.22-.44h6c.12,0,.22.2.22.44h0C409.19,216.28,409.09,216.48,409,216.48Z" transform="translate(-239.7 -184.99)"/><path class="cls-23" d="M414.28,207.54h-16.4c-.12,0-.22-.2-.22-.45h0c0-.24.1-.44.22-.44h16.4c.12,0,.22.2.22.44h0C414.5,207.34,414.4,207.54,414.28,207.54Z" transform="translate(-239.7 -184.99)"/><rect class="cls-22" x="167.09" y="23.5" width="4.29" height="0.89" rx="0.23" ry="0.23"/><path class="cls-3" d="M403.33,209.37h-5.45c-.12,0-.22-.2-.22-.44h0c0-.25.1-.45.22-.45h5.45c.12,0,.22.2.22.45h0C403.55,209.17,403.45,209.37,403.33,209.37Z" transform="translate(-239.7 -184.99)"/><path class="cls-22" d="M406.23,209.37h-2.16c-.12,0-.22-.2-.22-.44h0c0-.25.1-.45.22-.45h2.16c.12,0,.22.2.22.45h0C406.45,209.17,406.35,209.37,406.23,209.37Z" transform="translate(-239.7 -184.99)"/><path class="cls-3" d="M396.8,211.15h-2.3c-.12,0-.22-.2-.22-.45h0c0-.24.1-.44.22-.44h2.3c.12,0,.22.2.22.44h0C397,211,396.92,211.15,396.8,211.15Z" transform="translate(-239.7 -184.99)"/><path class="cls-3" d="M414.28,211.15h-16.4c-.12,0-.22-.2-.22-.45h0c0-.24.1-.44.22-.44h16.4c.12,0,.22.2.22.44h0C414.5,211,414.4,211.15,414.28,211.15Z" transform="translate(-239.7 -184.99)"/><path class="cls-3" d="M396.8,218.18h-2.3c-.12,0-.22-.2-.22-.45h0c0-.24.1-.44.22-.44h2.3c.12,0,.22.2.22.44h0C397,218,396.92,218.18,396.8,218.18Z" transform="translate(-239.7 -184.99)"/><rect class="cls-3" x="167.09" y="32.3" width="5.93" height="0.89" rx="0.28" ry="0.28"/><path class="cls-3" d="M403.33,218.18h-5.45c-.12,0-.22-.2-.22-.45h0c0-.24.1-.44.22-.44h5.45c.12,0,.22.2.22.44h0C403.55,218,403.45,218.18,403.33,218.18Z" transform="translate(-239.7 -184.99)"/><path class="cls-3" d="M406.23,218.18h-2.16c-.12,0-.22-.2-.22-.45h0c0-.24.1-.44.22-.44h2.16c.12,0,.22.2.22.44h0C406.45,218,406.35,218.18,406.23,218.18Z" transform="translate(-239.7 -184.99)"/><path class="cls-24" d="M396.8,220h-2.3c-.12,0-.22-.2-.22-.44h0c0-.25.1-.45.22-.45h2.3c.12,0,.22.2.22.45h0C397,219.75,396.92,220,396.8,220Z" transform="translate(-239.7 -184.99)"/><path class="cls-22" d="M400.72,220h-2.84c-.12,0-.22-.2-.22-.44h0c0-.25.1-.45.22-.45h2.84c.12,0,.22.2.22.45h0C400.94,219.75,400.84,220,400.72,220Z" transform="translate(-239.7 -184.99)"/><path class="cls-22" d="M394.5,213c-.12,0-.22-.2-.22-.44h0c0-.25.1-.45.22-.45h2.3c.12,0,.22.2.22.45h0c0,.24-.1.44-.22.44" transform="translate(-239.7 -184.99)"/><rect class="cls-3" x="167.09" y="27.11" width="6.7" height="0.89" rx="0.29" ry="0.29"/><path class="cls-24" d="M403.33,213h-5.45c-.12,0-.22-.2-.22-.44h0c0-.25.1-.45.22-.45h5.45c.12,0,.22.2.22.45h0C403.55,212.78,403.45,213,403.33,213Z" transform="translate(-239.7 -184.99)"/><path class="cls-24" d="M406.23,213h-2.16c-.12,0-.22-.2-.22-.44h0c0-.25.1-.45.22-.45h2.16c.12,0,.22.2.22.45h0C406.45,212.78,406.35,213,406.23,213Z" transform="translate(-239.7 -184.99)"/><path class="cls-3" d="M411,221.84H397.88c-.12,0-.22-.2-.22-.45h0c0-.24.1-.44.22-.44H411c.12,0,.22.2.22.44h0C411.24,221.64,411.14,221.84,411,221.84Z" transform="translate(-239.7 -184.99)"/><path class="cls-3" d="M402.07,223.67h-4.19c-.12,0-.22-.2-.22-.44h0c0-.25.1-.45.22-.45h4.19c.13,0,.22.2.22.45h0C402.29,223.47,402.2,223.67,402.07,223.67Z" transform="translate(-239.7 -184.99)"/><path class="cls-3" d="M409,223.67h-6c-.13,0-.22-.2-.22-.44h0c0-.25.09-.45.22-.45h6c.12,0,.22.2.22.45h0C409.19,223.47,409.09,223.67,409,223.67Z" transform="translate(-239.7 -184.99)"/><path class="cls-3" d="M411,232.61H397.88c-.12,0-.22-.2-.22-.44h0c0-.25.1-.45.22-.45H411c.12,0,.22.2.22.45h0C411.24,232.41,411.14,232.61,411,232.61Z" transform="translate(-239.7 -184.99)"/><path class="cls-23" d="M396.8,234.45h-2.3c-.12,0-.22-.2-.22-.45h0c0-.24.1-.44.22-.44h2.3c.12,0,.22.2.22.44h0C397,234.25,396.92,234.45,396.8,234.45Z" transform="translate(-239.7 -184.99)"/><path class="cls-22" d="M402.07,234.45h-4.19c-.12,0-.22-.2-.22-.45h0c0-.24.1-.44.22-.44h4.19c.13,0,.22.2.22.44h0C402.29,234.25,402.2,234.45,402.07,234.45Z" transform="translate(-239.7 -184.99)"/><path class="cls-3" d="M409,234.45h-6c-.13,0-.22-.2-.22-.45h0c0-.24.09-.44.22-.44h6c.12,0,.22.2.22.44h0C409.19,234.25,409.09,234.45,409,234.45Z" transform="translate(-239.7 -184.99)"/><path class="cls-23" d="M396.8,225.51h-2.3c-.12,0-.22-.2-.22-.45h0c0-.24.1-.44.22-.44h2.3c.12,0,.22.2.22.44h0C397,225.31,396.92,225.51,396.8,225.51Z" transform="translate(-239.7 -184.99)"/><rect class="cls-23" x="157.96" y="39.63" width="12.22" height="0.89" rx="0.27" ry="0.27"/><path class="cls-3" d="M396.8,227.34h-2.3c-.12,0-.22-.19-.22-.44h0c0-.24.1-.44.22-.44h2.3c.12,0,.22.2.22.44h0C397,227.15,396.92,227.34,396.8,227.34Z" transform="translate(-239.7 -184.99)"/><path class="cls-3" d="M403.33,227.34h-5.45c-.12,0-.22-.19-.22-.44h0c0-.24.1-.44.22-.44h5.45c.12,0,.22.2.22.44h0C403.55,227.15,403.45,227.34,403.33,227.34Z" transform="translate(-239.7 -184.99)"/><path class="cls-3" d="M406.23,227.34h-2.16c-.12,0-.22-.19-.22-.44h0c0-.24.1-.44.22-.44h2.16c.12,0,.22.2.22.44h0C406.45,227.15,406.35,227.34,406.23,227.34Z" transform="translate(-239.7 -184.99)"/><path class="cls-3" d="M396.8,229.12h-2.3c-.12,0-.22-.2-.22-.44h0c0-.25.1-.45.22-.45h2.3c.12,0,.22.2.22.45h0C397,228.92,396.92,229.12,396.8,229.12Z" transform="translate(-239.7 -184.99)"/><rect class="cls-3" x="157.96" y="43.24" width="15.39" height="0.89" rx="0.3" ry="0.3"/><path class="cls-3" d="M396.8,236.15h-2.3c-.12,0-.22-.2-.22-.45h0c0-.24.1-.44.22-.44h2.3c.12,0,.22.2.22.44h0C397,236,396.92,236.15,396.8,236.15Z" transform="translate(-239.7 -184.99)"/><path class="cls-3" d="M414.26,236.15H407c-.12,0-.22-.2-.22-.45h0c0-.24.1-.44.22-.44h7.25c.12,0,.22.2.22.44h0C414.48,236,414.38,236.15,414.26,236.15Z" transform="translate(-239.7 -184.99)"/><path class="cls-3" d="M403.33,236.15h-5.45c-.12,0-.22-.2-.22-.45h0c0-.24.1-.44.22-.44h5.45c.12,0,.22.2.22.44h0C403.55,236,403.45,236.15,403.33,236.15Z" transform="translate(-239.7 -184.99)"/><path class="cls-3" d="M406.23,236.15h-2.16c-.12,0-.22-.2-.22-.45h0c0-.24.1-.44.22-.44h2.16c.12,0,.22.2.22.44h0C406.45,236,406.35,236.15,406.23,236.15Z" transform="translate(-239.7 -184.99)"/><rect class="cls-24" x="157.96" y="52.05" width="10.16" height="0.89" rx="0.24" ry="0.24"/><rect class="cls-23" x="167.09" y="45.08" width="7.09" height="0.89" rx="0.3" ry="0.3"/><path class="cls-24" d="M403.33,231h-5.45c-.12,0-.22-.2-.22-.45h0c0-.24.1-.44.22-.44h5.45c.12,0,.22.2.22.44h0C403.55,230.76,403.45,231,403.33,231Z" transform="translate(-239.7 -184.99)"/><path class="cls-24" d="M406.23,231h-2.16c-.12,0-.22-.2-.22-.45h0c0-.24.1-.44.22-.44h2.16c.12,0,.22.2.22.44h0C406.45,230.76,406.35,231,406.23,231Z" transform="translate(-239.7 -184.99)"/><circle class="cls-25" cx="181.09" cy="13.82" r="7.26"/><path class="cls-9" d="M420.27,198.13l-2.89,1.05,2.89,1v1.08l-4.12-1.56v-1.13l4.12-1.56Z" transform="translate(-239.7 -184.99)"/><path class="cls-9" d="M421.21,197.06l4.12,1.56v1.13l-4.12,1.56v-1.08l2.88-1-2.88-1.05Z" transform="translate(-239.7 -184.99)"/><circle class="cls-18" cx="372.78" cy="321.19" r="7.87" transform="translate(-355.72 79.61) rotate(-34.14)"/><path class="cls-26" d="M376.94,320.74a3.8,3.8,0,0,1-.23,1.34,2.28,2.28,0,0,1-.66,1,1.55,1.55,0,0,1-1,.34,1.21,1.21,0,0,1-.66-.18,1,1,0,0,1-.42-.47h-.08a1.78,1.78,0,0,1-1.4.65,1.87,1.87,0,0,1-1.42-.54,2,2,0,0,1-.52-1.48,2.25,2.25,0,0,1,.68-1.73A2.45,2.45,0,0,1,373,319a7.15,7.15,0,0,1,1,.08,6.56,6.56,0,0,1,.86.2l-.11,2.49c0,.47.13.71.38.71s.39-.16.52-.48a3.28,3.28,0,0,0,.2-1.24,3.07,3.07,0,0,0-.34-1.45,2.34,2.34,0,0,0-1-1,3,3,0,0,0-1.42-.33,3.6,3.6,0,0,0-1.78.42,2.87,2.87,0,0,0-1.17,1.22,4,4,0,0,0-.4,1.84,2.92,2.92,0,0,0,.75,2.16,3,3,0,0,0,2.18.75,6.47,6.47,0,0,0,1.18-.12,8,8,0,0,0,1.27-.35v1a6.06,6.06,0,0,1-2.41.46,4.23,4.23,0,0,1-3-1,3.68,3.68,0,0,1-1.08-2.83,4.72,4.72,0,0,1,.55-2.28,4.05,4.05,0,0,1,1.57-1.61,4.65,4.65,0,0,1,2.35-.58,4.19,4.19,0,0,1,2,.46,3.22,3.22,0,0,1,1.36,1.3A3.86,3.86,0,0,1,376.94,320.74Zm-5.21.64c0,.71.29,1.07.87,1.07a.83.83,0,0,0,.7-.32,2,2,0,0,0,.29-1.05l.07-1.13a2.65,2.65,0,0,0-.59-.05,1.28,1.28,0,0,0-1,.39A1.62,1.62,0,0,0,371.73,321.38Z" transform="translate(-239.7 -184.99)"/><path class="cls-10" d="M333.22,185H283.83a7.26,7.26,0,0,0,0,14.52h3.63L291,203l3.51-3.51h38.74a7.26,7.26,0,0,0,0-14.52Z" transform="translate(-239.7 -184.99)"/><path class="cls-26" d="M319.09,194.57h-32.5a.82.82,0,0,1-.82-.82h0a.82.82,0,0,1,.82-.81h32.5a.81.81,0,0,1,.81.81h0A.82.82,0,0,1,319.09,194.57Z" transform="translate(-239.7 -184.99)"/><path class="cls-26" d="M308.93,190.1H286.59a.82.82,0,0,1-.82-.82h0a.82.82,0,0,1,.82-.81h22.34a.81.81,0,0,1,.81.81h0A.82.82,0,0,1,308.93,190.1Z" transform="translate(-239.7 -184.99)"/><path class="cls-14" d="M400.73,277s-.6,1.79-.94,2.87c0,0,3-.06,4-1.44l-1.11-2.64Z" transform="translate(-239.7 -184.99)"/><polygon class="cls-27" points="160.58 141.49 160.83 142.62 162.47 142.71 162.12 141.33 160.58 141.49"/><path class="cls-15" d="M400.54,327.6s-2.74,1.43-2.72,1.52,4.63-.39,4.63-.39l-.28-1Z" transform="translate(-239.7 -184.99)"/><polygon class="cls-27" points="174.4 139.22 175.04 140.18 176.6 139.68 175.78 138.51 174.4 139.22"/><path class="cls-15" d="M414.74,325.16s-2,2.32-2,2.4,4.17-2,4.17-2l-.63-.87Z" transform="translate(-239.7 -184.99)"/><path class="cls-18" d="M397.25,296.66S392.55,312,400,326.78h2.21s-4.42-16.72,1.1-30.26Z" transform="translate(-239.7 -184.99)"/><path class="cls-18" d="M401.32,297.2s.73,16,12.73,27.44l2.08-.74S406.35,309.64,407,295Z" transform="translate(-239.7 -184.99)"/><path class="cls-27" d="M399.17,261.09v-.94a.5.5,0,0,0,0-.12l-.18-.68-.54.14-.55-.51a.47.47,0,0,0-.74.14,5.06,5.06,0,0,0-.42,1.18.47.47,0,0,0,.12.39l.84.92a.48.48,0,0,0,.48.13l.67-.2A.47.47,0,0,0,399.17,261.09Z" transform="translate(-239.7 -184.99)"/><path class="cls-28" d="M407.27,281.83s-6.12-6.56-6.53-9-1.29-11.6-1.29-11.6l-1.89.36s-.65,13.08-.08,14.59,4.26,9.18,6.66,9.89S408.22,284.39,407.27,281.83Z" transform="translate(-239.7 -184.99)"/><path class="cls-27" d="M398.76,271s-1.38,4.6-.5,5.76,4.1.11,5.35-1.75,1.5-6-.63-6.37S399.27,269.15,398.76,271Z" transform="translate(-239.7 -184.99)"/><path class="cls-28" d="M407.05,297.9s1.25-13.26,1.25-16.86c0-.16,0-.32,0-.47a3.54,3.54,0,0,0-4.14-2.11,29.61,29.61,0,0,0-4.49,1.48h0a8.92,8.92,0,0,0-2.27,2.22,21.44,21.44,0,0,0-.41,15.2Z" transform="translate(-239.7 -184.99)"/><path class="cls-27" d="M389.49,261.77l-.16-.93a.53.53,0,0,0,0-.12l-.3-.63-.51.23-.63-.4a.46.46,0,0,0-.7.26,5.65,5.65,0,0,0-.21,1.24.45.45,0,0,0,.19.36l1,.76a.5.5,0,0,0,.5,0l.62-.31A.45.45,0,0,0,389.49,261.77Z" transform="translate(-239.7 -184.99)"/><path class="cls-28" d="M401.11,280.77s-7.18-5.39-8-7.74-3.32-11.19-3.32-11.19l-1.79.69s1.66,13,2.49,14.37,5.8,8.29,8.28,8.56S402.5,283.12,401.11,280.77Z" transform="translate(-239.7 -184.99)"/><path class="cls-15" d="M403.88,268.61s-3.69-1.57-5.44,1.66c-.92,2,2,.09,2.58.73s-.74,1.94-.37,2.4,1-.83,1.38-.09-.55.83-1.19,1.65.55,2-.37,2.77S397,279,398.53,283s-2.57,5-.82,10.41,13.63,8.47,15.84,2-5.16-8-4.7-10.87,2.12-3.59-.09-6.44-3.59-4.52-2.95-6.36A2.41,2.41,0,0,0,403.88,268.61Z" transform="translate(-239.7 -184.99)"/><path class="cls-29" d="M413.92,246.34a7.92,7.92,0,1,0,7.93,7.92A7.92,7.92,0,0,0,413.92,246.34Zm-4,7.3a1,1,0,1,1,1,1A1,1,0,0,1,409.92,253.64Zm4,4.94a2.52,2.52,0,0,1-2.49-2.18h5A2.52,2.52,0,0,1,413.92,258.58Zm3-4a1,1,0,1,1,1-1A1,1,0,0,1,417,254.61Z" transform="translate(-239.7 -184.99)"/><polygon class="cls-9" points="56.57 125.61 56.1 124.68 68.66 118.4 84.5 118.66 101.7 112.18 114.83 112.18 128.86 107.51 128.97 107.52 140.22 108.8 146.56 105.5 147.04 106.42 140.42 109.86 140.26 109.84 128.97 108.56 114.92 113.22 101.79 113.22 84.68 119.7 84.58 119.7 68.9 119.44 56.57 125.61"/><path class="cls-15" d="M342.35,285.72s12.45,20.15,10.89,34.17l8.47.17-3.63-2.1,1-.17s-3.11-21.73-6.05-29.44c-3.08-8.08-4-5.09-4-5.09Z" transform="translate(-239.7 -184.99)"/><path class="cls-15" d="M337.86,284.47s.69,14-.35,19.35-4.14,15.9-4.14,15.9l7.95.17-2.09-1.47-1.33-.77s5.66-15.21,6.18-22.47a96.09,96.09,0,0,1,1.38-11.41Z" transform="translate(-239.7 -184.99)"/><polyline class="cls-14" points="114.42 58.05 115.72 57.14 116.3 55 115.65 54.87 115.26 55.65 115.65 51.96 115 52.09 114.36 55.65 113.58 57.34 114.29 57.79"/><polygon class="cls-14" points="122.09 61.89 122.26 60.34 124.16 58.44 124.59 59.04 123.9 59.82 127.53 58.95 127.53 59.73 124.16 61.03 123.47 62.24 122.09 61.89"/><path class="cls-4" d="M353.23,241.73s-14.76,17.91-16.48,21.49c0,0-.72,1.29-.72,5s1.29,17.48,1.29,17.48l15.05.86s-4.87-16.76-5-17.19a10.2,10.2,0,0,0-4.87-3.58L355.09,243Z" transform="translate(-239.7 -184.99)"/><path class="cls-14" d="M343.88,264.07s.63,1.86,1,3c0,0-3.07-.06-4.15-1.49l1.15-2.75Z" transform="translate(-239.7 -184.99)"/><path class="cls-14" d="M346.22,258.26s.91,5.28,0,6.49-4-.84-5.32-2.77-1.56-6.25.65-6.61A4.08,4.08,0,0,1,346.22,258.26Z" transform="translate(-239.7 -184.99)"/><path class="cls-4" d="M344.82,268.05s11.83-7.45,12.79-9,3.62-12.88,3.62-12.88l2.29.57s-1.33,12.69-1.72,14-12,13.74-14.69,13.74S343.49,271.1,344.82,268.05Z" transform="translate(-239.7 -184.99)"/><path class="cls-15" d="M345.38,257.08s.6-2.08-.69-3.11a4.17,4.17,0,0,0-3.89-.52c0,.6,1.38,1,1,1.29s-2.16,0-2.59,1.82.18,2.16.18,2.16a2.15,2.15,0,0,0,.17,2.68c1.12,1.55,3.66,2.83,4.29,2.67s.29-2.59.29-2.59-1.47-.17-1.56-1.12.69-1,1-.69.43,1.12.69.95-.09-2-.09-2A3.73,3.73,0,0,0,345.38,257.08Z" transform="translate(-239.7 -184.99)"/><path class="cls-10" d="M352.34,310l-8.88,2.44a4.62,4.62,0,0,0-3.23,5.66l1.68,6.13a4.62,4.62,0,0,0,5.66,3.22l2.67-.73,2.62,2.6.94-3.57,2.66-.73a4.62,4.62,0,0,0,3.22-5.66L358,313.24A4.62,4.62,0,0,0,352.34,310Z" transform="translate(-239.7 -184.99)"/><path class="cls-26" d="M346.46,320.06a1,1,0,1,1-1.25-.72A1,1,0,0,1,346.46,320.06Z" transform="translate(-239.7 -184.99)"/><path class="cls-26" d="M350.94,318.83a1,1,0,0,1-2,.54,1,1,0,1,1,2-.54Z" transform="translate(-239.7 -184.99)"/><path class="cls-26" d="M355.42,317.6a1,1,0,1,1-1.25-.71A1,1,0,0,1,355.42,317.6Z" transform="translate(-239.7 -184.99)"/><circle class="cls-18" cx="68.69" cy="118.66" r="1.64"/><circle class="cls-28" cx="129" cy="108.12" r="1.64"/><path class="cls-30" d="M271.89,242.32h-.73a4,4,0,0,1-2.79-1.2.28.28,0,0,0-.22-.09.27.27,0,0,0-.21.09,4,4,0,0,1-2.8,1.2h-.72a.31.31,0,0,0-.32.31v3.54a5.78,5.78,0,0,0,3.95,5.48l.1,0,.1,0a5.77,5.77,0,0,0,4-5.48v-3.54A.31.31,0,0,0,271.89,242.32Z" transform="translate(-239.7 -184.99)"/><path class="cls-31" d="M272.21,242.63v3.54a5.77,5.77,0,0,1-4,5.48l-.1,0V241a.28.28,0,0,1,.22.09,4,4,0,0,0,2.79,1.2h.73A.31.31,0,0,1,272.21,242.63Z" transform="translate(-239.7 -184.99)"/><path class="cls-32" d="M268.15,244.19a2.18,2.18,0,1,0,2.19,2.18A2.19,2.19,0,0,0,268.15,244.19Z" transform="translate(-239.7 -184.99)"/><path class="cls-33" d="M270.34,246.37a2.19,2.19,0,0,1-2.19,2.18v-4.36A2.19,2.19,0,0,1,270.34,246.37Z" transform="translate(-239.7 -184.99)"/><path class="cls-34" d="M269,246.28l-.85.84-.09.09a.31.31,0,0,1-.44,0l-.31-.31a.31.31,0,1,1,.44-.44l.09.09.31-.31.41-.4a.3.3,0,0,1,.44,0A.31.31,0,0,1,269,246.28Z" transform="translate(-239.7 -184.99)"/><path class="cls-35" d="M269,246.28l-.85.84v-.88l.41-.4a.3.3,0,0,1,.44,0A.31.31,0,0,1,269,246.28Z" transform="translate(-239.7 -184.99)"/><path class="cls-36" d="M271.73,292.2a2.37,2.37,0,0,0-.65.09,3.71,3.71,0,0,0-3.4-2.28,3.66,3.66,0,0,0-3.6,2.93,2.2,2.2,0,1,0-.09,4.39h7.7a2.6,2.6,0,0,0,2.61-2.56A2.57,2.57,0,0,0,271.73,292.2Z" transform="translate(-239.7 -184.99)"/><path class="cls-37" d="M274.3,294.77a2.6,2.6,0,0,1-2.61,2.56h-4V290a3.71,3.71,0,0,1,3.4,2.28,2.37,2.37,0,0,1,.65-.09A2.57,2.57,0,0,1,274.3,294.77Z" transform="translate(-239.7 -184.99)"/><path class="cls-32" d="M268.67,295l-.73.74a.38.38,0,0,1-.26.11.36.36,0,0,1-.26-.11l-.73-.74a.35.35,0,0,1,0-.51.36.36,0,0,1,.51,0l.11.1v-2a.36.36,0,0,1,.37-.37.37.37,0,0,1,.37.37v2l.11-.1a.36.36,0,0,1,.51.51Z" transform="translate(-239.7 -184.99)"/><path class="cls-33" d="M268.67,295l-.73.74a.38.38,0,0,1-.26.11V292.2a.37.37,0,0,1,.37.37v2l.11-.1a.36.36,0,0,1,.51.51Z" transform="translate(-239.7 -184.99)"/></g></g></svg>