<?xml version="1.0" encoding="utf-8"?>
<!-- Generator: Adobe Illustrator 23.0.3, SVG Export Plug-In . SVG Version: 6.00 Build 0)  -->
<svg version="1.1" id="图层_1" xmlns="http://www.w3.org/2000/svg" xmlns:xlink="http://www.w3.org/1999/xlink" x="0px" y="0px"
	 viewBox="0 0 200 200" style="enable-background:new 0 0 200 200;" xml:space="preserve">
<style type="text/css">
	.st0{fill:#E8E8E7;}
	.st1{fill:#495460;}
	.st2{fill:#FEDB43;}
	.st3{fill:#F19169;}
</style>
<g>
	<g>
		<g>
			<g>
				<g>
					<g>
						<path class="st0" d="M112.61,37.41v3.48c0,0.33-0.02,0.63-0.05,0.91c-0.59,4.55-5.11,8.27-9.75,7.31
							c-3.76-0.77-6.84-4.35-6.84-8.22v-3.48h-56.5v3.48c0,0.33-0.02,0.63-0.04,0.91c-0.5,4.45-4.6,7.75-9.05,7.31
							c-3.67-0.38-6.89-3.3-7.45-6.98c-0.06-0.39-0.09-0.8-0.09-1.23v-3.48H1.87v117.45h125.34c-5.06-3.67-9.32-8.38-12.46-13.81
							H14.87V67.33h105.44v21.19c0.21-0.23,0.44-0.48,0.69-0.73c0.8-0.86,1.65-1.69,2.53-2.47c0.07-0.06,0.14-0.13,0.21-0.19
							c0.65-0.59,1.32-1.16,2.01-1.69l-0.57,0.37l-3.19-4.79l5.57-3.71l3.14,4.71c0.93-0.55,1.89-1.07,2.86-1.56V37.41H112.61z"/>
					</g>
					<g>
						<path class="st1" d="M130.77,156.01H0.72V36.25h23.27v4.64c0,0.37,0.02,0.72,0.08,1.05c0.47,3.1,3.23,5.68,6.42,6.01
							c0.23,0.02,0.46,0.03,0.69,0.03c3.58,0,6.7-2.78,7.1-6.32c0.02-0.24,0.04-0.5,0.04-0.78v-4.64h58.81v4.64
							c0,3.24,2.65,6.42,5.91,7.09c0.41,0.08,0.83,0.13,1.25,0.13c3.47,0,6.66-2.9,7.12-6.46c0.03-0.22,0.04-0.46,0.04-0.76v-4.64
							h23.26v42.93l-0.64,0.32c-0.99,0.49-1.92,1-2.78,1.51l-0.94,0.56l-3.11-4.66l-3.65,2.43l3.1,4.66l-0.75,0.66
							c-0.01,0.01-0.61,0.54-1.42,1.3l-0.23,0.21c-0.65,0.61-1.63,1.53-2.47,2.41c-0.25,0.25-0.47,0.49-0.66,0.7l-2.01,2.24V68.48
							H16.03v71.41h99.39l0.33,0.57c3.04,5.24,7.24,9.9,12.14,13.45L130.77,156.01z M3.03,153.7h120.84
							c-3.85-3.26-7.19-7.18-9.78-11.5H13.72V66.18h107.74v11.81l6.43-4.28l3.18,4.77c0.44-0.24,0.88-0.48,1.34-0.72v-39.2h-18.65
							v2.32c0,0.4-0.02,0.75-0.07,1.07c-0.6,4.66-4.82,8.46-9.41,8.46c-0.57,0-1.15-0.06-1.71-0.17c-4.35-0.89-7.76-5-7.76-9.35
							v-2.32H40.62v2.32c0,0.37-0.02,0.71-0.05,1.04c-0.56,5-5.21,8.83-10.32,8.33c-4.28-0.44-7.84-3.79-8.47-7.96
							c-0.07-0.44-0.11-0.92-0.11-1.4v-2.32H3.03V153.7z M121.46,80.31v5.38c0.47-0.46,0.92-0.88,1.28-1.22l0.23-0.21
							c0.25-0.24,0.49-0.45,0.69-0.64L121.46,80.31z M112.23,136.01H95.26v-16.45h14.62l0.05,1.1c0.18,4.06,0.94,8.07,2.24,11.93
							l0.06,0.18V136.01z M97.57,133.7h12.36v-0.55c-1.22-3.66-1.97-7.45-2.24-11.28H97.57V133.7z M88.17,136.01H71.19v-16.45h16.97
							V136.01z M73.5,133.7h12.35v-11.83H73.5V133.7z M64.17,136.01H47.19v-16.45h16.98V136.01z M49.5,133.7h12.36v-11.83H49.5
							V133.7z M110.15,113.58h-14.9V97.12h16.98v7.28l-0.06,0.18c-0.88,2.61-1.51,5.3-1.88,8L110.15,113.58z M97.57,111.27h10.58
							c0.39-2.45,0.98-4.88,1.77-7.25v-4.59H97.57V111.27z M88.17,113.58H71.19V97.12h16.97V113.58z M73.5,111.27h12.35V99.43H73.5
							V111.27z M64.17,113.58H47.19V97.12h16.98V113.58z M49.5,111.27h12.36V99.43H49.5V111.27z M40.11,113.58H23.13V97.12h16.98
							V113.58z M25.44,111.27H37.8V99.43H25.44V111.27z M112.23,91.14H95.26V74.69h16.98V91.14z M97.57,88.83h12.36V77H97.57V88.83z
							 M88.17,91.14H71.19V74.69h16.97V91.14z M73.5,88.83h12.35V77H73.5V88.83z M64.17,91.14H47.19V74.69h16.98V91.14z M49.5,88.83
							h12.36V77H49.5V88.83z M40.11,91.14H23.13V74.69h16.98V91.14z M25.44,88.83H37.8V77H25.44V88.83z M25.41,41.37
							c-0.03-0.15-0.03-0.31-0.03-0.47v-8.35h2.31l0.01,1.16v7.19c0,0.07,0,0.14,0,0.2L25.41,41.37z"/>
					</g>
					<g>
						<g>
							<path class="st1" d="M31.14,46.66c-0.18,0-0.36-0.01-0.54-0.03c-0.08-0.01-0.16-0.02-0.22-0.03
								c-0.08-0.01-0.21-0.02-0.34-0.05c-0.04-0.01-0.08-0.01-0.12-0.02l-0.06-0.01c-0.29-0.06-0.57-0.15-0.89-0.28L28.9,46.2
								c-0.14-0.06-0.27-0.12-0.4-0.18c-0.17-0.09-0.3-0.17-0.43-0.25c-0.1-0.06-0.21-0.13-0.3-0.21c-0.08-0.05-0.15-0.1-0.19-0.13
								c-0.06-0.05-0.14-0.12-0.22-0.18c-0.12-0.11-0.26-0.22-0.37-0.36c-0.24-0.25-0.45-0.51-0.63-0.78
								c-0.1-0.15-0.2-0.31-0.29-0.48c-0.11-0.21-0.2-0.39-0.27-0.57c-0.03-0.06-0.05-0.13-0.06-0.19
								c-0.03-0.07-0.05-0.14-0.08-0.21l-0.08-0.16l-0.01-0.12c0,0,0,0,0-0.01l-0.06-0.13l0-0.16c-0.01-0.06-0.02-0.11-0.03-0.17
								c-0.01-0.04-0.03-0.13-0.04-0.23c-0.02-0.09-0.03-0.18-0.03-0.27c-0.01-0.05-0.01-0.12-0.01-0.2
								c-0.01-0.11-0.01-0.21-0.01-0.33V26.5c0-3.18,2.59-5.77,5.77-5.77c1.53,0,2.98,0.6,4.08,1.68c1.1,1.1,1.7,2.55,1.7,4.09
								v14.39c0,0.2-0.01,0.39-0.03,0.59c-0.02,0.16-0.04,0.3-0.06,0.44c-0.06,0.29-0.11,0.5-0.18,0.71
								c-0.03,0.1-0.07,0.22-0.12,0.35c-0.02,0.06-0.06,0.15-0.1,0.24c-0.05,0.12-0.1,0.24-0.17,0.36l0,0.19L36,44.01
								c-0.04,0.07-0.09,0.14-0.14,0.21c-0.06,0.1-0.13,0.18-0.2,0.27c-0.47,0.6-1.08,1.11-1.79,1.48c-0.28,0.15-0.6,0.29-0.97,0.41
								c-0.33,0.11-0.69,0.18-1.07,0.22c-0.04,0.01-0.1,0.02-0.18,0.02C31.48,46.65,31.31,46.66,31.14,46.66z M30.44,44.28
								l0.41,0.05c0.2,0.02,0.38,0.02,0.58,0l0.14-0.02c0.23-0.02,0.43-0.06,0.6-0.12c0.24-0.08,0.44-0.16,0.61-0.25
								c0.38-0.2,0.71-0.46,0.99-0.78l0.39-0.57c0.02-0.03,0.04-0.06,0.05-0.09l0.1-0.21c0.03-0.06,0.04-0.11,0.07-0.16
								c0.04-0.11,0.06-0.16,0.08-0.23c0.05-0.14,0.07-0.24,0.09-0.35c0.02-0.12,0.04-0.21,0.05-0.32c0.01-0.11,0.02-0.22,0.02-0.35
								V26.5c0-0.93-0.36-1.8-1.02-2.45c-0.65-0.65-1.53-1.01-2.45-1.01c-1.91,0-3.46,1.55-3.46,3.46v14.39c0,0.04,0,0.07,0,0.11
								l0.03,0.19l-0.01,0.06l0.02,0.16c0,0.04,0.01,0.09,0.02,0.13l0.12,0.44c0.01,0.04,0.03,0.08,0.04,0.13l0.04,0.12
								c0.05,0.13,0.11,0.24,0.17,0.36c0.04,0.07,0.09,0.16,0.15,0.24c0.11,0.17,0.24,0.32,0.41,0.49c0.07,0.07,0.12,0.12,0.18,0.17
								c0.07,0.06,0.1,0.09,0.13,0.11l0.17,0.12c0.04,0.03,0.08,0.06,0.12,0.08l0.07,0.04c0.06,0.05,0.13,0.09,0.21,0.13
								c0.05,0.03,0.13,0.07,0.22,0.1l0.05,0.02c0.15,0.06,0.29,0.11,0.41,0.14h0.05L30.44,44.28z"/>
						</g>
						<g>
							<path class="st1" d="M104.41,46.66c-1.61,0-3.22-0.67-4.29-1.78c-1.81-1.88-1.72-4.63-1.64-6.83
								c0.01-0.43,0.03-0.85,0.03-1.25V26.5c0-3.18,2.59-5.77,5.77-5.77c1.55,0,2.99,0.6,4.08,1.69c1.09,1.09,1.7,2.54,1.7,4.09
								v12.87c0,1.95-0.26,4.41-2.27,6.11C106.88,46.24,105.69,46.66,104.41,46.66z M104.28,23.04c-1.91,0-3.46,1.55-3.46,3.46V36.8
								c0,0.43-0.01,0.87-0.03,1.33c-0.07,1.95-0.14,3.97,1,5.15c0.63,0.66,1.64,1.07,2.62,1.07c0.52,0,1.26-0.11,1.89-0.64
								c1.03-0.87,1.45-2.13,1.45-4.34V26.5c0-0.93-0.36-1.8-1.02-2.45C106.08,23.4,105.21,23.04,104.28,23.04z"/>
						</g>
					</g>
				</g>
				<g>
					<g>
						<rect x="24.28" y="75.84" class="st2" width="14.67" height="14.14"/>
					</g>
					<g>
						<rect x="48.35" y="75.84" class="st2" width="14.67" height="14.14"/>
					</g>
					<g>
						<rect x="24.28" y="98.28" class="st2" width="14.67" height="14.15"/>
					</g>
					<g>
						<rect x="48.35" y="98.28" class="st2" width="14.67" height="14.15"/>
					</g>
					<g>
						<rect x="48.35" y="120.72" class="st2" width="14.67" height="14.14"/>
					</g>
				</g>
				<g>
					<g>
						<path class="st1" d="M40.11,91.14H23.13V74.69h16.98V91.14z M25.44,88.83H37.8V77H25.44V88.83z"/>
					</g>
					<g>
						<path class="st1" d="M64.17,91.14H47.19V74.69h16.98V91.14z M49.5,88.83h12.36V77H49.5V88.83z"/>
					</g>
					<g>
						<path class="st1" d="M40.11,113.58H23.13V97.12h16.98V113.58z M25.44,111.27H37.8V99.43H25.44V111.27z"/>
					</g>
					<g>
						<path class="st1" d="M64.17,113.58H47.19V97.12h16.98V113.58z M49.5,111.27h12.36V99.43H49.5V111.27z"/>
					</g>
					<g>
						<path class="st1" d="M64.17,136.01H47.19v-16.45h16.98V136.01z M49.5,133.7h12.36v-11.83H49.5V133.7z"/>
					</g>
					<g>
						<rect x="72.35" y="75.84" class="st2" width="14.66" height="14.14"/>
					</g>
					<g>
						<rect x="96.41" y="75.84" class="st2" width="14.66" height="14.14"/>
					</g>
					<g>
						<rect x="72.35" y="98.28" class="st2" width="14.66" height="14.15"/>
					</g>
					<g>
						<path class="st2" d="M111.08,98.28v5.94c-0.89,2.64-1.55,5.38-1.93,8.22H96.41V98.28H111.08z"/>
					</g>
					<g>
						<rect x="72.35" y="120.72" class="st2" width="14.66" height="14.14"/>
					</g>
					<g>
						<path class="st2" d="M111.08,132.97v1.89H96.41v-14.14h12.36C108.97,124.98,109.77,129.09,111.08,132.97z"/>
					</g>
					<g>
						<path class="st1" d="M88.17,91.14H71.19V74.69h16.97V91.14z M73.5,88.83h12.35V77H73.5V88.83z"/>
					</g>
					<g>
						<path class="st1" d="M112.23,91.14H95.26V74.69h16.98V91.14z M97.57,88.83h12.36V77H97.57V88.83z"/>
					</g>
					<g>
						<path class="st1" d="M88.17,113.58H71.19V97.12h16.97V113.58z M73.5,111.27h12.35V99.43H73.5V111.27z"/>
					</g>
					<g>
						<path class="st1" d="M110.15,113.58h-14.9V97.12h16.98v7.28l-0.06,0.18c-0.88,2.61-1.51,5.3-1.88,8L110.15,113.58z
							 M97.57,111.27h10.58c0.39-2.45,0.98-4.88,1.77-7.25v-4.59H97.57V111.27z"/>
					</g>
					<g>
						<path class="st1" d="M88.17,136.01H71.19v-16.45h16.97V136.01z M73.5,133.7h12.35v-11.83H73.5V133.7z"/>
					</g>
					<g>
						<path class="st1" d="M112.23,136.01H95.26v-16.45h14.62l0.05,1.1c0.18,4.06,0.94,8.07,2.24,11.93l0.06,0.18V136.01z
							 M97.57,133.7h12.36v-0.55c-1.22-3.66-1.97-7.45-2.24-11.28H97.57V133.7z"/>
					</g>
				</g>
			</g>
			<g>
				<path class="st1" d="M40.11,91.14H23.13V74.69h16.98V91.14z M25.44,88.83H37.8V77H25.44V88.83z"/>
			</g>
			<g>
				<path class="st1" d="M40.11,113.58H23.13V97.12h16.98V113.58z M25.44,111.27H37.8V99.43H25.44V111.27z"/>
			</g>
			<g>
				<path class="st1" d="M64.17,91.14H47.19V74.69h16.98V91.14z M49.5,88.83h12.36V77H49.5V88.83z"/>
			</g>
			<g>
				<path class="st1" d="M64.17,113.58H47.19V97.12h16.98V113.58z M49.5,111.27h12.36V99.43H49.5V111.27z"/>
			</g>
			<g>
				<path class="st1" d="M64.17,136.01H47.19v-16.45h16.98V136.01z M49.5,133.7h12.36v-11.83H49.5V133.7z"/>
			</g>
			<g>
				<path class="st1" d="M88.17,91.14H71.19V74.69h16.97V91.14z M73.5,88.83h12.35V77H73.5V88.83z"/>
			</g>
			<g>
				<path class="st1" d="M88.17,113.58H71.19V97.12h16.97V113.58z M73.5,111.27h12.35V99.43H73.5V111.27z"/>
			</g>
			<g>
				<path class="st1" d="M88.17,136.01H71.19v-16.45h16.97V136.01z M73.5,133.7h12.35v-11.83H73.5V133.7z"/>
			</g>
			<g>
				<path class="st1" d="M112.23,91.14H95.26V74.69h16.98V91.14z M97.57,88.83h12.36V77H97.57V88.83z"/>
			</g>
			<g>
				<path class="st1" d="M110.15,113.58h-14.9V97.12h16.98v7.28l-0.06,0.18c-0.88,2.61-1.51,5.3-1.88,8L110.15,113.58z
					 M97.57,111.27h10.58c0.39-2.45,0.98-4.88,1.77-7.25v-4.59H97.57V111.27z"/>
			</g>
			<g>
				<path class="st1" d="M112.23,136.01H95.26v-16.45h14.62l0.05,1.1c0.18,4.06,0.94,8.07,2.24,11.93l0.06,0.18V136.01z
					 M97.57,133.7h12.36v-0.55c-1.22-3.66-1.97-7.45-2.24-11.28H97.57V133.7z"/>
			</g>
		</g>
		<g>
			<path class="st0" d="M133.79,158.83v21.48H1.87v-25.45h125.34C129.28,156.36,131.48,157.69,133.79,158.83z"/>
		</g>
		<g>
			<path class="st1" d="M134.95,181.46H0.72V153.7h126.87l0.31,0.22c2.01,1.46,4.16,2.77,6.41,3.87l0.65,0.32V181.46z M3.03,179.15
				h129.61v-19.61c-2.02-1.04-3.97-2.22-5.8-3.53H3.03V179.15z"/>
		</g>
		<g>
			<rect x="38.98" y="162.53" class="st1" width="79.79" height="2.31"/>
		</g>
		<g>
			<path class="st1" d="M96.71,172.06H94.4v-2.31h2.31V172.06z M92.09,172.06h-2.31v-2.31h2.31V172.06z M87.48,172.06h-2.31v-2.31
				h2.31V172.06z M82.86,172.06h-2.31v-2.31h2.31V172.06z M78.24,172.06h-2.31v-2.31h2.31V172.06z M73.62,172.06h-2.31v-2.31h2.31
				V172.06z M69,172.06h-2.31v-2.31H69V172.06z M64.38,172.06h-2.31v-2.31h2.31V172.06z M59.76,172.06h-2.31v-2.31h2.31V172.06z
				 M55.14,172.06h-2.31v-2.31h2.31V172.06z M50.52,172.06h-2.31v-2.31h2.31V172.06z M45.91,172.06H43.6v-2.31h2.31V172.06z
				 M41.29,172.06h-2.31v-2.31h2.31V172.06z"/>
		</g>
		<g>
			<polygon class="st2" points="31.62,118.83 34.22,124.3 40.22,125.08 35.83,129.25 36.94,135.2 31.62,132.31 26.3,135.2 
				27.41,129.25 23.02,125.08 29.01,124.3 			"/>
		</g>
		<g>
			<path class="st1" d="M38.51,137.37l-6.89-3.74l-6.89,3.74l1.43-7.71l-5.69-5.4l7.78-1.02l3.38-7.08l3.38,7.08l7.78,1.02
				l-5.69,5.4L38.51,137.37z M31.62,131l3.74,2.03l-0.78-4.18l3.09-2.93l-4.22-0.55l-1.83-3.84l-1.83,3.84l-4.22,0.55l3.09,2.93
				l-0.78,4.18L31.62,131z"/>
		</g>
		<g>
			<polygon class="st2" points="20.14,160.46 22.09,164.54 26.57,165.13 23.29,168.24 24.12,172.69 20.14,170.53 16.17,172.69 
				17,168.24 13.72,165.13 18.2,164.54 			"/>
		</g>
		<g>
			<path class="st1" d="M25.69,174.86l-5.55-3.01l-5.55,3.01l1.15-6.21l-4.58-4.35l6.26-0.82l2.72-5.7l2.72,5.7l6.26,0.82
				l-4.58,4.35L25.69,174.86z M16.27,165.96l1.98,1.88l-0.5,2.68l2.4-1.3l2.39,1.3l-0.49-2.68l1.98-1.88l-2.7-0.36l-1.17-2.46
				l-1.17,2.46L16.27,165.96z"/>
		</g>
	</g>
	<g>
		<g>
			<path class="st1" d="M153.53,164.56c-25.34,0-45.96-20.62-45.96-45.97c0-25.34,20.62-45.96,45.96-45.96
				c25.35,0,45.97,20.62,45.97,45.96C199.5,143.94,178.88,164.56,153.53,164.56z M153.53,74.94c-24.07,0-43.66,19.58-43.66,43.65
				c0,24.08,19.58,43.66,43.66,43.66c24.07,0,43.66-19.59,43.66-43.66C197.19,94.52,177.61,74.94,153.53,74.94z M153.53,151.43
				c-18.1,0-32.83-14.73-32.83-32.84c0-18.1,14.73-32.83,32.83-32.83c18.11,0,32.84,14.73,32.84,32.83
				C186.37,136.69,171.64,151.43,153.53,151.43z M153.53,88.07c-16.83,0-30.52,13.69-30.52,30.52c0,16.83,13.69,30.53,30.52,30.53
				c16.83,0,30.53-13.69,30.53-30.53C184.06,101.76,170.36,88.07,153.53,88.07z"/>
		</g>
		<g>
			<path class="st2" d="M153.53,159.1c-22.33,0-40.5-18.17-40.5-40.51c0-22.33,18.17-40.49,40.5-40.49
				c22.34,0,40.51,18.16,40.51,40.49C194.04,140.92,175.87,159.1,153.53,159.1z M153.53,82.61c-19.84,0-35.98,16.14-35.98,35.98
				c0,19.85,16.14,35.99,35.98,35.99c19.85,0,35.99-16.15,35.99-35.99C189.52,98.75,173.38,82.61,153.53,82.61z"/>
		</g>
		<g>
			<path class="st1" d="M157.71,74.94h-8.35V62.21h8.35V74.94z M151.67,72.62h3.73v-8.11h-3.73V72.62z"/>
		</g>
		<g>
			<path class="st1" d="M166.85,64.52h-26.62V51.98h26.62V64.52z M142.53,62.21h22v-7.91h-22V62.21z"/>
		</g>
		<g>
			<rect x="145.23" y="56.99" class="st2" width="16.62" height="2.53"/>
		</g>
		<g>
			<path class="st1" d="M153.54,74.94c-11.57,0-20.98-9.41-20.98-20.98c0-11.56,9.41-20.97,20.98-20.97
				c11.56,0,20.97,9.41,20.97,20.97C174.51,65.53,165.1,74.94,153.54,74.94z M153.54,35.29c-10.29,0-18.67,8.37-18.67,18.66
				c0,10.29,8.37,18.67,18.67,18.67c10.29,0,18.66-8.37,18.66-18.67C172.2,43.67,163.83,35.29,153.54,35.29z"/>
		</g>
		<g>
			<path class="st3" d="M177.74,118.59h-3.37c0,0-20.37-3.85-20.83-3.85h-0.01V94.3C153.53,94.3,173.35,95.52,177.74,118.59z"/>
		</g>
		<g>
			<path class="st1" d="M153.54,123.61c-2.76,0-5.01-2.25-5.01-5.01c0-2.77,2.25-5.01,5.01-5.01c0.14,0,0.57,0,21.05,3.88l5.99,1.14
				l-5.99,1.14C154.1,123.61,153.68,123.61,153.54,123.61z M153.48,115.89c-1.47,0.03-2.65,1.23-2.65,2.7c0,1.47,1.18,2.68,2.65,2.7
				c0.8-0.11,7.89-1.43,14.66-2.71C161.37,117.31,154.28,116,153.48,115.89z"/>
		</g>
		<g>
			<rect x="152.38" y="86.91" class="st1" width="2.31" height="7.39"/>
		</g>
		<g>
			<rect x="152.38" y="142.94" class="st1" width="2.31" height="7.38"/>
		</g>
		<g>
			<rect x="177.85" y="117.46" class="st1" width="7.39" height="2.31"/>
		</g>
		<g>
			<rect x="121.83" y="117.46" class="st1" width="7.39" height="2.31"/>
		</g>
		<g>
			
				<rect x="172.18" y="134.73" transform="matrix(0.707 -0.7072 0.7072 0.707 -47.108 163.1436)" class="st1" width="2.31" height="7.39"/>
		</g>
		<g>
			
				<rect x="132.57" y="95.12" transform="matrix(0.7072 -0.707 0.707 0.7072 -30.7066 123.4761)" class="st1" width="2.31" height="7.39"/>
		</g>
		<g>
			
				<rect x="130.03" y="137.27" transform="matrix(0.7075 -0.7068 0.7068 0.7075 -58.7123 135.0055)" class="st1" width="7.39" height="2.31"/>
		</g>
		<g>
			
				<rect x="169.65" y="97.63" transform="matrix(0.7075 -0.7068 0.7068 0.7075 -19.1043 151.4109)" class="st1" width="7.39" height="2.31"/>
		</g>
	</g>
	<g>
		<g>
			<polygon class="st1" points="130.33,97.04 130.32,97.03 131.91,95.36 			"/>
		</g>
	</g>
</g>
</svg>
