<?xml version="1.0" encoding="utf-8"?>
<!-- Generator: Adobe Illustrator 23.0.3, SVG Export Plug-In . SVG Version: 6.00 Build 0)  -->
<svg version="1.1" id="图层_1" xmlns="http://www.w3.org/2000/svg" xmlns:xlink="http://www.w3.org/1999/xlink" x="0px" y="0px"
	 viewBox="0 0 200 200" style="enable-background:new 0 0 200 200;" xml:space="preserve">
<style type="text/css">
	.st0{fill:#495460;}
	.st1{fill:#7ECCE2;}
	.st2{fill:#F19169;}
	.st3{fill:#FEDB43;}
</style>
<g>
	<g>
		<g>
			<path class="st0" d="M166.48,163.8H33.52c-5.71,0-10.36-4.65-10.36-10.36V63.47c0-5.71,4.65-10.36,10.36-10.36h132.96
				c5.71,0,10.36,4.65,10.36,10.36v89.96C176.84,159.15,172.19,163.8,166.48,163.8z M33.52,55.44c-4.44,0-8.04,3.61-8.04,8.04v89.96
				c0,4.43,3.6,8.04,8.04,8.04h132.96c4.43,0,8.04-3.61,8.04-8.04V63.47c0-4.43-3.61-8.04-8.04-8.04H33.52z M164.85,152.12H35.16
				V65.7h129.69V152.12z M37.48,149.8h125.05V68.02H37.48V149.8z"/>
		</g>
		<g>
			<path class="st1" d="M33.52,158.77c-2.94,0-5.33-2.39-5.33-5.33V63.47c0-2.94,2.39-5.33,5.33-5.33h132.96
				c2.94,0,5.33,2.39,5.33,5.33v89.96c0,2.94-2.39,5.33-5.33,5.33H33.52z M32.45,154.83h135.1V63H32.45V154.83z"/>
		</g>
		<g>
			<path class="st0" d="M180.27,181.78H19.73c-7.11,0-12.9-5.78-12.9-12.89v-7.4h186.33v7.4
				C193.16,175.99,187.38,181.78,180.27,181.78z M9.16,163.8v5.08c0,5.83,4.74,10.57,10.57,10.57h160.54
				c5.83,0,10.57-4.74,10.57-10.57v-5.08H9.16z"/>
		</g>
		<g>
			<path class="st1" d="M188.14,166.51v2.38c0,4.34-3.53,7.87-7.87,7.87H19.73c-4.33,0-7.86-3.53-7.86-7.87v-2.38h71.12
				c1.42,2.82,4.33,4.74,7.68,4.74h13.36c2.38,0,4.53-0.96,6.08-2.51c0.65-0.65,1.19-1.39,1.6-2.22H188.14z"/>
		</g>
		<g>
			<rect y="179.46" class="st0" width="200" height="2.32"/>
		</g>
		<g>
			<path class="st0" d="M104.04,172.41H90.67c-5.38,0-9.76-4.38-9.76-9.77v-1.16h32.89v1.16
				C113.8,168.03,109.42,172.41,104.04,172.41z M83.32,163.8c0.56,3.55,3.64,6.28,7.35,6.28h13.37c3.71,0,6.79-2.73,7.35-6.28H83.32
				z"/>
		</g>
		<g>
			<path class="st0" d="M164.85,80.07H35.16V65.7h129.69V80.07z M37.48,77.75h125.05v-9.72H37.48V77.75z"/>
		</g>
		<g>
			<path class="st0" d="M44.33,76.35c-2.04,0-3.71-1.66-3.71-3.71c0-2.05,1.67-3.71,3.71-3.71c2.05,0,3.71,1.66,3.71,3.71
				C48.04,74.68,46.37,76.35,44.33,76.35z M44.33,71.24c-0.77,0-1.39,0.63-1.39,1.39c0,0.76,0.62,1.39,1.39,1.39
				c0.77,0,1.39-0.62,1.39-1.39C45.72,71.87,45.09,71.24,44.33,71.24z"/>
		</g>
		<g>
			<path class="st0" d="M52.73,76.35c-2.05,0-3.71-1.66-3.71-3.71c0-2.05,1.66-3.71,3.71-3.71c2.05,0,3.71,1.66,3.71,3.71
				C56.44,74.68,54.78,76.35,52.73,76.35z M52.73,71.24c-0.76,0-1.39,0.63-1.39,1.39c0,0.76,0.62,1.39,1.39,1.39
				c0.76,0,1.39-0.62,1.39-1.39C54.12,71.87,53.5,71.24,52.73,71.24z"/>
		</g>
		<g>
			<path class="st0" d="M61.14,76.35c-2.05,0-3.71-1.66-3.71-3.71c0-2.05,1.66-3.71,3.71-3.71c2.05,0,3.71,1.66,3.71,3.71
				C64.85,74.68,63.18,76.35,61.14,76.35z M61.14,71.24c-0.77,0-1.39,0.63-1.39,1.39c0,0.76,0.62,1.39,1.39,1.39
				c0.77,0,1.39-0.62,1.39-1.39C62.53,71.87,61.9,71.24,61.14,71.24z"/>
		</g>
		<g>
			<path class="st0" d="M99.3,141.47H44.94V87.8H99.3V141.47z M47.26,139.15h49.72V90.13H47.26V139.15z"/>
		</g>
		<g>
			<rect x="49.97" y="92.83" class="st2" width="44.31" height="43.61"/>
		</g>
		<g>
			<path class="st0" d="M155.62,99.45h-49.96V87.8h49.96V99.45z M107.98,97.13h45.31v-7h-45.31V97.13z"/>
		</g>
		<g>
			<rect x="110.69" y="92.83" class="st3" width="39.9" height="1.59"/>
		</g>
		<g>
			<path class="st0" d="M154.8,109.47h-2.32v-2.32h2.32V109.47z M150.15,109.47h-2.32v-2.32h2.32V109.47z M145.51,109.47h-2.32
				v-2.32h2.32V109.47z M140.87,109.47h-2.32v-2.32h2.32V109.47z M136.23,109.47h-2.32v-2.32h2.32V109.47z M131.58,109.47h-2.32
				v-2.32h2.32V109.47z M126.94,109.47h-2.32v-2.32h2.32V109.47z M122.3,109.47h-2.32v-2.32h2.32V109.47z M117.66,109.47h-2.32
				v-2.32h2.32V109.47z M113.01,109.47h-2.32v-2.32h2.32V109.47z M108.37,109.47h-2.32v-2.32h2.32V109.47z"/>
		</g>
		<g>
			<path class="st0" d="M154.8,117.35h-2.32v-2.32h2.32V117.35z M150.15,117.35h-2.32v-2.32h2.32V117.35z M145.51,117.35h-2.32
				v-2.32h2.32V117.35z M140.87,117.35h-2.32v-2.32h2.32V117.35z M136.23,117.35h-2.32v-2.32h2.32V117.35z M131.58,117.35h-2.32
				v-2.32h2.32V117.35z M126.94,117.35h-2.32v-2.32h2.32V117.35z M122.3,117.35h-2.32v-2.32h2.32V117.35z M117.66,117.35h-2.32
				v-2.32h2.32V117.35z M113.01,117.35h-2.32v-2.32h2.32V117.35z M108.37,117.35h-2.32v-2.32h2.32V117.35z"/>
		</g>
		<g>
			<rect x="106.05" y="126" class="st0" width="46.38" height="2.32"/>
		</g>
		<g>
			<rect x="106.05" y="133.87" class="st0" width="33.53" height="2.32"/>
		</g>
	</g>
	<g>
		<g>
			<rect x="99.05" y="18.3" class="st0" width="2.32" height="20.34"/>
		</g>
		<g>
			
				<rect x="122.86" y="32.46" transform="matrix(0.3918 -0.9201 0.9201 0.3918 49.9801 142.851)" class="st0" width="20.34" height="2.32"/>
		</g>
		<g>
			
				<rect x="65.8" y="23.45" transform="matrix(0.9202 -0.3914 0.3914 0.9202 -7.8182 28.8942)" class="st0" width="2.32" height="20.34"/>
		</g>
	</g>
</g>
</svg>
