<?xml version="1.0" encoding="utf-8"?>
<!-- Generator: Adobe Illustrator 23.0.3, SVG Export Plug-In . SVG Version: 6.00 Build 0)  -->
<svg version="1.1" id="图层_1" xmlns="http://www.w3.org/2000/svg" xmlns:xlink="http://www.w3.org/1999/xlink" x="0px" y="0px"
	 viewBox="0 0 200 200" style="enable-background:new 0 0 200 200;" xml:space="preserve">
<style type="text/css">
	.st0{fill:#495460;}
	.st1{fill:#FEDB43;}
	.st2{fill:#F19169;}
	.st3{fill:#7ECCE2;}
</style>
<g>
	<g>
		<path class="st0" d="M150.37,195.4H0.22V0h150.15v88.85l-2.24-3c-1.48-1.99-3.14-3.89-4.93-5.64
			c-9.14-8.92-21.3-13.84-34.24-13.84c-1.25,0-2.51,0.04-3.76,0.14c-10.04,0.74-19.8,4.65-27.49,11.02
			c-10.76,8.93-16.99,21.93-17.09,35.68c-0.1,13.74,5.92,26.82,16.53,35.89c7.39,6.33,16.81,10.37,26.51,11.38
			c1.77,0.19,3.56,0.28,5.33,0.28c9.18,0,18.11-2.52,25.82-7.29l7.08-4.58l8.47,19.25V195.4z M2.7,192.92h145.19v-24.25l-7.09-16.11
			l-4.66,3.01c-8.12,5.03-17.5,7.68-27.15,7.68c0,0,0,0,0,0c-1.85,0-3.73-0.1-5.59-0.3c-10.2-1.06-20.09-5.31-27.87-11.96
			c-11.16-9.54-17.5-23.32-17.39-37.79c0.11-14.48,6.66-28.17,17.99-37.57c8.08-6.7,18.34-10.81,28.89-11.59
			c1.31-0.09,2.64-0.14,3.94-0.14c13.59,0,26.36,5.16,35.97,14.54c1.03,1.01,2.01,2.06,2.95,3.14V2.48H2.7V192.92z"/>
	</g>
	<g>
		
			<rect x="53.21" y="145.19" transform="matrix(0.7582 -0.6521 0.6521 0.7582 -84.2594 71.641)" class="st0" width="2.48" height="8.44"/>
	</g>
	<g>
		
			<rect x="64.32" y="148.39" transform="matrix(0.6924 -0.7215 0.7215 0.6924 -86.7183 95.8466)" class="st0" width="9.47" height="2.48"/>
	</g>
	<g>
		
			<rect x="22.35" y="153.16" transform="matrix(0.7336 -0.6795 0.6795 0.7336 -95.6001 64.9061)" class="st0" width="25.3" height="2.48"/>
	</g>
	<g>
		<path class="st0" d="M48.04,77.17c-16.48,0-29.88-13.4-29.88-29.88c0-16.47,13.4-29.88,29.88-29.88
			c16.47,0,29.88,13.4,29.88,29.88C77.92,63.76,64.51,77.17,48.04,77.17z M48.04,19.88c-15.11,0-27.4,12.29-27.4,27.4
			c0,15.11,12.29,27.4,27.4,27.4s27.4-12.29,27.4-27.4C75.44,32.18,63.15,19.88,48.04,19.88z"/>
	</g>
	<g>
		<path class="st1" d="M43.58,23.63c-11.16,2.1-19.63,11.9-19.63,23.65s8.47,21.56,19.63,23.66V23.63z"/>
	</g>
	<g>
		<path class="st0" d="M48.04,77.16H46.8V17.41h1.24c16.47,0,29.88,13.4,29.88,29.88c0,7.32-2.67,14.35-7.53,19.82
			C64.73,73.5,56.59,77.16,48.04,77.16z M49.28,19.92v54.74c7.38-0.33,14.34-3.65,19.25-9.19c4.45-5.02,6.91-11.47,6.91-18.18
			C75.44,32.6,63.81,20.57,49.28,19.92z"/>
	</g>
	<g>
		<rect x="94.46" y="24.65" class="st0" width="36.88" height="2.48"/>
	</g>
	<g>
		<rect x="94.46" y="34.16" class="st0" width="36.88" height="2.48"/>
	</g>
	<g>
		<path class="st0" d="M131.33,51.69h-2.16v-2.48h2.16V51.69z M126.69,51.69h-2.48v-2.48h2.48V51.69z M121.73,51.69h-2.48v-2.48
			h2.48V51.69z M116.77,51.69h-2.48v-2.48h2.48V51.69z M111.81,51.69h-2.48v-2.48h2.48V51.69z M106.85,51.69h-2.48v-2.48h2.48V51.69
			z M101.89,51.69h-2.48v-2.48h2.48V51.69z M96.94,51.69h-2.48v-2.48h2.48V51.69z"/>
	</g>
	<g>
		<path class="st0" d="M131.33,60.93h-2.16v-2.48h2.16V60.93z M126.69,60.93h-2.48v-2.48h2.48V60.93z M121.73,60.93h-2.48v-2.48
			h2.48V60.93z M116.77,60.93h-2.48v-2.48h2.48V60.93z M111.81,60.93h-2.48v-2.48h2.48V60.93z M106.85,60.93h-2.48v-2.48h2.48V60.93
			z M101.89,60.93h-2.48v-2.48h2.48V60.93z M96.94,60.93h-2.48v-2.48h2.48V60.93z"/>
	</g>
	<g>
		<path class="st0" d="M48.04,77.16H46.8V44.53l24.41,21.65l-0.82,0.92C64.73,73.5,56.59,77.16,48.04,77.16z M49.28,50.04v24.61
			c6.97-0.32,13.56-3.28,18.41-8.28L49.28,50.04z"/>
	</g>
	<g>
		<path class="st2" d="M52.59,57.41l10.12,8.98c-2.97,2.28-6.44,3.85-10.12,4.55V57.41z"/>
	</g>
	<g>
		<path class="st0" d="M69.56,68.03L46.8,47.85V17.41h1.24c16.47,0,29.88,13.4,29.88,29.88c0,7.32-2.67,14.35-7.53,19.82
			L69.56,68.03z M49.28,46.73l20.05,17.79c3.95-4.86,6.1-10.94,6.1-17.23c0-14.69-11.62-26.72-26.16-27.37V46.73z"/>
	</g>
	<g>
		<path class="st3" d="M52.59,45.24V23.63c11.11,2.13,19.53,11.93,19.53,23.66c0,4.36-1.18,8.59-3.37,12.28L52.59,45.24z"/>
	</g>
	<g>
		<path class="st0" d="M48.2,148.76c-3.65,0-6.62-2.97-6.62-6.61c0-3.65,2.97-6.61,6.62-6.61c3.65,0,6.62,2.96,6.62,6.61
			C54.82,145.8,51.85,148.76,48.2,148.76z M48.2,138.01c-2.28,0-4.14,1.86-4.14,4.14c0,2.28,1.86,4.14,4.14,4.14
			c2.28,0,4.14-1.86,4.14-4.14C52.34,139.87,50.48,138.01,48.2,138.01z"/>
	</g>
	<g>
		<path class="st0" d="M61.32,162.68c-3.65,0-6.62-2.97-6.62-6.62c0-3.65,2.97-6.62,6.62-6.62c3.65,0,6.62,2.97,6.62,6.62
			C67.94,159.71,64.97,162.68,61.32,162.68z M61.32,151.92c-2.28,0-4.14,1.86-4.14,4.14c0,2.28,1.86,4.14,4.14,4.14
			c2.28,0,4.14-1.86,4.14-4.14C65.46,153.78,63.6,151.92,61.32,151.92z"/>
	</g>
	<g>
		<g>
			<g>
				<g>
					<path class="st0" d="M110.26,155.95l-0.07-2.48c0.8-0.02,1.61-0.07,2.4-0.14l0.21,2.47
						C111.96,155.87,111.1,155.92,110.26,155.95z M107.71,155.95c-0.84-0.02-1.7-0.07-2.55-0.14l0.21-2.47
						c0.8,0.07,1.61,0.11,2.41,0.14L107.71,155.95z M115.33,155.51l-0.35-2.45c0.79-0.11,1.59-0.25,2.37-0.41l0.49,2.43
						C117.02,155.25,116.17,155.39,115.33,155.51z M102.63,155.51c-0.83-0.12-1.68-0.26-2.51-0.43l0.49-2.43
						c0.79,0.16,1.58,0.3,2.37,0.41L102.63,155.51z M120.33,154.5l-0.63-2.4c0.77-0.2,1.55-0.43,2.31-0.68l0.77,2.36
						C121.97,154.04,121.15,154.28,120.33,154.5z M97.63,154.5c-0.82-0.22-1.64-0.46-2.45-0.72l0.77-2.36
						c0.76,0.25,1.53,0.47,2.31,0.68L97.63,154.5z M125.18,152.91l-0.9-2.3c0.74-0.29,1.49-0.61,2.21-0.95l1.04,2.25
						C126.76,152.27,125.97,152.61,125.18,152.91z M92.79,152.91c-0.79-0.31-1.58-0.64-2.35-1l1.04-2.25
						c0.72,0.33,1.47,0.65,2.21,0.95L92.79,152.91z M129.81,150.78l-1.17-2.19c0.7-0.37,1.41-0.78,2.09-1.2l1.29,2.11
						C131.3,149.95,130.56,150.38,129.81,150.78z M88.16,150.78c-0.75-0.4-1.49-0.83-2.21-1.27l1.3-2.11
						c0.68,0.42,1.38,0.82,2.09,1.2L88.16,150.78z M134.16,148.12l-1.42-2.04c0.66-0.46,1.31-0.94,1.93-1.43l1.53,1.95
						C135.55,147.12,134.86,147.63,134.16,148.12z M83.81,148.11c-0.7-0.49-1.39-0.99-2.05-1.52l1.53-1.95
						c0.62,0.49,1.27,0.97,1.93,1.43L83.81,148.11z M79.8,144.96c-0.51-0.45-1.01-0.92-1.51-1.4l-0.35-0.35l1.75-1.75l0.33,0.32
						c0.47,0.46,0.94,0.9,1.42,1.33L79.8,144.96z M138.17,144.95l-1.65-1.85c0.48-0.43,0.95-0.86,1.41-1.31l0.34-0.34l1.75,1.76
						l-0.36,0.36C139.18,144.04,138.68,144.51,138.17,144.95z M76.2,141.35c-0.57-0.64-1.12-1.3-1.64-1.96l1.95-1.53
						c0.49,0.63,1.01,1.25,1.54,1.84L76.2,141.35z M141.78,141.35l-1.85-1.65c0.54-0.6,1.06-1.22,1.55-1.85l1.95,1.54
						C142.9,140.05,142.35,140.71,141.78,141.35z M73.03,137.34c-0.48-0.69-0.95-1.41-1.39-2.14l2.12-1.29
						c0.42,0.69,0.86,1.36,1.31,2.01L73.03,137.34z M144.94,137.34l-2.04-1.42c0.46-0.65,0.9-1.33,1.31-2.01l2.12,1.29
						C145.89,135.92,145.42,136.64,144.94,137.34z M147.59,132.98l-2.19-1.16c0.37-0.71,0.73-1.43,1.05-2.16l2.26,1.02
						C148.36,131.46,147.98,132.23,147.59,132.98z M70.38,132.98c-0.4-0.75-0.77-1.53-1.12-2.3l2.26-1.02
						c0.33,0.73,0.68,1.45,1.06,2.16L70.38,132.98z M149.69,128.32l-2.32-0.88c0.28-0.75,0.55-1.51,0.78-2.27l2.37,0.73
						C150.27,126.72,149.99,127.53,149.69,128.32z M68.28,128.32c-0.3-0.79-0.58-1.61-0.83-2.42l2.37-0.74
						c0.24,0.77,0.5,1.53,0.78,2.27L68.28,128.32z M151.2,123.45l-2.41-0.58c0.19-0.77,0.36-1.57,0.5-2.35l2.44,0.44
						C151.58,121.78,151.4,122.63,151.2,123.45z M66.76,123.44c-0.2-0.83-0.38-1.67-0.53-2.5l2.44-0.44
						c0.14,0.78,0.31,1.57,0.5,2.35L66.76,123.44z M152.11,118.42l-2.46-0.29c0.09-0.79,0.16-1.6,0.21-2.39l2.48,0.14
						C152.28,116.73,152.21,117.58,152.11,118.42z M65.85,118.42c-0.1-0.84-0.17-1.7-0.22-2.54l2.48-0.14
						c0.04,0.8,0.11,1.6,0.21,2.39L65.85,118.42z M149.91,113.34c0-0.8-0.03-1.61-0.09-2.4l2.47-0.17c0.06,0.85,0.09,1.71,0.09,2.55
						L149.91,113.34z M68.05,113.33l-2.48-0.01c0.01-0.85,0.04-1.71,0.09-2.55l2.47,0.17C68.09,111.73,68.06,112.53,68.05,113.33z
						 M149.59,108.55c-0.1-0.79-0.23-1.59-0.38-2.37l2.43-0.47c0.16,0.84,0.3,1.68,0.4,2.52L149.59,108.55z M68.37,108.54
						l-2.46-0.32c0.11-0.84,0.24-1.69,0.4-2.52l2.44,0.47C68.6,106.95,68.47,107.74,68.37,108.54z M148.68,103.83
						c-0.2-0.77-0.42-1.55-0.67-2.31l2.36-0.76c0.26,0.81,0.5,1.63,0.71,2.45L148.68,103.83z M69.28,103.82l-2.4-0.62
						c0.21-0.82,0.45-1.64,0.71-2.45l2.36,0.76C69.7,102.27,69.48,103.05,69.28,103.82z M147.2,99.26
						c-0.29-0.75-0.61-1.49-0.95-2.21L148.5,96c0.36,0.77,0.7,1.56,1.01,2.35L147.2,99.26z M70.76,99.25l-2.31-0.91
						c0.31-0.79,0.65-1.58,1.01-2.34l2.25,1.05C71.37,97.77,71.05,98.51,70.76,99.25z M145.17,94.9c-0.38-0.7-0.79-1.4-1.21-2.08
						l2.1-1.31c0.45,0.72,0.88,1.46,1.29,2.21L145.17,94.9z M72.78,94.9l-2.18-1.18c0.4-0.75,0.84-1.49,1.29-2.21l2.1,1.31
						C73.57,93.5,73.16,94.2,72.78,94.9z M75.33,90.83l-2.02-1.44c0.49-0.69,1.01-1.38,1.54-2.04l1.93,1.56
						C76.28,89.53,75.79,90.18,75.33,90.83z M142.63,90.83c-0.47-0.65-0.95-1.3-1.45-1.91l1.93-1.56c0.53,0.66,1.05,1.34,1.55,2.03
						L142.63,90.83z M78.34,87.09l-1.83-1.67c0.57-0.63,1.17-1.24,1.77-1.84l1.73,1.78C79.44,85.91,78.88,86.5,78.34,87.09z
						 M139.61,87.08c-0.53-0.58-1.1-1.17-1.67-1.73l1.73-1.77c0.61,0.59,1.21,1.21,1.77,1.84L139.61,87.08z M136.86,84.34
						c-0.59-0.54-1.21-1.06-1.83-1.56l1.56-1.93c0.66,0.53,1.31,1.09,1.94,1.66L136.86,84.34z M81.79,83.73l-1.63-1.87
						c0.64-0.56,1.3-1.1,1.98-1.61l1.51,1.96C83.02,82.69,82.39,83.2,81.79,83.73z M133.11,81.32c-0.65-0.46-1.32-0.92-2-1.34
						l1.32-2.1c0.72,0.45,1.43,0.93,2.12,1.42L133.11,81.32z M85.6,80.79l-1.39-2.05c0.7-0.48,1.43-0.94,2.15-1.37l1.27,2.13
						C86.94,79.9,86.26,80.34,85.6,80.79z M129.04,78.76c-0.7-0.38-1.42-0.75-2.14-1.09l1.06-2.24c0.77,0.36,1.53,0.75,2.27,1.16
						L129.04,78.76z M89.73,78.32l-1.14-2.2c0.75-0.39,1.52-0.76,2.3-1.11l1.01,2.26C91.16,77.6,90.44,77.95,89.73,78.32z
						 M124.7,76.69c-0.74-0.3-1.5-0.58-2.25-0.84l0.8-2.35c0.8,0.27,1.6,0.57,2.39,0.89L124.7,76.69z M94.12,76.36l-0.88-2.32
						c0.79-0.3,1.6-0.58,2.41-0.84l0.74,2.37C95.63,75.81,94.87,76.07,94.12,76.36z M120.14,75.15c-0.77-0.21-1.55-0.41-2.34-0.57
						l0.52-2.42c0.83,0.18,1.66,0.38,2.48,0.61L120.14,75.15z M98.71,74.91l-0.6-2.4c0.82-0.21,1.66-0.39,2.49-0.55l0.47,2.43
						C100.27,74.54,99.48,74.72,98.71,74.91z M115.44,74.14c-0.79-0.13-1.59-0.23-2.39-0.3l0.24-2.47c0.84,0.08,1.69,0.19,2.53,0.32
						L115.44,74.14z M103.44,74.01l-0.33-2.45c0.84-0.11,1.69-0.2,2.54-0.26l0.18,2.47C105.04,73.82,104.23,73.9,103.44,74.01z
						 M110.65,73.68c-0.8-0.03-1.61-0.04-2.41-0.03l-0.04-2.48c0.85-0.01,1.7-0.01,2.55,0.03L110.65,73.68z"/>
				</g>
				<g>
					<path class="st1" d="M134.39,88.76c-6.78-6.62-15.82-10.27-25.42-10.27c-9.6,0-18.62,3.64-25.42,10.26
						c-14.02,13.68-14,35.94,0,49.61c6.8,6.64,15.83,10.29,25.43,10.29c9.6,0,18.62-3.65,25.42-10.27
						c6.78-6.62,10.53-15.43,10.53-24.8C144.93,104.2,141.19,95.4,134.39,88.76z M108.99,125.95c-7.75,0-14.04-6.29-14.04-14.04
						c0-7.75,6.29-14.04,14.04-14.04c7.75,0,14.04,6.29,14.04,14.04C123.03,119.66,116.74,125.95,108.99,125.95z"/>
				</g>
				<g>
					<path class="st0" d="M187.29,200c-2.8,0-5.44-1.06-7.44-2.98l-32.12-30.96l-6.87-13.54l-3.7,2.41
						c-8.35,5.43-18.09,8.31-28.18,8.31c-1.85,0-3.72-0.1-5.57-0.29c-10.2-1.07-20.1-5.31-27.88-11.96
						c-11.16-9.55-17.5-23.33-17.39-37.8c0.11-14.48,6.67-28.17,17.99-37.56c8.08-6.7,18.34-10.82,28.89-11.59
						c1.31-0.1,2.64-0.14,3.95-0.14c13.59,0,26.36,5.17,35.96,14.55c17.11,16.71,19.79,43.07,6.38,62.69l-2.43,3.55l13.83,6.68
						l32.03,30.87c2.03,1.96,3.15,4.57,3.16,7.36c0.01,2.79-1.1,5.41-3.12,7.38C192.78,198.92,190.12,200,187.29,200z
						 M149.76,164.57l31.82,30.67c1.53,1.47,3.56,2.29,5.72,2.29c2.17,0,4.22-0.83,5.75-2.32c1.53-1.5,2.38-3.49,2.37-5.6
						c-0.01-2.11-0.86-4.09-2.41-5.59l-31.74-30.59l-16.06-7.77l4.06-5.93c12.73-18.62,10.19-43.65-6.06-59.51
						c-9.14-8.92-21.3-13.84-34.23-13.84c-1.25,0-2.51,0.04-3.77,0.14c-10.04,0.74-19.8,4.65-27.49,11.02
						c-10.76,8.92-16.99,21.93-17.1,35.67c-0.1,13.74,5.92,26.83,16.53,35.9c7.39,6.33,16.81,10.36,26.52,11.38
						c1.77,0.19,3.55,0.28,5.31,0.28c9.61,0,18.89-2.73,26.83-7.9l6.02-3.92L149.76,164.57z"/>
				</g>
				<g>
					<path class="st3" d="M187.29,193.75c-1.12,0-2.17-0.42-2.97-1.19l-31.36-30.22l-5.85-11.54l11.85,5.73l31.3,30.16
						c0.81,0.78,1.25,1.82,1.26,2.93c0,1.1-0.44,2.15-1.24,2.93C189.48,193.32,188.42,193.75,187.29,193.75z"/>
				</g>
				<g>
					
						<rect x="140.22" y="146.7" transform="matrix(0.7164 -0.6977 0.6977 0.7164 -62.3252 142.558)" class="st0" width="7.96" height="2.48"/>
				</g>
			</g>
		</g>
		<g>
			<g>
				<path class="st0" d="M88.58,141.25l-1.8-1.71l14.02-14.73c-2.26-1.43-4.09-3.42-5.33-5.78l-13.95,14.65l-1.8-1.71l16.58-17.42
					l0.7,1.85c1.15,3.06,3.41,5.55,6.34,6.99l1.51,0.75L88.58,141.25z"/>
			</g>
			<g>
				<path class="st0" d="M128.44,141.24l-15.68-16.98l1.56-0.71c2.94-1.34,5.32-3.83,6.53-6.82l0.73-1.82l16.38,17.76l-1.82,1.68
					l-13.82-14.97c-1.3,2.33-3.19,4.27-5.48,5.64l13.42,14.54L128.44,141.24z"/>
			</g>
		</g>
		<g>
			<path class="st0" d="M108.99,127.19c-8.42,0-15.28-6.85-15.28-15.27c0-8.43,6.85-15.28,15.28-15.28
				c8.42,0,15.28,6.85,15.28,15.28C124.27,120.34,117.41,127.19,108.99,127.19z M108.99,99.12c-7.06,0-12.8,5.74-12.8,12.8
				c0,7.05,5.74,12.8,12.8,12.8c7.06,0,12.8-5.74,12.8-12.8C121.79,104.86,116.05,99.12,108.99,99.12z"/>
		</g>
		<g>
			<path class="st2" d="M117.68,111.92c0,4.8-3.89,8.69-8.69,8.69c-4.8,0-8.69-3.89-8.69-8.69c0-4.8,3.89-8.69,8.69-8.69
				C113.79,103.23,117.68,107.11,117.68,111.92z"/>
		</g>
	</g>
	<g>
		<g>
			<g>
				<g>
					<path class="st0" d="M100.12,124.35c-0.01-0.01-0.02-0.01-0.02-0.02l0,0c-0.09-0.07-0.18-0.13-0.26-0.19l-0.11-0.09
						c-0.02-0.01-0.04-0.03-0.05-0.05l0.87-0.88l0.61-1.07l0.2,0.13c0.09,0.07,0.14,0.11,0.19,0.15L100.12,124.35z"/>
				</g>
				<g>
					<path class="st0" d="M103.03,125.99c-0.26-0.11-0.52-0.23-0.77-0.35l-0.09-0.05h0c-0.02-0.01-0.04-0.02-0.06-0.03l1.11-2.22
						c0.26,0.13,0.54,0.26,0.82,0.38L103.03,125.99z"/>
				</g>
				<g>
					<path class="st0" d="M106.67,127.01c-0.12-0.02-0.23-0.03-0.35-0.05v0c-0.39-0.07-0.77-0.15-1.16-0.25l0.59-2.41
						c0.4,0.09,0.83,0.19,1.26,0.25L106.67,127.01z"/>
				</g>
				<g>
					<path class="st0" d="M111.3,127.01l-0.35-2.45l0,0l0,0c0,0,0.01,0,0.01,0c0.45-0.06,0.9-0.16,1.24-0.25l0.58,2.41
						c-0.09,0.02-0.2,0.05-0.31,0.07l0,0.01c-0.38,0.09-0.77,0.16-1.16,0.22C111.32,127.01,111.31,127.01,111.3,127.01L111.3,127.01
						z"/>
				</g>
				<g>
					<path class="st0" d="M115.3,125.83l-0.99-2.27l0.22-0.11c0.19-0.09,0.37-0.18,0.53-0.26l1.23,2.15
						c-0.15,0.09-0.31,0.17-0.47,0.25l-0.27,0.13C115.46,125.76,115.38,125.8,115.3,125.83z"/>
				</g>
				<g>
					<path class="st0" d="M117.75,124.42l-1.3-2.08l0.01-0.01l-0.01-0.02c0.03-0.02,0.06-0.04,0.09-0.07l0.14-0.1
						c0.18-0.13,0.32-0.24,0.45-0.36l1.58,1.91c-0.16,0.13-0.32,0.26-0.49,0.39l-0.16,0.12
						C117.97,124.28,117.86,124.35,117.75,124.42z"/>
				</g>
				<g>
					<path class="st0" d="M118.97,123.46l-1.48-1.98l0.12-0.11c0.14-0.13,0.29-0.26,0.42-0.4l0.85,0.85l-0.83-0.87l0.04,0.04
						l-0.04-0.04l1.75,1.75l-0.04-0.04l0.04,0.04l-0.87-0.84l0.86,0.86c0,0,0,0,0,0l0,0l0,0c-0.12,0.12-0.24,0.24-0.37,0.36
						l-0.18,0.17C119.13,123.35,119.04,123.41,118.97,123.46z M118.02,120.98l0.88,0.88L118.02,120.98z"/>
				</g>
				<g>
					<path class="st0" d="M122,119.91l-1.75-1.17l-0.33-0.11c0.01-0.03,0.02-0.07,0.03-0.09l-0.02-0.01
						c0.1-0.15,0.18-0.31,0.27-0.47l2.2,1.15c-0.05,0.11-0.11,0.21-0.17,0.31l-0.06,0.12C122.12,119.74,122.06,119.82,122,119.91z"
						/>
				</g>
				<g>
					<path class="st0" d="M123.15,117.66l-2.3-0.94l0,0l0.04-0.1c0.26-0.66,0.47-1.35,0.62-2.06l2.43,0.51
						c-0.17,0.8-0.4,1.59-0.7,2.35h0l-0.04,0.1C123.18,117.57,123.16,117.61,123.15,117.66L123.15,117.66z M123.99,114.83
						l-2.43-0.47c0.13-0.66,0.21-1.35,0.23-2.03h-0.01c0.01-0.14,0.01-0.27,0.01-0.41c0-0.6-0.04-1.22-0.13-1.86l2.46-0.33
						c0.1,0.74,0.15,1.48,0.15,2.19c0,0.08,0,0.16,0,0.23h0.01C124.25,113.06,124.16,113.96,123.99,114.83z"/>
				</g>
				<g>
					<path class="st1" d="M100.59,123.16c-0.02-0.01-0.03-0.02-0.05-0.03C100.56,123.14,100.58,123.15,100.59,123.16
						c0.07,0.07,0.16,0.12,0.24,0.18C100.75,123.28,100.67,123.22,100.59,123.16z M102.66,124.45c0.05,0.03,0.1,0.05,0.14,0.08
						c0.24,0.12,0.48,0.22,0.73,0.33C103.23,124.72,102.94,124.59,102.66,124.45z M105.48,125.51c0.45,0.11,0.91,0.21,1.37,0.27
						C106.39,125.72,105.93,125.63,105.48,125.51z M111.13,125.79c0.46-0.07,0.92-0.17,1.36-0.27
						C112.05,125.63,111.59,125.72,111.13,125.79z"/>
				</g>
				<g>
					<path class="st0" d="M100.12,124.35c-0.01-0.01-0.02-0.01-0.02-0.02l0,0c-0.09-0.07-0.18-0.13-0.26-0.19l-0.11-0.09
						c-0.02-0.01-0.04-0.03-0.05-0.05l0.87-0.88l0.61-1.07l0.2,0.13c0.09,0.07,0.14,0.11,0.19,0.15L100.12,124.35z"/>
				</g>
				<g>
					<path class="st0" d="M103.03,125.99c-0.26-0.11-0.52-0.23-0.77-0.35l-0.09-0.05h0c-0.02-0.01-0.04-0.02-0.06-0.03l1.11-2.22
						c0.26,0.13,0.54,0.26,0.82,0.38L103.03,125.99z"/>
				</g>
				<g>
					<path class="st0" d="M106.67,127.01c-0.5-0.07-0.99-0.17-1.5-0.3l0.59-2.41c0.4,0.09,0.83,0.19,1.26,0.25L106.67,127.01z"/>
				</g>
				<g>
					<path class="st0" d="M115.3,125.83l-0.99-2.27l0.22-0.11c0.19-0.09,0.37-0.18,0.53-0.26l1.23,2.15
						c-0.15,0.09-0.31,0.17-0.47,0.25l-0.27,0.13C115.46,125.76,115.38,125.8,115.3,125.83z"/>
				</g>
				<g>
					<path class="st0" d="M122,119.91l-1.75-1.17l-0.33-0.11c0.01-0.03,0.02-0.07,0.03-0.09l-0.02-0.01
						c0.1-0.15,0.18-0.31,0.27-0.47l2.2,1.15c-0.05,0.11-0.11,0.21-0.17,0.31l-0.06,0.12C122.12,119.74,122.06,119.82,122,119.91z"
						/>
				</g>
				<g>
					<path class="st0" d="M123.15,117.66l-2.3-0.94c0.62-1.53,0.93-3.14,0.93-4.81c0-0.63-0.05-1.29-0.14-1.96l2.45-0.37
						c0.12,0.77,0.18,1.56,0.18,2.33C124.27,113.91,123.89,115.84,123.15,117.66z"/>
				</g>
				<g>
					
						<rect x="146.48" y="144.15" transform="matrix(0.7195 -0.6945 0.6945 0.7195 -59.7961 142.7404)" class="st0" width="0.65" height="2.48"/>
				</g>
			</g>
		</g>
		<g>
			<g>
				
					<rect x="128.59" y="114.14" transform="matrix(0.735 -0.678 0.678 0.735 -50.8207 121.3324)" class="st0" width="2.48" height="23.11"/>
			</g>
			<g>
				<path class="st0" d="M122,119.91l-1.55-1.11l-0.52-0.18c0.02-0.06,0.04-0.1,0.06-0.15l-0.01,0l0.01,0
					c0.05-0.1,0.1-0.18,0.12-0.21c0-0.01,0.04-0.08,0.08-0.15l0.21-0.4c0.06-0.11,0.1-0.2,0.14-0.28l0.1-0.23
					c0.06-0.12,0.11-0.24,0.16-0.36l0.06-0.13l1.13,0.49l1.25,0v0.27l-0.16,0.36c-0.06,0.13-0.12,0.27-0.18,0.4l-0.14,0.3
					c-0.05,0.11-0.11,0.21-0.16,0.32l-0.12,0.24c-0.03,0.06-0.06,0.12-0.1,0.18c-0.05,0.09-0.1,0.19-0.15,0.28l0,0l-0.06,0.1
					C122.12,119.73,122.07,119.81,122,119.91z"/>
			</g>
		</g>
		<g>
			<path class="st0" d="M100.12,124.35c-0.01-0.01-0.02-0.01-0.02-0.02l0,0c-0.09-0.07-0.18-0.13-0.26-0.19l-0.11-0.09
				c-0.02-0.01-0.04-0.03-0.05-0.05l0.87-0.88l0.61-1.07l0.2,0.13c0.09,0.07,0.14,0.11,0.19,0.15L100.12,124.35z"/>
		</g>
		<g>
			<path class="st0" d="M103.03,125.99c-0.26-0.11-0.52-0.23-0.77-0.35l-0.09-0.05h0c-0.02-0.01-0.04-0.02-0.06-0.03l1.11-2.22
				c0.26,0.13,0.54,0.26,0.82,0.38L103.03,125.99z"/>
		</g>
		<g>
			<path class="st0" d="M115.3,125.83l-0.99-2.27l0.22-0.11c0.19-0.09,0.37-0.18,0.53-0.26l1.23,2.15
				c-0.15,0.09-0.31,0.17-0.47,0.25l-0.27,0.13C115.46,125.76,115.38,125.8,115.3,125.83z"/>
		</g>
	</g>
	<g>
		<rect x="23.04" y="90.08" class="st0" width="27.75" height="2.48"/>
	</g>
	<g>
		<rect x="23.04" y="100.33" class="st0" width="27.75" height="2.48"/>
	</g>
	<g>
		<rect x="23.04" y="110.58" class="st0" width="27.75" height="2.48"/>
	</g>
	<g>
		<rect x="23.04" y="120.83" class="st0" width="27.75" height="2.48"/>
	</g>
	<g>
		<path class="st0" d="M134.61,177.13h-2.48v-2.48h2.48V177.13z M129.66,177.13h-2.48v-2.48h2.48V177.13z M124.7,177.13h-2.48v-2.48
			h2.48V177.13z M119.74,177.13h-2.48v-2.48h2.48V177.13z M114.78,177.13h-2.48v-2.48h2.48V177.13z M109.82,177.13h-2.48v-2.48h2.48
			V177.13z M104.86,177.13h-2.48v-2.48h2.48V177.13z M99.9,177.13h-2.48v-2.48h2.48V177.13z M94.95,177.13h-2.48v-2.48h2.48V177.13z
			 M89.99,177.13h-2.48v-2.48h2.48V177.13z M85.03,177.13h-2.48v-2.48h2.48V177.13z M80.07,177.13h-2.48v-2.48h2.48V177.13z
			 M75.11,177.13h-2.48v-2.48h2.48V177.13z M70.15,177.13h-2.48v-2.48h2.48V177.13z M65.19,177.13h-2.48v-2.48h2.48V177.13z
			 M60.24,177.13h-2.48v-2.48h2.48V177.13z M55.28,177.13H52.8v-2.48h2.48V177.13z M50.32,177.13h-2.48v-2.48h2.48V177.13z
			 M45.36,177.13h-2.48v-2.48h2.48V177.13z M40.4,177.13h-2.48v-2.48h2.48V177.13z M35.44,177.13h-2.48v-2.48h2.48V177.13z
			 M30.48,177.13H28v-2.48h2.48V177.13z M25.52,177.13h-2.48v-2.48h2.48V177.13z"/>
	</g>
</g>
</svg>
