<svg id="图层_1" data-name="图层 1" xmlns="http://www.w3.org/2000/svg" xmlns:xlink="http://www.w3.org/1999/xlink" viewBox="0 0 399.46 423.45"><defs><style>.cls-1{fill:#fff;}.cls-2{mask:url(#mask);}.cls-3{fill:#77a1fe;}.cls-4{mask:url(#mask-2);}</style><mask id="mask" x="21.15" y="0" width="345.53" height="280.33" maskUnits="userSpaceOnUse"><g transform="translate(-245.54 -69.67)"><polygon class="cls-1" points="444.25 329.04 487.25 329.04 504.25 232.54 460.75 232.54 444.25 329.04"/><path class="cls-1" d="M553.65,92.16c-36.4-7.55-71.08,20.21-79.22,58.55l-8.23,47.95h44.29L517,162.48a25.11,25.11,0,0,1,29.17-20.25c11.67,2.11,19.67,11.7,20.61,23.32s-3.45,25.7-16.76,35.53c-11.71,8-28.89,7.71-28.89,7.71h-2.88a6.79,6.79,0,0,0-1-.09H424.34c0,.15-.07.3-.1.44a1.29,1.29,0,0,1,.38.86,51.83,51.83,0,0,1-.1,5.29,33.66,33.66,0,0,1-.44,7.22h80.11l9.77.12h7.9a8.67,8.67,0,0,0,.89-.06,153.16,153.16,0,0,0,17-1.3,87.44,87.44,0,0,0,12.35-2.61,47.73,47.73,0,0,0,8.09-3.39c1.82-1,3.65-2.08,5.48-3.28.78-.52,1.56-1.06,2.34-1.63,9.38-6.76,17.7-15.65,24.93-30.28,5.28-10.69,6.15-19.62,6.57-27A58.81,58.81,0,0,0,553.65,92.16Z"/><path class="cls-1" d="M341.82,339.11c36.41,7.56,71.09-20.21,79.22-58.55l8.23-47.95H385l-6.52,36.18A25.11,25.11,0,0,1,349.29,289c-11.68-2.1-19.67-11.7-20.62-23.32s3.46-25.7,16.76-35.53c11.71-8,28.89-7.7,28.89-7.7h2.89a6.77,6.77,0,0,0,1,.08h92.91c0-.15.08-.29.11-.44a1.3,1.3,0,0,1-.39-.86A48.87,48.87,0,0,1,471,216a33.75,33.75,0,0,1,.44-7.23H391.29l-9.78-.11h-7.89a6.69,6.69,0,0,0-.9.06,150.3,150.3,0,0,0-17,1.29,86.53,86.53,0,0,0-12.36,2.62,47.12,47.12,0,0,0-8.08,3.38c-1.83,1-3.66,2.08-5.48,3.29q-1.17.78-2.34,1.62c-9.38,6.76-17.71,15.66-24.93,30.28-5.28,10.69-6.15,19.63-6.57,27A58.79,58.79,0,0,0,341.82,339.11Z"/><polygon class="cls-1" points="451.43 102.04 408.43 102.04 391.43 198.54 434.93 198.54 451.43 102.04"/><polygon class="cls-1" points="444.25 329.04 487.25 329.04 504.25 232.54 460.75 232.54 444.25 329.04"/><path class="cls-1" d="M553.65,92.16c-36.4-7.55-71.08,20.21-79.22,58.55l-8.23,47.95h44.29L517,162.48a25.11,25.11,0,0,1,29.17-20.25c11.67,2.11,19.67,11.7,20.61,23.32s-3.45,25.7-16.76,35.53c-11.71,8-28.89,7.71-28.89,7.71h-2.88a6.79,6.79,0,0,0-1-.09H424.34c0,.15-.07.3-.1.44a1.29,1.29,0,0,1,.38.86,51.83,51.83,0,0,1-.1,5.29,33.66,33.66,0,0,1-.44,7.22h80.11l9.77.12h7.9a8.67,8.67,0,0,0,.89-.06,153.16,153.16,0,0,0,17-1.3,87.44,87.44,0,0,0,12.35-2.61,47.73,47.73,0,0,0,8.09-3.39c1.82-1,3.65-2.08,5.48-3.28.78-.52,1.56-1.06,2.34-1.63,9.38-6.76,17.7-15.65,24.93-30.28,5.28-10.69,6.15-19.62,6.57-27A58.81,58.81,0,0,0,553.65,92.16Z"/><path class="cls-1" d="M341.82,339.11c36.41,7.56,71.09-20.21,79.22-58.55l8.23-47.95H385l-6.52,36.18A25.11,25.11,0,0,1,349.29,289c-11.68-2.1-19.67-11.7-20.62-23.32s3.46-25.7,16.76-35.53c11.71-8,28.89-7.7,28.89-7.7h2.89a6.77,6.77,0,0,0,1,.08h92.91c0-.15.08-.29.11-.44a1.3,1.3,0,0,1-.39-.86A48.87,48.87,0,0,1,471,216a33.75,33.75,0,0,1,.44-7.23H391.29l-9.78-.11h-7.89a6.69,6.69,0,0,0-.9.06,150.3,150.3,0,0,0-17,1.29,86.53,86.53,0,0,0-12.36,2.62,47.12,47.12,0,0,0-8.08,3.38c-1.83,1-3.66,2.08-5.48,3.29q-1.17.78-2.34,1.62c-9.38,6.76-17.71,15.66-24.93,30.28-5.28,10.69-6.15,19.63-6.57,27A58.79,58.79,0,0,0,341.82,339.11Z"/><polygon class="cls-1" points="451.43 102.04 408.43 102.04 391.43 198.54 434.93 198.54 451.43 102.04"/></g></mask><mask id="mask-2" x="0" y="390.45" width="399.46" height="33" maskUnits="userSpaceOnUse"><g transform="translate(-245.54 -69.67)"><path class="cls-1" d="M249.24,480.4l-1.64,3.85h-1.66L252.21,470l6.1,14.22h-1.67L255,480.4Zm2.93-6.84L249.85,479h4.59Z"/><path class="cls-1" d="M281.07,470.68h2.23a8.24,8.24,0,0,1,1.75.18,4,4,0,0,1,1.45.61,3.07,3.07,0,0,1,1,1.13,3.81,3.81,0,0,1,.36,1.75,3.51,3.51,0,0,1-.32,1.5,3,3,0,0,1-1,1.14,3.35,3.35,0,0,1,1.09.48,3.62,3.62,0,0,1,.81.8,3.51,3.51,0,0,1,.5,1,4.09,4.09,0,0,1,.17,1.17,3.59,3.59,0,0,1-.38,1.73,3.17,3.17,0,0,1-1,1.17,4.45,4.45,0,0,1-1.55.67,8.17,8.17,0,0,1-1.89.21h-3.15Zm1.51,6h.58a11.73,11.73,0,0,0,1.22-.06,2.6,2.6,0,0,0,1-.3,1.62,1.62,0,0,0,.68-.69,2.58,2.58,0,0,0,.26-1.25,2.63,2.63,0,0,0-.24-1.23,1.62,1.62,0,0,0-.64-.68,2.68,2.68,0,0,0-1-.3,12.51,12.51,0,0,0-1.28-.06h-.6Zm0,6.19h1.52a7.53,7.53,0,0,0,1.25-.1,3.29,3.29,0,0,0,1.11-.36,2.16,2.16,0,0,0,.8-.76,2.26,2.26,0,0,0,.31-1.26,2.12,2.12,0,0,0-.34-1.27,2.23,2.23,0,0,0-.88-.73,3.67,3.67,0,0,0-1.18-.33,9.31,9.31,0,0,0-1.27-.08h-1.32Z"/><path class="cls-1" d="M301.09,482.84h3.75v1.41h-5.26V470.68h1.51Z"/><path class="cls-1" d="M321,470.44a6.86,6.86,0,0,1,2.75.55A7.12,7.12,0,0,1,326,472.5a7.34,7.34,0,0,1,1.52,2.24,7,7,0,0,1,0,5.48,7,7,0,0,1-3.77,3.71,7.13,7.13,0,0,1-5.49,0,7,7,0,0,1-3.77-3.71,7,7,0,0,1,0-5.48A7.34,7.34,0,0,1,316,472.5a7.12,7.12,0,0,1,2.25-1.51A6.84,6.84,0,0,1,321,470.44Zm0,1.41a5.34,5.34,0,0,0-2.18.44,5.44,5.44,0,0,0-1.77,1.2,5.72,5.72,0,0,0-1.17,1.79,5.55,5.55,0,0,0-.44,2.18,5.47,5.47,0,0,0,.44,2.17,5.53,5.53,0,0,0,1.18,1.78,5.81,5.81,0,0,0,1.78,1.22,5.43,5.43,0,0,0,4.33,0,5.81,5.81,0,0,0,1.78-1.22,5.73,5.73,0,0,0,1.19-1.78,5.64,5.64,0,0,0,.43-2.17,5.73,5.73,0,0,0-.43-2.18,5.93,5.93,0,0,0-1.18-1.79,5.44,5.44,0,0,0-1.77-1.2A5.32,5.32,0,0,0,321,471.85Z"/><path class="cls-1" d="M348.77,473.65a5.9,5.9,0,0,0-1.88-1.33,5.48,5.48,0,0,0-2.26-.47,5.17,5.17,0,0,0-2.14.45,5.65,5.65,0,0,0-1.73,1.24,5.55,5.55,0,0,0-1.17,1.79,5.38,5.38,0,0,0-.44,2.13,5.31,5.31,0,0,0,.44,2.13,5.71,5.71,0,0,0,2.93,3,5.21,5.21,0,0,0,2.14.46,5.29,5.29,0,0,0,2.23-.5,6.51,6.51,0,0,0,1.88-1.3v1.87a7.17,7.17,0,0,1-1.93,1,6.73,6.73,0,0,1-2.12.35,6.83,6.83,0,0,1-2.73-.55,7.07,7.07,0,0,1-2.25-1.49,7.21,7.21,0,0,1-1.53-2.22,6.47,6.47,0,0,1-.57-2.7,6.86,6.86,0,0,1,.56-2.75A7.14,7.14,0,0,1,342,471a6.86,6.86,0,0,1,2.75-.56,6.65,6.65,0,0,1,4,1.33Z"/><path class="cls-1" d="M366.9,470.68h2L362.56,477l6.59,7.26h-2.09L361.5,478l-.38.38v5.85h-1.51V470.68h1.51v5.81Z"/><path class="cls-1" d="M389.24,473.65a5.9,5.9,0,0,0-1.88-1.33,5.45,5.45,0,0,0-2.26-.47,5.09,5.09,0,0,0-2.13.45,5.58,5.58,0,0,0-1.74,1.24,5.9,5.9,0,0,0-1.17,1.79,5.37,5.37,0,0,0-.43,2.13,5.3,5.3,0,0,0,.43,2.13,5.71,5.71,0,0,0,2.93,3,5.22,5.22,0,0,0,4.37,0,6.51,6.51,0,0,0,1.88-1.3v1.87a7.25,7.25,0,0,1-1.92,1,6.87,6.87,0,0,1-4.86-.2,7.3,7.3,0,0,1-2.25-1.49,7.21,7.21,0,0,1-1.53-2.22,6.63,6.63,0,0,1-.56-2.7,6.86,6.86,0,0,1,.55-2.75,7.21,7.21,0,0,1,3.78-3.77,6.82,6.82,0,0,1,2.74-.56,6.65,6.65,0,0,1,4.05,1.33Z"/><path class="cls-1" d="M408.61,476.18v-5.5h1.52v13.57h-1.52v-6.66h-6.94v6.66h-1.52V470.68h1.52v5.5Z"/><path class="cls-1" d="M423.25,480.4l-1.64,3.85H420L426.22,470l6.1,14.22h-1.67l-1.6-3.85Zm2.94-6.84L423.86,479h4.59Z"/><path class="cls-1" d="M443.63,484.25h-1.51V470.68h1.51Z"/><path class="cls-1" d="M454.76,470.1l10.59,11.09V470.68h1.51v14.18l-10.59-11.07v10.46h-1.51Z"/><path class="cls-1" d="M502.32,473.65a5.9,5.9,0,0,0-1.88-1.33,5.45,5.45,0,0,0-2.26-.47,5.09,5.09,0,0,0-2.13.45,5.58,5.58,0,0,0-1.74,1.24,5.9,5.9,0,0,0-1.17,1.79,5.37,5.37,0,0,0-.43,2.13,5.3,5.3,0,0,0,.43,2.13,5.71,5.71,0,0,0,2.93,3,5.22,5.22,0,0,0,4.37,0,6.51,6.51,0,0,0,1.88-1.3v1.87a7.25,7.25,0,0,1-1.92,1,6.87,6.87,0,0,1-4.86-.2,7.3,7.3,0,0,1-2.25-1.49,7.21,7.21,0,0,1-1.53-2.22,6.63,6.63,0,0,1-.56-2.7,6.86,6.86,0,0,1,.55-2.75,7.21,7.21,0,0,1,3.78-3.77,6.82,6.82,0,0,1,2.74-.56,6.65,6.65,0,0,1,4.05,1.33Z"/><path class="cls-1" d="M519.55,470.44a6.89,6.89,0,0,1,2.75.55,7.11,7.11,0,0,1,3.77,3.75,7,7,0,0,1,0,5.48,7,7,0,0,1-1.52,2.22,7.3,7.3,0,0,1-2.25,1.49,6.89,6.89,0,0,1-2.75.55,6.81,6.81,0,0,1-2.74-.55,7.07,7.07,0,0,1-2.25-1.49,6.86,6.86,0,0,1-1.52-2.22,7,7,0,0,1,0-5.48,7.11,7.11,0,0,1,3.77-3.75A6.81,6.81,0,0,1,519.55,470.44Zm0,1.41a5.36,5.36,0,0,0-2.19.44,5.5,5.5,0,0,0-1.76,1.2,5.75,5.75,0,0,0-1.18,1.79,5.54,5.54,0,0,0-.43,2.18,5.46,5.46,0,0,0,.43,2.17,5.56,5.56,0,0,0,1.19,1.78,5.65,5.65,0,0,0,1.77,1.22,5.46,5.46,0,0,0,4.34,0,5.65,5.65,0,0,0,1.77-1.22,5.56,5.56,0,0,0,1.19-1.78,5.46,5.46,0,0,0,.43-2.17,5.54,5.54,0,0,0-.43-2.18,5.75,5.75,0,0,0-1.18-1.79,5.49,5.49,0,0,0-4-1.64Z"/><path class="cls-1" d="M538.73,469.9l4.93,11.4,5-11.4,2.75,14.35h-1.54l-1.75-9.18h0l-4.37,9.74-4.36-9.74h0l-1.75,9.18H536Z"/><path class="cls-1" d="M562.89,484.25h-1.51V470.68h2.23a14.55,14.55,0,0,1,1.75.1,3.66,3.66,0,0,1,1.61.62,3.21,3.21,0,0,1,1.15,1.35,4,4,0,0,1,.38,1.74,4.11,4.11,0,0,1-.33,1.61,3.44,3.44,0,0,1-2.49,2,9.76,9.76,0,0,1-1.69.16h-1.1Zm0-7.35h1a6.33,6.33,0,0,0,1.18-.1,2.81,2.81,0,0,0,1-.39,2.11,2.11,0,0,0,.67-.75,2.49,2.49,0,0,0,.25-1.2,2.44,2.44,0,0,0-.3-1.31,2,2,0,0,0-.81-.71,3.67,3.67,0,0,0-1.14-.3q-.63-.06-1.29-.06h-.56Z"/><path class="cls-1" d="M579.31,480.4l-1.64,3.85H576L582.28,470l6.1,14.22h-1.67l-1.61-3.85Zm2.93-6.84L579.92,479h4.59Z"/><path class="cls-1" d="M598.23,470.1l10.59,11.09V470.68h1.51v14.18l-10.59-11.07v10.46h-1.51Z"/><path class="cls-1" d="M620.22,470.68H622l3.46,6,3.45-6h1.75l-4.45,7.74v5.83h-1.51v-5.83Z"/></g></mask></defs><title>竖版logo（白色）</title><g class="cls-2"><rect class="cls-1" x="303.27" y="40.26" width="272.35" height="339.15" transform="translate(-26.31 574.5) rotate(-88.64)"/></g><polygon class="cls-3" points="363.1 343.04 385.79 381.5 379.98 381.5 360.2 347.95 363.1 343.04"/><polygon class="cls-3" points="385 306.08 363.1 343.04 360.21 338.13 379.24 306 384.86 306 385 306.08"/><polygon class="cls-3" points="360.21 338.13 363.1 343.04 360.2 347.95 357.3 343.04 360.21 338.13"/><polygon class="cls-3" points="341.26 306 360.21 338.13 357.3 343.04 335.45 306 341.26 306"/><polygon class="cls-3" points="357.3 343.04 360.2 347.95 340.32 381.5 334.51 381.5 357.3 343.04"/><path class="cls-3" d="M552.87,376.33a37.81,37.81,0,0,1,0,74.18,40.11,40.11,0,0,0,0-74.18Z" transform="translate(-245.54 -69.67)"/><path class="cls-3" d="M533.35,375.6a37.75,37.75,0,1,1-37.75,37.75A37.79,37.79,0,0,1,533.35,375.6Zm32.75,37.75a32.75,32.75,0,1,0-32.75,32.75A32.79,32.79,0,0,0,566.1,413.35Z" transform="translate(-245.54 -69.67)"/><path class="cls-3" d="M472.93,375.67a18.66,18.66,0,0,1,0,37.32H462.21v38.18h-5v-75.5h15.72Zm13.17,18.59a13.57,13.57,0,0,0-13.57-13.58H462.21v27.15h10.32A13.56,13.56,0,0,0,486.1,394.26Z" transform="translate(-245.54 -69.67)"/><path class="cls-3" d="M447.51,413.35a37.69,37.69,0,0,1-58.78,31.3,33,33,0,0,1-11.67-12.48L377,432v0a32.21,32.21,0,0,1-1.66-3.69,11.67,11.67,0,0,1-.48-1.67c-.47-3.06-.23-18.07-.23-18.07s.06-5.61-.14-7.23a10.93,10.93,0,0,0-1.28-3.13,32.74,32.74,0,1,0-56.27,33.3,37.6,37.6,0,0,0,4.17,5.07,32.75,32.75,0,0,0,50.19-4.9c.16.36.32.72.49,1.07a38.81,38.81,0,0,0,2.08,3.87,37.84,37.84,0,0,1-29.68,14.5,37.75,37.75,0,1,1,26.92-64.18,33.45,33.45,0,0,1,4.47,5.51l.39.6.18.3.15.26c.22.39.45.77.66,1.16a28.88,28.88,0,0,1,1.78,3.72,14.94,14.94,0,0,1,.6,2.49c.14,1.49.14,2.18.14,2.18l0,15.64s-.37,6.56,1.48,10a32.73,32.73,0,1,0,57.74-30.85,38.11,38.11,0,0,0-11.06-12,32.64,32.64,0,0,0-41.7,5.13,33.24,33.24,0,0,0-3.24,4.05c-.12-.26-.25-.51-.37-.77a38.43,38.43,0,0,0-2.24-4.14c.77-1,1.6-1.92,2.46-2.82a37.7,37.7,0,0,1,65,26Z" transform="translate(-245.54 -69.67)"/><polygon class="cls-3" points="51.75 306 51.75 381.5 46.75 381.5 46.75 344.25 5 344.25 5 381.5 0 381.5 0 306 5 306 5 339.25 46.75 339.25 46.75 306 51.75 306"/><polygon class="cls-1" points="363.1 343.04 385.79 381.5 379.98 381.5 360.2 347.95 363.1 343.04"/><polygon class="cls-1" points="385 306.08 363.1 343.04 360.21 338.13 379.24 306 384.86 306 385 306.08"/><polygon class="cls-1" points="360.21 338.13 363.1 343.04 360.2 347.95 357.3 343.04 360.21 338.13"/><polygon class="cls-1" points="341.26 306 360.21 338.13 357.3 343.04 335.45 306 341.26 306"/><polygon class="cls-1" points="357.3 343.04 360.2 347.95 340.32 381.5 334.51 381.5 357.3 343.04"/><path class="cls-1" d="M552.87,376.33a37.81,37.81,0,0,1,0,74.18,40.11,40.11,0,0,0,0-74.18Z" transform="translate(-245.54 -69.67)"/><path class="cls-1" d="M533.35,375.6a37.75,37.75,0,1,1-37.75,37.75A37.79,37.79,0,0,1,533.35,375.6Zm32.75,37.75a32.75,32.75,0,1,0-32.75,32.75A32.79,32.79,0,0,0,566.1,413.35Z" transform="translate(-245.54 -69.67)"/><path class="cls-1" d="M472.93,375.67a18.66,18.66,0,0,1,0,37.32H462.21v38.18h-5v-75.5h15.72Zm13.17,18.59a13.57,13.57,0,0,0-13.57-13.58H462.21v27.15h10.32A13.56,13.56,0,0,0,486.1,394.26Z" transform="translate(-245.54 -69.67)"/><path class="cls-1" d="M447.51,413.35a37.69,37.69,0,0,1-58.78,31.3,33,33,0,0,1-11.67-12.48L377,432v0a32.21,32.21,0,0,1-1.66-3.69,11.67,11.67,0,0,1-.48-1.67c-.47-3.06-.23-18.07-.23-18.07s.06-5.61-.14-7.23a10.93,10.93,0,0,0-1.28-3.13,32.74,32.74,0,1,0-56.27,33.3,37.6,37.6,0,0,0,4.17,5.07,32.75,32.75,0,0,0,50.19-4.9c.16.36.32.72.49,1.07a38.81,38.81,0,0,0,2.08,3.87,37.84,37.84,0,0,1-29.68,14.5,37.75,37.75,0,1,1,26.92-64.18,33.45,33.45,0,0,1,4.47,5.51l.39.6.18.3.15.26c.22.39.45.77.66,1.16a28.88,28.88,0,0,1,1.78,3.72,14.94,14.94,0,0,1,.6,2.49c.14,1.49.14,2.18.14,2.18l0,15.64s-.37,6.56,1.48,10a32.73,32.73,0,1,0,57.74-30.85,38.11,38.11,0,0,0-11.06-12,32.64,32.64,0,0,0-41.7,5.13,33.24,33.24,0,0,0-3.24,4.05c-.12-.26-.25-.51-.37-.77a38.43,38.43,0,0,0-2.24-4.14c.77-1,1.6-1.92,2.46-2.82a37.7,37.7,0,0,1,65,26Z" transform="translate(-245.54 -69.67)"/><polygon class="cls-1" points="51.75 306 51.75 381.5 46.75 381.5 46.75 344.25 5 344.25 5 381.5 0 381.5 0 306 5 306 5 339.25 46.75 339.25 46.75 306 51.75 306"/><g class="cls-4"><rect class="cls-1" y="390.45" width="399.46" height="33"/></g></svg>