<?xml version="1.0" encoding="utf-8"?>
<!-- Generator: Adobe Illustrator 23.0.3, SVG Export Plug-In . SVG Version: 6.00 Build 0)  -->
<svg version="1.1" id="图层_1" xmlns="http://www.w3.org/2000/svg" xmlns:xlink="http://www.w3.org/1999/xlink" x="0px" y="0px"
	 viewBox="0 0 841.89 595.28" style="enable-background:new 0 0 841.89 595.28;" xml:space="preserve">
<style type="text/css">
	.st0{filter:url(#Adobe_OpacityMaskFilter);}
	.st1{fill:#FFFFFF;}
	.st2{mask:url(#SVGID_1_);fill:url(#SVGID_2_);}
	.st3{fill:#77A1FE;}
	.st4{fill:url(#SVGID_3_);}
	.st5{fill:url(#SVGID_4_);}
	.st6{fill:url(#SVGID_5_);}
	.st7{fill:url(#SVGID_6_);}
	.st8{fill:url(#SVGID_7_);}
	.st9{fill:url(#SVGID_8_);}
	.st10{fill:url(#SVGID_9_);}
	.st11{fill:url(#SVGID_10_);}
	.st12{fill:url(#SVGID_11_);}
	.st13{fill:url(#SVGID_12_);}
	.st14{filter:url(#Adobe_OpacityMaskFilter_1_);}
	.st15{mask:url(#SVGID_13_);fill:url(#SVGID_14_);}
</style>
<defs>
	<filter id="Adobe_OpacityMaskFilter" filterUnits="userSpaceOnUse" x="260.02" y="78" width="345.53" height="280.33">
		<feColorMatrix  type="matrix" values="1 0 0 0 0  0 1 0 0 0  0 0 1 0 0  0 0 0 1 0"/>
	</filter>
</defs>
<mask maskUnits="userSpaceOnUse" x="260.02" y="78" width="345.53" height="280.33" id="SVGID_1_">
	<g class="st0">
		<g>
			<g>
				<polygon class="st1" points="437.58,337.37 480.58,337.37 497.58,240.87 454.08,240.87 				"/>
				<path class="st1" d="M546.99,100.5c-36.41-7.56-71.08,20.21-79.22,58.55L459.53,207h44.29l6.53-36.18
					c2.46-13.65,15.52-22.71,29.17-20.25c11.67,2.11,19.67,11.7,20.62,23.32s-3.46,25.7-16.76,35.53
					c-11.71,8.02-28.89,7.71-28.89,7.71h-2.88c-0.33-0.05-0.67-0.08-1.02-0.08h-92.91c-0.03,0.15-0.07,0.29-0.11,0.44
					c0.22,0.22,0.37,0.51,0.39,0.86c0.07,1.77,0.01,3.53-0.1,5.29c0.15,2.4-0.07,4.84-0.44,7.23h80.11l9.77,0.12h7.9
					c0.3,0,0.6-0.02,0.89-0.06c4.39-0.17,10.47-0.33,16.98-1.3c3.63-0.54,8.68-1.44,12.35-2.61c2.78-0.89,5.5-2,8.09-3.39
					c1.83-0.98,3.66-2.08,5.48-3.28c0.78-0.52,1.56-1.06,2.34-1.62c9.38-6.76,17.7-15.66,24.93-30.28
					c5.28-10.69,6.15-19.63,6.57-26.95C594.47,132.46,575.2,106.91,546.99,100.5z"/>
				<path class="st1" d="M335.16,347.45c36.41,7.56,71.08-20.21,79.22-58.55l8.23-47.95h-44.29l-6.53,36.18
					c-2.46,13.65-15.52,22.71-29.17,20.25c-11.67-2.11-19.67-11.7-20.62-23.32s3.46-25.7,16.76-35.53
					c11.71-8.02,28.89-7.71,28.89-7.71h2.88c0.33,0.05,0.67,0.08,1.02,0.08h92.91c0.04-0.15,0.07-0.29,0.11-0.44
					c-0.22-0.22-0.37-0.51-0.39-0.86c-0.07-1.77-0.01-3.53,0.11-5.29c-0.15-2.4,0.07-4.84,0.44-7.23h-80.11l-9.77-0.12h-7.9
					c-0.3,0-0.6,0.02-0.89,0.06c-4.39,0.17-10.47,0.33-16.98,1.3c-3.63,0.54-8.68,1.44-12.35,2.61c-2.78,0.89-5.5,2-8.08,3.39
					c-1.83,0.98-3.66,2.08-5.48,3.28c-0.78,0.52-1.56,1.06-2.34,1.62c-9.38,6.76-17.7,15.66-24.93,30.28
					c-5.28,10.69-6.15,19.63-6.57,26.95C287.67,315.48,306.94,341.04,335.16,347.45z"/>
				<polygon class="st1" points="444.77,110.37 401.77,110.37 384.77,206.87 428.27,206.87 				"/>
			</g>
			<g>
				<polygon class="st1" points="437.58,337.37 480.58,337.37 497.58,240.87 454.08,240.87 				"/>
				<path class="st1" d="M546.99,100.5c-36.41-7.56-71.08,20.21-79.22,58.55L459.53,207h44.29l6.53-36.18
					c2.46-13.65,15.52-22.71,29.17-20.25c11.67,2.11,19.67,11.7,20.62,23.32s-3.46,25.7-16.76,35.53
					c-11.71,8.02-28.89,7.71-28.89,7.71h-2.88c-0.33-0.05-0.67-0.08-1.02-0.08h-92.91c-0.03,0.15-0.07,0.29-0.11,0.44
					c0.22,0.22,0.37,0.51,0.39,0.86c0.07,1.77,0.01,3.53-0.1,5.29c0.15,2.4-0.07,4.84-0.44,7.23h80.11l9.77,0.12h7.9
					c0.3,0,0.6-0.02,0.89-0.06c4.39-0.17,10.47-0.33,16.98-1.3c3.63-0.54,8.68-1.44,12.35-2.61c2.78-0.89,5.5-2,8.09-3.39
					c1.83-0.98,3.66-2.08,5.48-3.28c0.78-0.52,1.56-1.06,2.34-1.62c9.38-6.76,17.7-15.66,24.93-30.28
					c5.28-10.69,6.15-19.63,6.57-26.95C594.47,132.46,575.2,106.91,546.99,100.5z"/>
				<path class="st1" d="M335.16,347.45c36.41,7.56,71.08-20.21,79.22-58.55l8.23-47.95h-44.29l-6.53,36.18
					c-2.46,13.65-15.52,22.71-29.17,20.25c-11.67-2.11-19.67-11.7-20.62-23.32s3.46-25.7,16.76-35.53
					c11.71-8.02,28.89-7.71,28.89-7.71h2.88c0.33,0.05,0.67,0.08,1.02,0.08h92.91c0.04-0.15,0.07-0.29,0.11-0.44
					c-0.22-0.22-0.37-0.51-0.39-0.86c-0.07-1.77-0.01-3.53,0.11-5.29c-0.15-2.4,0.07-4.84,0.44-7.23h-80.11l-9.77-0.12h-7.9
					c-0.3,0-0.6,0.02-0.89,0.06c-4.39,0.17-10.47,0.33-16.98,1.3c-3.63,0.54-8.68,1.44-12.35,2.61c-2.78,0.89-5.5,2-8.08,3.39
					c-1.83,0.98-3.66,2.08-5.48,3.28c-0.78,0.52-1.56,1.06-2.34,1.62c-9.38,6.76-17.7,15.66-24.93,30.28
					c-5.28,10.69-6.15,19.63-6.57,26.95C287.67,315.48,306.94,341.04,335.16,347.45z"/>
				<polygon class="st1" points="444.77,110.37 401.77,110.37 384.77,206.87 428.27,206.87 				"/>
			</g>
		</g>
	</g>
</mask>
<linearGradient id="SVGID_2_" gradientUnits="userSpaceOnUse" x1="399.5884" y1="-4.521" x2="616.1961" y2="341.3617" gradientTransform="matrix(0.973 0.0231 -0.022 0.9264 -85.1148 6.4821)">
	<stop  offset="0" style="stop-color:#4C83F4"/>
	<stop  offset="1" style="stop-color:#9D88FF"/>
</linearGradient>
<polygon class="st2" points="599.07,358.33 260.02,350.27 266.49,78 605.55,86.06 "/>
<g>
	<g>
		<g>
			<g>
				<g>
					<polygon class="st3" points="601.97,421.04 624.66,459.5 618.85,459.5 599.07,425.95 					"/>
					<polygon class="st3" points="623.87,384.08 601.97,421.04 599.08,416.13 618.11,384 623.73,384 					"/>
					<polygon class="st3" points="599.08,416.13 601.97,421.04 599.07,425.95 596.17,421.04 					"/>
					<polygon class="st3" points="580.13,384 599.08,416.13 596.17,421.04 574.32,384 					"/>
					<polygon class="st3" points="596.17,421.04 599.07,425.95 579.19,459.5 573.38,459.5 					"/>
					<path class="st3" d="M546.2,384.66c17.36,3.42,30.45,18.72,30.45,37.09s-13.09,33.67-30.45,37.09
						c14.44-6.11,24.84-20.42,24.84-37.09S560.64,390.77,546.2,384.66z"/>
					<path class="st3" d="M526.68,383.93c20.81,0,37.75,16.93,37.75,37.75c0,20.81-16.94,37.75-37.75,37.75
						c-20.82,0-37.75-16.94-37.75-37.75C488.93,400.86,505.86,383.93,526.68,383.93z M559.43,421.68
						c0-18.06-14.69-32.75-32.75-32.75c-18.06,0-32.75,14.69-32.75,32.75c0,18.06,14.69,32.75,32.75,32.75
						C544.74,454.43,559.43,439.74,559.43,421.68z"/>
					<path class="st3" d="M466.26,384c10.3,0,18.66,8.36,18.66,18.66c0,10.31-8.36,18.66-18.66,18.66h-10.72v38.18h-5v-38.18v-5.69
						v-26.09V384h5H466.26z M479.43,402.59c0-7.5-6.07-13.58-13.57-13.58h-10.32v27.15h10.32
						C473.36,416.16,479.43,410.09,479.43,402.59z"/>
					<path class="st3" d="M440.84,421.68c0,11.87-5.52,22.48-14.12,29.41c-6.48,5.21-14.7,8.34-23.63,8.34
						c-7.79,0-15.02-2.39-21.03-6.45c-4.91-3.06-8.95-7.37-11.67-12.48c-0.03-0.06-0.07-0.11-0.1-0.17c0-0.01,0-0.01,0.01-0.02
						c-0.63-1.19-1.18-2.42-1.66-3.69c-0.26-0.68-0.24-0.75-0.48-1.67c-0.47-3.06-0.23-18.07-0.23-18.07s0.06-5.61-0.14-7.23
						c-0.13-1.04-0.89-2.38-1.28-3.13c-5.48-10.44-16.43-17.59-29.02-17.59c-6.92,0-13.33,2.16-18.63,5.83
						c-8.52,5.92-14.12,15.77-14.12,26.92c0,6.7,2.03,12.94,5.5,18.14c1.24,1.81,2.64,3.51,4.17,5.07
						c5.93,5.89,14.08,9.54,23.08,9.54c8.69,0,16.58-3.42,22.45-8.96c1.75-1.65,3.31-3.49,4.66-5.48c0.16,0.36,0.32,0.72,0.49,1.07
						c0.62,1.33,1.32,2.63,2.08,3.87c-1.24,1.58-2.6,3.07-4.08,4.43c-6.73,6.24-15.72,10.07-25.6,10.07
						c-20.82,0-37.75-16.94-37.75-37.75c0-12.7,6.3-23.94,15.94-30.79c6.16-4.38,13.69-6.96,21.81-6.96
						c10.53,0,20.07,4.34,26.92,11.32c1.68,1.67,3.17,3.51,4.47,5.51c0.13,0.2,0.26,0.4,0.39,0.6c0.06,0.1,0.12,0.2,0.18,0.3
						c0.05,0.09,0.1,0.17,0.15,0.26c0.22,0.39,0.45,0.77,0.66,1.16c0.68,1.27,1.27,2.35,1.78,3.72c0.04,0.11,0.51,1.58,0.6,2.49
						c0.14,1.49,0.14,2.18,0.14,2.18l-0.04,15.64c0,0-0.37,6.56,1.48,9.98c5.54,10.3,16.38,17.34,28.87,17.34
						c7.64,0,14.68-2.64,20.26-7.05c7.6-6,12.49-15.29,12.49-25.7c0-5.58-1.41-10.84-3.88-15.44c-2.77-4.77-6.56-8.87-11.06-12.03
						c-5.14-3.33-11.25-5.28-17.81-5.28c-9.43,0-17.91,4.02-23.89,10.41c-1.18,1.27-2.27,2.61-3.24,4.05
						c-0.12-0.26-0.25-0.51-0.37-0.77c-0.67-1.42-1.4-2.81-2.24-4.14c0.77-0.98,1.6-1.92,2.46-2.82
						c6.87-7.22,16.55-11.73,27.28-11.73C423.9,383.93,440.84,400.86,440.84,421.68z"/>
					<polygon class="st3" points="290.62,384 290.62,459.5 285.62,459.5 285.62,422.25 243.87,422.25 243.87,459.5 238.87,459.5 
						238.87,384 243.87,384 243.87,417.25 285.62,417.25 285.62,384 					"/>
				</g>
			</g>
		</g>
	</g>
	<g>
		<g>
			<g>
				<g>
					<linearGradient id="SVGID_3_" gradientUnits="userSpaceOnUse" x1="238.8691" y1="421.7148" x2="624.6591" y2="421.7148">
						<stop  offset="0" style="stop-color:#6083F4"/>
						<stop  offset="1" style="stop-color:#9D88FF"/>
					</linearGradient>
					<polygon class="st4" points="601.97,421.04 624.66,459.5 618.85,459.5 599.07,425.95 					"/>
					<linearGradient id="SVGID_4_" gradientUnits="userSpaceOnUse" x1="238.8691" y1="421.7148" x2="624.6591" y2="421.7148">
						<stop  offset="0" style="stop-color:#6083F4"/>
						<stop  offset="1" style="stop-color:#9D88FF"/>
					</linearGradient>
					<polygon class="st5" points="623.87,384.08 601.97,421.04 599.08,416.13 618.11,384 623.73,384 					"/>
					<linearGradient id="SVGID_5_" gradientUnits="userSpaceOnUse" x1="238.8691" y1="421.7148" x2="624.6591" y2="421.7148">
						<stop  offset="0" style="stop-color:#6083F4"/>
						<stop  offset="1" style="stop-color:#9D88FF"/>
					</linearGradient>
					<polygon class="st6" points="599.08,416.13 601.97,421.04 599.07,425.95 596.17,421.04 					"/>
					<linearGradient id="SVGID_6_" gradientUnits="userSpaceOnUse" x1="238.8691" y1="421.7148" x2="624.6591" y2="421.7148">
						<stop  offset="0" style="stop-color:#6083F4"/>
						<stop  offset="1" style="stop-color:#9D88FF"/>
					</linearGradient>
					<polygon class="st7" points="580.13,384 599.08,416.13 596.17,421.04 574.32,384 					"/>
					<linearGradient id="SVGID_7_" gradientUnits="userSpaceOnUse" x1="238.8691" y1="421.7148" x2="624.6591" y2="421.7148">
						<stop  offset="0" style="stop-color:#6083F4"/>
						<stop  offset="1" style="stop-color:#9D88FF"/>
					</linearGradient>
					<polygon class="st8" points="596.17,421.04 599.07,425.95 579.19,459.5 573.38,459.5 					"/>
					<linearGradient id="SVGID_8_" gradientUnits="userSpaceOnUse" x1="238.8691" y1="421.7148" x2="624.6591" y2="421.7148">
						<stop  offset="0" style="stop-color:#6083F4"/>
						<stop  offset="1" style="stop-color:#9D88FF"/>
					</linearGradient>
					<path class="st9" d="M546.2,384.66c17.36,3.42,30.45,18.72,30.45,37.09s-13.09,33.67-30.45,37.09
						c14.44-6.11,24.84-20.42,24.84-37.09S560.64,390.77,546.2,384.66z"/>
					<linearGradient id="SVGID_9_" gradientUnits="userSpaceOnUse" x1="238.8691" y1="421.7148" x2="624.6591" y2="421.7148">
						<stop  offset="0" style="stop-color:#6083F4"/>
						<stop  offset="1" style="stop-color:#9D88FF"/>
					</linearGradient>
					<path class="st10" d="M526.68,383.93c20.81,0,37.75,16.93,37.75,37.75c0,20.81-16.94,37.75-37.75,37.75
						c-20.82,0-37.75-16.94-37.75-37.75C488.93,400.86,505.86,383.93,526.68,383.93z M559.43,421.68
						c0-18.06-14.69-32.75-32.75-32.75c-18.06,0-32.75,14.69-32.75,32.75c0,18.06,14.69,32.75,32.75,32.75
						C544.74,454.43,559.43,439.74,559.43,421.68z"/>
					<linearGradient id="SVGID_10_" gradientUnits="userSpaceOnUse" x1="238.8691" y1="421.7148" x2="624.6591" y2="421.7148">
						<stop  offset="0" style="stop-color:#6083F4"/>
						<stop  offset="1" style="stop-color:#9D88FF"/>
					</linearGradient>
					<path class="st11" d="M466.26,384c10.3,0,18.66,8.36,18.66,18.66c0,10.31-8.36,18.66-18.66,18.66h-10.72v38.18h-5v-38.18v-5.69
						v-26.09V384h5H466.26z M479.43,402.59c0-7.5-6.07-13.58-13.57-13.58h-10.32v27.15h10.32
						C473.36,416.16,479.43,410.09,479.43,402.59z"/>
					<linearGradient id="SVGID_11_" gradientUnits="userSpaceOnUse" x1="238.8691" y1="421.7148" x2="624.6591" y2="421.7148">
						<stop  offset="0" style="stop-color:#6083F4"/>
						<stop  offset="1" style="stop-color:#9D88FF"/>
					</linearGradient>
					<path class="st12" d="M440.84,421.68c0,11.87-5.52,22.48-14.12,29.41c-6.48,5.21-14.7,8.34-23.63,8.34
						c-7.79,0-15.02-2.39-21.03-6.45c-4.91-3.06-8.95-7.37-11.67-12.48c-0.03-0.06-0.07-0.11-0.1-0.17c0-0.01,0-0.01,0.01-0.02
						c-0.63-1.19-1.18-2.42-1.66-3.69c-0.26-0.68-0.24-0.75-0.48-1.67c-0.47-3.06-0.23-18.07-0.23-18.07s0.06-5.61-0.14-7.23
						c-0.13-1.04-0.89-2.38-1.28-3.13c-5.48-10.44-16.43-17.59-29.02-17.59c-6.92,0-13.33,2.16-18.63,5.83
						c-8.52,5.92-14.12,15.77-14.12,26.92c0,6.7,2.03,12.94,5.5,18.14c1.24,1.81,2.64,3.51,4.17,5.07
						c5.93,5.89,14.08,9.54,23.08,9.54c8.69,0,16.58-3.42,22.45-8.96c1.75-1.65,3.31-3.49,4.66-5.48c0.16,0.36,0.32,0.72,0.49,1.07
						c0.62,1.33,1.32,2.63,2.08,3.87c-1.24,1.58-2.6,3.07-4.08,4.43c-6.73,6.24-15.72,10.07-25.6,10.07
						c-20.82,0-37.75-16.94-37.75-37.75c0-12.7,6.3-23.94,15.94-30.79c6.16-4.38,13.69-6.96,21.81-6.96
						c10.53,0,20.07,4.34,26.92,11.32c1.68,1.67,3.17,3.51,4.47,5.51c0.13,0.2,0.26,0.4,0.39,0.6c0.06,0.1,0.12,0.2,0.18,0.3
						c0.05,0.09,0.1,0.17,0.15,0.26c0.22,0.39,0.45,0.77,0.66,1.16c0.68,1.27,1.27,2.35,1.78,3.72c0.04,0.11,0.51,1.58,0.6,2.49
						c0.14,1.49,0.14,2.18,0.14,2.18l-0.04,15.64c0,0-0.37,6.56,1.48,9.98c5.54,10.3,16.38,17.34,28.87,17.34
						c7.64,0,14.68-2.64,20.26-7.05c7.6-6,12.49-15.29,12.49-25.7c0-5.58-1.41-10.84-3.88-15.44c-2.77-4.77-6.56-8.87-11.06-12.03
						c-5.14-3.33-11.25-5.28-17.81-5.28c-9.43,0-17.91,4.02-23.89,10.41c-1.18,1.27-2.27,2.61-3.24,4.05
						c-0.12-0.26-0.25-0.51-0.37-0.77c-0.67-1.42-1.4-2.81-2.24-4.14c0.77-0.98,1.6-1.92,2.46-2.82
						c6.87-7.22,16.55-11.73,27.28-11.73C423.9,383.93,440.84,400.86,440.84,421.68z"/>
					<linearGradient id="SVGID_12_" gradientUnits="userSpaceOnUse" x1="238.8691" y1="421.7148" x2="624.6591" y2="421.7148">
						<stop  offset="0" style="stop-color:#6083F4"/>
						<stop  offset="1" style="stop-color:#9D88FF"/>
					</linearGradient>
					<polygon class="st13" points="290.62,384 290.62,459.5 285.62,459.5 285.62,422.25 243.87,422.25 243.87,459.5 238.87,459.5 
						238.87,384 243.87,384 243.87,417.25 285.62,417.25 285.62,384 					"/>
				</g>
			</g>
		</g>
	</g>
</g>
<defs>
	<filter id="Adobe_OpacityMaskFilter_1_" filterUnits="userSpaceOnUse" x="238.87" y="468.45" width="399.46" height="33">
		<feColorMatrix  type="matrix" values="1 0 0 0 0  0 1 0 0 0  0 0 1 0 0  0 0 0 1 0"/>
	</filter>
</defs>
<mask maskUnits="userSpaceOnUse" x="238.87" y="468.45" width="399.46" height="33" id="SVGID_13_">
	<g class="st14">
		<g>
			<path class="st1" d="M242.57,488.73l-1.64,3.85h-1.66l6.26-14.22l6.1,14.22h-1.67l-1.6-3.85H242.57z M245.51,481.89l-2.32,5.44
				h4.59L245.51,481.89z"/>
			<path class="st1" d="M274.4,479.01h2.23c0.61,0,1.19,0.06,1.75,0.18c0.55,0.12,1.04,0.32,1.45,0.61
				c0.41,0.29,0.74,0.67,0.98,1.13c0.24,0.47,0.36,1.05,0.36,1.75c0,0.55-0.11,1.05-0.32,1.5c-0.22,0.45-0.55,0.83-1.01,1.14
				c0.41,0.1,0.77,0.25,1.09,0.48c0.32,0.22,0.59,0.49,0.81,0.8c0.22,0.31,0.39,0.65,0.5,1.03c0.11,0.37,0.17,0.76,0.17,1.17
				c0,0.67-0.12,1.25-0.38,1.73c-0.25,0.48-0.6,0.87-1.04,1.18c-0.44,0.31-0.96,0.53-1.55,0.67c-0.59,0.14-1.22,0.21-1.89,0.21
				h-3.15V479.01z M275.92,484.99h0.58c0.43,0,0.84-0.02,1.22-0.06c0.38-0.04,0.72-0.14,1.01-0.3c0.29-0.16,0.52-0.39,0.68-0.69
				c0.17-0.31,0.25-0.72,0.25-1.25c0-0.52-0.08-0.92-0.23-1.22c-0.16-0.3-0.37-0.53-0.65-0.68c-0.28-0.16-0.61-0.25-0.99-0.3
				c-0.38-0.04-0.81-0.06-1.28-0.06h-0.59V484.99z M275.92,491.18h1.51c0.42,0,0.84-0.03,1.25-0.1c0.41-0.07,0.79-0.19,1.12-0.37
				c0.33-0.18,0.6-0.43,0.8-0.76c0.2-0.32,0.31-0.74,0.31-1.26c0-0.53-0.11-0.95-0.34-1.27c-0.23-0.32-0.52-0.56-0.87-0.73
				s-0.75-0.28-1.19-0.33c-0.44-0.05-0.86-0.08-1.27-0.08h-1.31V491.18z"/>
			<path class="st1" d="M294.43,491.18h3.74v1.4h-5.26v-13.57h1.51V491.18z"/>
			<path class="st1" d="M314.34,478.78c0.97,0,1.89,0.18,2.75,0.55c0.86,0.37,1.61,0.87,2.25,1.51c0.64,0.64,1.15,1.39,1.52,2.24
				c0.37,0.85,0.56,1.76,0.56,2.74c0,0.97-0.19,1.88-0.56,2.74c-0.37,0.85-0.88,1.59-1.52,2.22c-0.64,0.63-1.39,1.13-2.25,1.49
				c-0.86,0.37-1.77,0.55-2.75,0.55c-0.97,0-1.89-0.18-2.74-0.55c-0.86-0.37-1.61-0.86-2.25-1.49c-0.64-0.63-1.15-1.37-1.52-2.22
				c-0.37-0.85-0.56-1.76-0.56-2.74c0-0.97,0.19-1.88,0.56-2.74c0.37-0.85,0.88-1.6,1.52-2.24c0.64-0.64,1.39-1.15,2.25-1.51
				C312.45,478.96,313.37,478.78,314.34,478.78z M314.34,480.18c-0.78,0-1.51,0.15-2.19,0.44c-0.68,0.29-1.27,0.7-1.76,1.21
				c-0.5,0.51-0.89,1.11-1.18,1.79c-0.29,0.68-0.43,1.41-0.43,2.18c0,0.77,0.14,1.49,0.43,2.17c0.29,0.68,0.68,1.27,1.19,1.78
				s1.1,0.92,1.77,1.21c0.68,0.3,1.4,0.45,2.17,0.45c0.77,0,1.49-0.15,2.17-0.45s1.27-0.71,1.77-1.21c0.5-0.51,0.9-1.1,1.19-1.78
				c0.29-0.68,0.43-1.4,0.43-2.17c0-0.77-0.14-1.49-0.43-2.18c-0.29-0.68-0.68-1.28-1.18-1.79c-0.5-0.51-1.09-0.91-1.76-1.21
				C315.85,480.33,315.12,480.18,314.34,480.18z"/>
			<path class="st1" d="M342.1,481.98c-0.54-0.56-1.17-1-1.88-1.32c-0.71-0.32-1.47-0.48-2.26-0.48c-0.76,0-1.47,0.15-2.13,0.46
				c-0.67,0.31-1.24,0.72-1.74,1.23c-0.49,0.52-0.88,1.11-1.17,1.79c-0.29,0.68-0.43,1.39-0.43,2.13c0,0.74,0.14,1.46,0.43,2.13
				c0.29,0.68,0.68,1.28,1.18,1.79c0.5,0.52,1.08,0.93,1.75,1.23c0.67,0.31,1.39,0.46,2.14,0.46c0.77,0,1.51-0.17,2.22-0.5
				c0.71-0.33,1.34-0.76,1.88-1.3v1.87c-0.59,0.42-1.23,0.75-1.93,0.98c-0.7,0.23-1.4,0.35-2.12,0.35c-0.96,0-1.87-0.18-2.73-0.55
				c-0.86-0.37-1.61-0.86-2.25-1.49c-0.64-0.63-1.15-1.37-1.53-2.21c-0.38-0.85-0.57-1.75-0.57-2.71c0-0.97,0.19-1.89,0.56-2.74
				c0.37-0.86,0.88-1.61,1.52-2.25c0.64-0.64,1.39-1.15,2.25-1.52s1.77-0.56,2.75-0.56c1.51,0,2.86,0.44,4.05,1.33V481.98z"/>
			<path class="st1" d="M360.23,479.01h2.03l-6.37,6.32l6.59,7.25h-2.09l-5.56-6.23l-0.38,0.38v5.85h-1.51v-13.57h1.51v5.81
				L360.23,479.01z"/>
			<path class="st1" d="M382.57,481.98c-0.54-0.56-1.17-1-1.88-1.32c-0.71-0.32-1.47-0.48-2.26-0.48c-0.76,0-1.47,0.15-2.13,0.46
				c-0.67,0.31-1.25,0.72-1.74,1.23c-0.49,0.52-0.88,1.11-1.17,1.79c-0.29,0.68-0.43,1.39-0.43,2.13c0,0.74,0.14,1.46,0.43,2.13
				c0.29,0.68,0.68,1.28,1.18,1.79c0.5,0.52,1.08,0.93,1.76,1.23c0.67,0.31,1.39,0.46,2.14,0.46c0.77,0,1.51-0.17,2.22-0.5
				c0.71-0.33,1.34-0.76,1.88-1.3v1.87c-0.59,0.42-1.23,0.75-1.93,0.98c-0.7,0.23-1.4,0.35-2.12,0.35c-0.96,0-1.87-0.18-2.73-0.55
				c-0.86-0.37-1.61-0.86-2.25-1.49c-0.64-0.63-1.15-1.37-1.53-2.21c-0.38-0.85-0.57-1.75-0.57-2.71c0-0.97,0.19-1.89,0.56-2.74
				c0.37-0.86,0.88-1.61,1.52-2.25c0.64-0.64,1.39-1.15,2.25-1.52c0.86-0.37,1.77-0.56,2.74-0.56c1.51,0,2.86,0.44,4.05,1.33V481.98
				z"/>
			<path class="st1" d="M401.95,484.52v-5.51h1.51v13.57h-1.51v-6.66H395v6.66h-1.51v-13.57H395v5.51H401.95z"/>
			<path class="st1" d="M416.59,488.73l-1.64,3.85h-1.66l6.26-14.22l6.1,14.22h-1.67l-1.6-3.85H416.59z M419.52,481.89l-2.32,5.44
				h4.59L419.52,481.89z"/>
			<path class="st1" d="M436.97,492.58h-1.51v-13.57h1.51V492.58z"/>
			<path class="st1" d="M448.1,478.43l10.58,11.09v-10.51h1.51v14.18l-10.58-11.07v10.46h-1.51V478.43z"/>
			<path class="st1" d="M495.65,481.98c-0.54-0.56-1.17-1-1.88-1.32c-0.71-0.32-1.47-0.48-2.26-0.48c-0.76,0-1.47,0.15-2.13,0.46
				c-0.67,0.31-1.24,0.72-1.74,1.23c-0.49,0.52-0.88,1.11-1.17,1.79c-0.29,0.68-0.43,1.39-0.43,2.13c0,0.74,0.14,1.46,0.43,2.13
				c0.29,0.68,0.68,1.28,1.18,1.79c0.5,0.52,1.08,0.93,1.76,1.23c0.67,0.31,1.39,0.46,2.14,0.46c0.77,0,1.51-0.17,2.22-0.5
				c0.71-0.33,1.34-0.76,1.88-1.3v1.87c-0.59,0.42-1.23,0.75-1.93,0.98c-0.7,0.23-1.4,0.35-2.12,0.35c-0.96,0-1.87-0.18-2.73-0.55
				c-0.86-0.37-1.61-0.86-2.25-1.49c-0.64-0.63-1.15-1.37-1.53-2.21c-0.38-0.85-0.57-1.75-0.57-2.71c0-0.97,0.19-1.89,0.56-2.74
				c0.37-0.86,0.88-1.61,1.52-2.25c0.64-0.64,1.39-1.15,2.25-1.52c0.86-0.37,1.77-0.56,2.74-0.56c1.51,0,2.86,0.44,4.05,1.33V481.98
				z"/>
			<path class="st1" d="M512.88,478.78c0.97,0,1.89,0.18,2.74,0.55c0.86,0.37,1.61,0.87,2.25,1.51c0.64,0.64,1.15,1.39,1.52,2.24
				c0.37,0.85,0.56,1.76,0.56,2.74c0,0.97-0.19,1.88-0.56,2.74c-0.37,0.85-0.88,1.59-1.52,2.22c-0.64,0.63-1.39,1.13-2.25,1.49
				c-0.86,0.37-1.77,0.55-2.74,0.55c-0.97,0-1.89-0.18-2.75-0.55c-0.86-0.37-1.61-0.86-2.25-1.49c-0.64-0.63-1.15-1.37-1.52-2.22
				c-0.37-0.85-0.56-1.76-0.56-2.74c0-0.97,0.19-1.88,0.56-2.74c0.37-0.85,0.88-1.6,1.52-2.24c0.64-0.64,1.39-1.15,2.25-1.51
				C511,478.96,511.91,478.78,512.88,478.78z M512.88,480.18c-0.78,0-1.51,0.15-2.19,0.44c-0.68,0.29-1.27,0.7-1.76,1.21
				c-0.5,0.51-0.89,1.11-1.18,1.79c-0.29,0.68-0.43,1.41-0.43,2.18c0,0.77,0.14,1.49,0.43,2.17c0.29,0.68,0.68,1.27,1.19,1.78
				c0.5,0.51,1.09,0.92,1.77,1.21c0.68,0.3,1.4,0.45,2.17,0.45c0.77,0,1.49-0.15,2.17-0.45c0.68-0.3,1.27-0.71,1.77-1.21
				s0.9-1.1,1.19-1.78c0.29-0.68,0.43-1.4,0.43-2.17c0-0.77-0.14-1.49-0.43-2.18c-0.29-0.68-0.68-1.28-1.18-1.79
				c-0.5-0.51-1.09-0.91-1.76-1.21C514.39,480.33,513.66,480.18,512.88,480.18z"/>
			<path class="st1" d="M532.06,478.24l4.93,11.39l4.95-11.39l2.75,14.35h-1.55l-1.75-9.18h-0.04l-4.38,9.74l-4.36-9.74h-0.04
				l-1.75,9.18h-1.55L532.06,478.24z"/>
			<path class="st1" d="M556.22,492.58h-1.51v-13.57h2.23c0.59,0,1.17,0.04,1.76,0.11c0.58,0.07,1.12,0.28,1.61,0.61
				c0.5,0.35,0.88,0.8,1.14,1.35c0.26,0.55,0.39,1.13,0.39,1.75c0,0.55-0.11,1.09-0.33,1.61c-0.22,0.52-0.54,0.96-0.96,1.3
				c-0.46,0.38-0.96,0.63-1.53,0.74c-0.56,0.11-1.13,0.16-1.69,0.16h-1.1V492.58z M556.22,485.24h1.01c0.42,0,0.82-0.04,1.19-0.11
				c0.37-0.07,0.7-0.2,0.98-0.39c0.28-0.19,0.51-0.43,0.68-0.75c0.17-0.31,0.25-0.71,0.25-1.21c0-0.55-0.1-0.99-0.31-1.3
				c-0.2-0.32-0.47-0.56-0.81-0.71c-0.34-0.16-0.71-0.25-1.13-0.3c-0.42-0.04-0.85-0.06-1.3-0.06h-0.56V485.24z"/>
			<path class="st1" d="M572.64,488.73l-1.64,3.85h-1.66l6.26-14.22l6.1,14.22h-1.67l-1.6-3.85H572.64z M575.58,481.89l-2.32,5.44
				h4.59L575.58,481.89z"/>
			<path class="st1" d="M591.56,478.43l10.58,11.09v-10.51h1.51v14.18l-10.58-11.07v10.46h-1.51V478.43z"/>
			<path class="st1" d="M613.55,479.01h1.75l3.46,6.05l3.46-6.05h1.75l-4.45,7.74v5.83h-1.51v-5.83L613.55,479.01z"/>
		</g>
	</g>
</mask>
<linearGradient id="SVGID_14_" gradientUnits="userSpaceOnUse" x1="238.8691" y1="484.9531" x2="638.333" y2="484.9531">
	<stop  offset="0" style="stop-color:#6083F4"/>
	<stop  offset="1" style="stop-color:#9D88FF"/>
</linearGradient>
<rect x="238.87" y="468.45" class="st15" width="399.46" height="33"/>
</svg>
