<svg xmlns="http://www.w3.org/2000/svg" xmlns:xlink="http://www.w3.org/1999/xlink" viewBox="0 0 242.03 53.74"><defs><style>.cls-1{fill:#fff;}.cls-2{isolation:isolate;}.cls-3{mask:url(#mask);}.cls-4{fill:url(#linear-gradient);}.cls-5{fill:#77a0fd;}.cls-6{fill:url(#linear-gradient-2);}.cls-7{mask:url(#mask-2);}.cls-8{mix-blend-mode:darken;fill:url(#linear-gradient-12);}</style><mask id="mask" x="0" y="0" width="63.59" height="51.59" maskUnits="userSpaceOnUse"><polygon class="cls-1" points="32.68 47.73 40.59 47.73 43.72 29.97 35.71 29.97 32.68 47.73"/><path class="cls-1" d="M52.81,4.14c-6.7-1.39-13.08,3.72-14.58,10.77l-1.51,8.83h8.15l1.2-6.66a4.62,4.62,0,0,1,9.16.57,7.37,7.37,0,0,1-3.08,6.53,10.47,10.47,0,0,1-5.32,1.42H29a.31.31,0,0,1,0,.08.27.27,0,0,1,.08.16c0,.32,0,.64,0,1A7.43,7.43,0,0,1,29,28.13H43.71l1.8,0h1.61a27.2,27.2,0,0,0,3.13-.24,16.69,16.69,0,0,0,2.27-.48A8.42,8.42,0,0,0,54,26.79c.33-.18.67-.38,1-.6l.43-.3A14.31,14.31,0,0,0,60,20.32a11.88,11.88,0,0,0,1.2-5A10.81,10.81,0,0,0,52.81,4.14Z"/><path class="cls-1" d="M13.83,49.58c6.7,1.4,13.08-3.71,14.58-10.77L29.92,30H21.77l-1.2,6.65a4.62,4.62,0,0,1-9.16-.56,7.34,7.34,0,0,1,3.08-6.54,10.59,10.59,0,0,1,5.32-1.42h.53l.19,0H37.62a.31.31,0,0,0,0-.08.29.29,0,0,1-.07-.16c0-.33,0-.65,0-1a6,6,0,0,1,.08-1.33H22.93l-1.8,0H19.51a27.21,27.21,0,0,0-3.12.24,14.13,14.13,0,0,0-2.27.48,8.08,8.08,0,0,0-1.49.62c-.34.18-.67.38-1,.6l-.43.3A14.27,14.27,0,0,0,6.6,33.41a12,12,0,0,0-1.21,5A10.81,10.81,0,0,0,13.83,49.58Z"/><polygon class="cls-1" points="34 5.96 26.09 5.96 22.96 23.72 30.96 23.72 34 5.96"/><polygon class="cls-1" points="32.68 47.73 40.59 47.73 43.72 29.97 35.71 29.97 32.68 47.73"/><path class="cls-1" d="M52.81,4.14c-6.7-1.39-13.08,3.72-14.58,10.77l-1.51,8.83h8.15l1.2-6.66a4.62,4.62,0,0,1,9.16.57,7.37,7.37,0,0,1-3.08,6.53,10.47,10.47,0,0,1-5.32,1.42H29a.31.31,0,0,1,0,.08.27.27,0,0,1,.08.16c0,.32,0,.64,0,1A7.43,7.43,0,0,1,29,28.13H43.71l1.8,0h1.61a27.2,27.2,0,0,0,3.13-.24,16.69,16.69,0,0,0,2.27-.48A8.42,8.42,0,0,0,54,26.79c.33-.18.67-.38,1-.6l.43-.3A14.31,14.31,0,0,0,60,20.32a11.88,11.88,0,0,0,1.2-5A10.81,10.81,0,0,0,52.81,4.14Z"/><path class="cls-1" d="M13.83,49.58c6.7,1.4,13.08-3.71,14.58-10.77L29.92,30H21.77l-1.2,6.65a4.62,4.62,0,0,1-9.16-.56,7.34,7.34,0,0,1,3.08-6.54,10.59,10.59,0,0,1,5.32-1.42h.53l.19,0H37.62a.31.31,0,0,0,0-.08.29.29,0,0,1-.07-.16c0-.33,0-.65,0-1a6,6,0,0,1,.08-1.33H22.93l-1.8,0H19.51a27.21,27.21,0,0,0-3.12.24,14.13,14.13,0,0,0-2.27.48,8.08,8.08,0,0,0-1.49.62c-.34.18-.67.38-1,.6l-.43.3A14.27,14.27,0,0,0,6.6,33.41a12,12,0,0,0-1.21,5A10.81,10.81,0,0,0,13.83,49.58Z"/><polygon class="cls-1" points="34 5.96 26.09 5.96 22.96 23.72 30.96 23.72 34 5.96"/></mask><linearGradient id="linear-gradient" x1="111.01" y1="2.27" x2="150.87" y2="65.92" gradientTransform="matrix(0, 0.97, -0.93, 0, 71.35, -106.89)" gradientUnits="userSpaceOnUse"><stop offset="0" stop-color="#4c82f3"/><stop offset="1" stop-color="#9c87ff"/></linearGradient><linearGradient id="linear-gradient-2" x1="71.97" y1="19.79" x2="236.21" y2="19.79" gradientUnits="userSpaceOnUse"><stop offset="0" stop-color="#6082f3"/><stop offset="1" stop-color="#9c87ff"/></linearGradient><mask id="mask-2" x="71.97" y="39.69" width="170.05" height="14.05" maskUnits="userSpaceOnUse"><path class="cls-1" d="M73.55,48.32,72.85,50h-.7l2.66-6.05L77.41,50H76.7L76,48.32Zm1.25-2.91-1,2.31h2Z"/><path class="cls-1" d="M87.1,44.18h1a3.67,3.67,0,0,1,.75.08,1.68,1.68,0,0,1,.61.26,1.3,1.3,0,0,1,.42.48,1.67,1.67,0,0,1,.15.75,1.37,1.37,0,0,1-.14.64,1.2,1.2,0,0,1-.42.48,1.48,1.48,0,0,1,.46.21,1.37,1.37,0,0,1,.34.34,1.4,1.4,0,0,1,.22.44,1.77,1.77,0,0,1-.09,1.23,1.52,1.52,0,0,1-.44.5,1.78,1.78,0,0,1-.66.28,3.47,3.47,0,0,1-.81.09H87.1Zm.64,2.55H88a4.28,4.28,0,0,0,.52,0,1.35,1.35,0,0,0,.43-.12.76.76,0,0,0,.29-.3,1.13,1.13,0,0,0,.11-.53,1.07,1.07,0,0,0-.1-.52.66.66,0,0,0-.28-.29,1,1,0,0,0-.42-.13,4.39,4.39,0,0,0-.54,0h-.26Zm0,2.63h.65a3.08,3.08,0,0,0,.53,0,1.69,1.69,0,0,0,.48-.15,1,1,0,0,0,.34-.33,1,1,0,0,0,.13-.53.87.87,0,0,0-.15-.54.92.92,0,0,0-.37-.31,1.59,1.59,0,0,0-.51-.14,3.27,3.27,0,0,0-.54,0h-.56Z"/><path class="cls-1" d="M95.62,49.36h1.6V50H95V44.18h.64Z"/><path class="cls-1" d="M104.1,44.09a2.87,2.87,0,0,1,1.17.23,3,3,0,0,1,1,.64,3.19,3.19,0,0,1,.65,1,3,3,0,0,1,.23,1.16,3.05,3.05,0,0,1-.23,1.17,3.1,3.1,0,0,1-.65.94,3.16,3.16,0,0,1-1,.64,3.05,3.05,0,0,1-1.17.23,3,3,0,0,1-2.12-.87,2.93,2.93,0,0,1-.65-.94,2.88,2.88,0,0,1-.24-1.17,2.83,2.83,0,0,1,.24-1.16,3,3,0,0,1,.65-1,3,3,0,0,1,1-.64A2.91,2.91,0,0,1,104.1,44.09Zm0,.59a2.41,2.41,0,0,0-.93.19,2.31,2.31,0,0,0-1.25,1.28,2.35,2.35,0,0,0,0,1.85,2.45,2.45,0,0,0,.5.76,2.48,2.48,0,0,0,.76.51,2.2,2.2,0,0,0,.92.19,2.24,2.24,0,0,0,.93-.19,2.56,2.56,0,0,0,.75-.51,2.67,2.67,0,0,0,.51-.76,2.47,2.47,0,0,0,0-1.85,2.52,2.52,0,0,0-.51-.77,2.49,2.49,0,0,0-.75-.51A2.41,2.41,0,0,0,104.1,44.68Z"/><path class="cls-1" d="M115.92,45.45a2.46,2.46,0,0,0-.8-.56,2.31,2.31,0,0,0-1-.21,2.13,2.13,0,0,0-.91.2,2.42,2.42,0,0,0-.74.52,2.49,2.49,0,0,0-.5.77,2.3,2.3,0,0,0-.18.9A2.34,2.34,0,0,0,112,48a2.45,2.45,0,0,0,.5.76,2.49,2.49,0,0,0,.75.53,2.18,2.18,0,0,0,.91.19,2.26,2.26,0,0,0,1-.21,2.78,2.78,0,0,0,.8-.55v.8a3.31,3.31,0,0,1-.82.41,2.83,2.83,0,0,1-.9.15,3,3,0,0,1-2.12-.87,2.93,2.93,0,0,1-.65-.94,2.65,2.65,0,0,1-.25-1.15,2.85,2.85,0,0,1,.24-1.17A3.07,3.07,0,0,1,113,44.32a2.84,2.84,0,0,1,1.17-.23,2.79,2.79,0,0,1,1.72.56Z"/><path class="cls-1" d="M123.64,44.18h.86l-2.71,2.69L124.6,50h-.89l-2.37-2.65-.16.16V50h-.65V44.18h.65v2.48Z"/><path class="cls-1" d="M133.15,45.45a2.46,2.46,0,0,0-.8-.56,2.31,2.31,0,0,0-1-.21,2.16,2.16,0,0,0-.91.2,2.42,2.42,0,0,0-.74.52,2.49,2.49,0,0,0-.5.77,2.3,2.3,0,0,0-.18.9,2.34,2.34,0,0,0,.18.91,2.45,2.45,0,0,0,.5.76,2.49,2.49,0,0,0,.75.53,2.18,2.18,0,0,0,.91.19,2.26,2.26,0,0,0,.95-.21,2.78,2.78,0,0,0,.8-.55v.8a3.31,3.31,0,0,1-.82.41,2.83,2.83,0,0,1-.9.15,3,3,0,0,1-2.12-.87,2.93,2.93,0,0,1-.65-.94,2.65,2.65,0,0,1-.25-1.15,2.85,2.85,0,0,1,.24-1.17,3.07,3.07,0,0,1,1.61-1.61,2.84,2.84,0,0,1,1.17-.23,2.79,2.79,0,0,1,1.72.56Z"/><path class="cls-1" d="M141.4,46.53V44.18H142V50h-.64V47.13h-3V50h-.64V44.18h.64v2.35Z"/><path class="cls-1" d="M147.63,48.32l-.7,1.64h-.7l2.66-6.05,2.6,6.05h-.71l-.68-1.64Zm1.25-2.91-1,2.31h2Z"/><path class="cls-1" d="M156.3,50h-.64V44.18h.64Z"/><path class="cls-1" d="M161,43.94l4.51,4.72V44.18h.64v6l-4.5-4.71V50H161Z"/><path class="cls-1" d="M181.29,45.45a2.46,2.46,0,0,0-.8-.56,2.31,2.31,0,0,0-1-.21,2.13,2.13,0,0,0-.91.2,2.3,2.3,0,0,0-.74.52,2.49,2.49,0,0,0-.5.77,2.3,2.3,0,0,0-.18.9,2.34,2.34,0,0,0,.18.91,2.45,2.45,0,0,0,.5.76,2.37,2.37,0,0,0,.75.53,2.18,2.18,0,0,0,.91.19,2.26,2.26,0,0,0,1-.21,2.78,2.78,0,0,0,.8-.55v.8a3.5,3.5,0,0,1-.82.41,2.85,2.85,0,0,1-.91.15,3.08,3.08,0,0,1-1.16-.23,3.12,3.12,0,0,1-1-.64,3,3,0,0,1-.66-.94,2.79,2.79,0,0,1-.24-1.15,2.85,2.85,0,0,1,.24-1.17,2.91,2.91,0,0,1,.65-1,3.07,3.07,0,0,1,1-.65,2.83,2.83,0,0,1,1.16-.23,2.8,2.8,0,0,1,1.73.56Z"/><path class="cls-1" d="M188.62,44.09a2.84,2.84,0,0,1,1.17.23,2.89,2.89,0,0,1,1,.64,3.19,3.19,0,0,1,.65,1,2.83,2.83,0,0,1,.24,1.16,2.88,2.88,0,0,1-.24,1.17,3.1,3.1,0,0,1-.65.94,3,3,0,0,1-1,.64,3,3,0,0,1-1.17.23,3,3,0,0,1-2.12-.87,2.93,2.93,0,0,1-.65-.94,2.88,2.88,0,0,1-.24-1.17,2.83,2.83,0,0,1,.24-1.16,3,3,0,0,1,.65-1,3,3,0,0,1,.95-.64A2.91,2.91,0,0,1,188.62,44.09Zm0,.59a2.41,2.41,0,0,0-.93.19,2.31,2.31,0,0,0-1.25,1.28,2.47,2.47,0,0,0,0,1.85,2.4,2.4,0,0,0,1.26,1.27,2.35,2.35,0,0,0,1.85,0,2.43,2.43,0,0,0,.75-.51,2.48,2.48,0,0,0,.51-.76,2.47,2.47,0,0,0,0-1.85,2.29,2.29,0,0,0-1.26-1.28A2.34,2.34,0,0,0,188.62,44.68Z"/><path class="cls-1" d="M196.79,43.86l2.1,4.85,2.1-4.85,1.18,6.1h-.66l-.75-3.91h0l-1.86,4.15L197,46.05h0L196.27,50h-.66Z"/><path class="cls-1" d="M207.07,50h-.64V44.18h.95a6.3,6.3,0,0,1,.75,0,1.58,1.58,0,0,1,.68.26,1.38,1.38,0,0,1,.49.58,1.78,1.78,0,0,1,0,1.43,1.4,1.4,0,0,1-.41.55,1.36,1.36,0,0,1-.65.31,3.51,3.51,0,0,1-.72.07h-.47Zm0-3.12h.43a2.76,2.76,0,0,0,.51-.05,1.25,1.25,0,0,0,.41-.16.89.89,0,0,0,.29-.32,1.14,1.14,0,0,0,.11-.52,1,1,0,0,0-.13-.55.73.73,0,0,0-.35-.3,1.41,1.41,0,0,0-.48-.13,4.93,4.93,0,0,0-.55,0h-.24Z"/><path class="cls-1" d="M214.06,48.32,213.37,50h-.71l2.67-6.05L217.92,50h-.71l-.68-1.64Zm1.25-2.91-1,2.31h2Z"/><path class="cls-1" d="M222.12,43.94l4.5,4.72V44.18h.65v6l-4.51-4.71V50h-.64Z"/><path class="cls-1" d="M231.48,44.18h.74l1.47,2.58,1.47-2.58h.75l-1.9,3.3V50h-.64V47.48Z"/></mask><linearGradient id="linear-gradient-12" x1="71.97" y1="46.72" x2="242.03" y2="46.72" xlink:href="#linear-gradient-2"/></defs><title>新logo</title><g class="cls-2"><g id="图层_2" data-name="图层 2"><g id="图层_1-2" data-name="图层 1"><g class="cls-3"><rect class="cls-4" x="6.73" y="-5.41" width="50.12" height="62.41" transform="translate(5.25 56.97) rotate(-88.64)"/></g><polygon class="cls-5" points="226.55 19.51 236.21 35.88 233.73 35.88 225.31 21.6 226.55 19.51"/><polygon class="cls-5" points="235.87 3.77 226.55 19.51 225.32 17.42 233.42 3.74 235.81 3.74 235.87 3.77"/><polygon class="cls-5" points="225.32 17.42 226.55 19.51 225.31 21.6 224.08 19.51 225.32 17.42"/><polygon class="cls-5" points="217.25 3.74 225.32 17.42 224.08 19.51 214.78 3.74 217.25 3.74"/><polygon class="cls-5" points="224.08 19.51 225.31 21.6 216.85 35.88 214.38 35.88 224.08 19.51"/><path class="cls-5" d="M202.81,4a16.1,16.1,0,0,1,0,31.58,17.25,17.25,0,0,0,10.57-15.79A17.25,17.25,0,0,0,202.81,4Z"/><path class="cls-5" d="M194.5,3.71a16.07,16.07,0,1,1-16.07,16.07A16.1,16.1,0,0,1,194.5,3.71Zm13.94,16.07A13.95,13.95,0,1,0,194.5,33.72,14,14,0,0,0,208.44,19.78Z"/><path class="cls-5" d="M168.77,3.74a7.95,7.95,0,1,1,0,15.89h-4.56V35.88h-2.13V3.74h6.69Zm5.61,7.91a5.78,5.78,0,0,0-5.78-5.78h-4.39V17.43h4.39A5.77,5.77,0,0,0,174.38,11.65Z"/><path class="cls-5" d="M158,19.78a16,16,0,0,1-25,13.32,14,14,0,0,1-5-5.31l0-.07h0a14.71,14.71,0,0,1-.7-1.57,6.39,6.39,0,0,1-.21-.71c-.2-1.3-.09-7.69-.09-7.69s0-2.39-.06-3.08a4.7,4.7,0,0,0-.55-1.33,13.94,13.94,0,1,0-24,14.17,15.3,15.3,0,0,0,1.77,2.16,13.9,13.9,0,0,0,19.38.25,14.32,14.32,0,0,0,2-2.34c.07.16.13.31.21.46a16.26,16.26,0,0,0,.88,1.65,16.29,16.29,0,0,1-1.74,1.88,16.06,16.06,0,1,1,.57-23,14.29,14.29,0,0,1,1.9,2.34l.17.26.07.13.07.11.28.49a11,11,0,0,1,.75,1.59,5.87,5.87,0,0,1,.26,1.06c.06.63.06.92.06.92l0,6.66a10.34,10.34,0,0,0,.63,4.25,13.94,13.94,0,0,0,26.23-6.56,13.83,13.83,0,0,0-1.65-6.57,16.14,16.14,0,0,0-4.71-5.12,13.89,13.89,0,0,0-17.75,2.18A15.28,15.28,0,0,0,130.33,12l-.15-.32a16.78,16.78,0,0,0-1-1.77q.5-.62,1.05-1.2A16,16,0,0,1,158,19.78Z"/><polygon class="cls-5" points="94 3.74 94 35.88 91.88 35.88 91.88 20.02 74.1 20.02 74.1 35.88 71.97 35.88 71.97 3.74 74.1 3.74 74.1 17.89 91.88 17.89 91.88 3.74 94 3.74"/><polygon class="cls-6" points="226.55 19.51 236.21 35.88 233.73 35.88 225.31 21.6 226.55 19.51"/><polygon class="cls-6" points="235.87 3.77 226.55 19.51 225.32 17.42 233.42 3.74 235.81 3.74 235.87 3.77"/><polygon class="cls-6" points="225.32 17.42 226.55 19.51 225.31 21.6 224.08 19.51 225.32 17.42"/><polygon class="cls-6" points="217.25 3.74 225.32 17.42 224.08 19.51 214.78 3.74 217.25 3.74"/><polygon class="cls-6" points="224.08 19.51 225.31 21.6 216.85 35.88 214.38 35.88 224.08 19.51"/><path class="cls-6" d="M202.81,4a16.1,16.1,0,0,1,0,31.58,17.25,17.25,0,0,0,10.57-15.79A17.25,17.25,0,0,0,202.81,4Z"/><path class="cls-6" d="M194.5,3.71a16.07,16.07,0,1,1-16.07,16.07A16.1,16.1,0,0,1,194.5,3.71Zm13.94,16.07A13.95,13.95,0,1,0,194.5,33.72,14,14,0,0,0,208.44,19.78Z"/><path class="cls-6" d="M168.77,3.74a7.95,7.95,0,1,1,0,15.89h-4.56V35.88h-2.13V3.74h6.69Zm5.61,7.91a5.78,5.78,0,0,0-5.78-5.78h-4.39V17.43h4.39A5.77,5.77,0,0,0,174.38,11.65Z"/><path class="cls-6" d="M158,19.78a16,16,0,0,1-25,13.32,14,14,0,0,1-5-5.31l0-.07h0a14.71,14.71,0,0,1-.7-1.57,6.39,6.39,0,0,1-.21-.71c-.2-1.3-.09-7.69-.09-7.69s0-2.39-.06-3.08a4.7,4.7,0,0,0-.55-1.33,13.94,13.94,0,1,0-24,14.17,15.3,15.3,0,0,0,1.77,2.16,13.9,13.9,0,0,0,19.38.25,14.32,14.32,0,0,0,2-2.34c.07.16.13.31.21.46a16.26,16.26,0,0,0,.88,1.65,16.29,16.29,0,0,1-1.74,1.88,16.06,16.06,0,1,1,.57-23,14.29,14.29,0,0,1,1.9,2.34l.17.26.07.13.07.11.28.49a11,11,0,0,1,.75,1.59,5.87,5.87,0,0,1,.26,1.06c.06.63.06.92.06.92l0,6.66a10.34,10.34,0,0,0,.63,4.25,13.94,13.94,0,0,0,26.23-6.56,13.83,13.83,0,0,0-1.65-6.57,16.14,16.14,0,0,0-4.71-5.12,13.89,13.89,0,0,0-17.75,2.18A15.28,15.28,0,0,0,130.33,12l-.15-.32a16.78,16.78,0,0,0-1-1.77q.5-.62,1.05-1.2A16,16,0,0,1,158,19.78Z"/><polygon class="cls-6" points="94 3.74 94 35.88 91.88 35.88 91.88 20.02 74.1 20.02 74.1 35.88 71.97 35.88 71.97 3.74 74.1 3.74 74.1 17.89 91.88 17.89 91.88 3.74 94 3.74"/><g class="cls-7"><rect class="cls-8" x="71.97" y="39.69" width="170.05" height="14.05"/></g></g></g></g></svg>